<svg width="76" height="188" viewBox="0 0 76 188" fill="none" xmlns="http://www.w3.org/2000/svg">
<path opacity="0.1" d="M28.8389 94.2976C30.6164 93.8954 32.3633 93.3673 34.0662 92.7172L19.5067 76.3412L37.5663 91.2006C42.3855 88.8102 46.6678 85.4621 50.1513 81.3611C53.6348 77.2601 56.2462 72.4926 57.8258 67.35L23.1849 60.2595L59.072 61.9187C59.9636 56.5474 59.735 51.0511 58.4006 45.7755C57.0662 40.5 54.6548 35.5591 51.318 31.2636C47.9811 26.9681 43.7911 23.4108 39.0112 20.8153C34.2312 18.2198 28.9648 16.6422 23.5429 16.1817C18.121 15.7213 12.661 16.3879 7.50592 18.1397C2.35087 19.8915 -2.38767 22.6906 -6.41188 26.361C-10.4361 30.0313 -13.6589 34.4937 -15.8778 39.4675C-18.0966 44.4413 -19.2636 49.819 -19.3052 55.2626C-22.0718 55.8917 -24.7629 56.8173 -27.332 58.0233L-14.7363 87.079L-31.6565 60.4191C-37.2084 63.9288 -41.7993 68.7672 -45.0135 74.4961C-48.2276 80.225 -49.9633 86.6634 -50.0635 93.2282C-57.2845 94.8724 -63.9 98.5155 -69.1538 103.741C-74.4075 108.966 -78.0874 115.562 -79.7727 122.776C-81.4581 129.99 -81.0808 137.529 -78.684 144.532C-76.2872 151.536 -71.9676 157.72 -66.2192 162.379C-60.4708 167.037 -53.5255 169.982 -46.1776 170.876C-38.8296 171.77 -31.3755 170.577 -24.6676 167.434C-17.9597 164.29 -12.2687 159.324 -8.24531 153.101C-4.22193 146.879 -2.02852 139.652 -1.91596 132.247C6.71337 130.283 14.4361 125.474 20.0114 118.595C25.5867 111.715 28.6909 103.164 28.8252 94.3145L28.8389 94.2976Z" fill="#6C63FF"/>
</svg>
