<svg width="120" height="86" viewBox="0 0 120 86" fill="none" xmlns="http://www.w3.org/2000/svg">
<path opacity="0.15" d="M115.999 25.7158L104.355 33.1312L111.422 20.2223C109.424 18.6173 106.948 17.731 104.389 17.7051H104.185C103.379 17.7196 102.573 17.6569 101.779 17.518L97.8294 20.0352L99.5243 16.9397C96.7251 15.9626 94.305 14.1234 92.6092 11.6843L85.5415 16.1744L90.016 8.04468C88.1369 5.60977 85.7416 3.62473 83.0037 2.23336C80.2658 0.84199 77.2537 0.0791238 74.1858 0C66.8299 0 60.2877 4.38799 56.0674 11.2251C54.8165 13.2693 53.0494 14.9454 50.945 16.0834C48.8406 17.2213 46.4738 17.7808 44.0845 17.7051H43.6947C35.5761 17.7051 29 26.9233 29 38.3185C29 49.7137 35.5761 58.932 43.6947 58.932C45.4685 58.9182 47.2129 58.4748 48.7793 57.6394C51.539 56.2958 54.5566 55.5695 57.6233 55.5108C60.6901 55.452 63.733 56.0622 66.5418 57.2992C68.9323 58.3932 71.5246 58.9725 74.1518 59C76.738 58.9954 79.295 58.451 81.6602 57.4013C84.4515 56.1891 87.4695 55.5922 90.5104 55.6509C93.5513 55.7095 96.5443 56.4224 99.2871 57.7414C100.856 58.5663 102.6 58.998 104.372 59C112.473 59 119.049 49.7648 119.049 38.3866C119.118 33.9719 118.068 29.612 115.999 25.7158Z" fill="#6C63FF"/>
<path opacity="0.15" d="M28.0165 75.2813L24.2668 77.6694L26.5428 73.5123C25.8994 72.9954 25.1018 72.71 24.2777 72.7016H24.2122C23.9525 72.7063 23.693 72.6861 23.4372 72.6414L22.1654 73.452L22.7112 72.4552C21.8098 72.1405 21.0304 71.5482 20.4843 70.7628L18.2083 72.2087L19.6492 69.5907C19.0441 68.8065 18.2727 68.1673 17.391 67.7192C16.5093 67.2711 15.5393 67.0255 14.5513 67C12.1825 67 10.0757 68.4131 8.71661 70.6149C8.3138 71.2732 7.74472 71.8129 7.06704 72.1794C6.38935 72.5459 5.62716 72.726 4.85772 72.7016H4.73218C2.11774 72.7016 0 75.6702 0 79.3399C0 83.0095 2.11774 85.9781 4.73218 85.9781C5.30343 85.9737 5.86516 85.8309 6.36961 85.5618C7.25832 85.1291 8.23008 84.8953 9.21769 84.8764C10.2053 84.8574 11.1852 85.0539 12.0897 85.4523C12.8596 85.8046 13.6944 85.9912 14.5404 86C15.3733 85.9985 16.1967 85.8232 16.9584 85.4852C17.8573 85.0948 18.8292 84.9026 19.8084 84.9215C20.7877 84.9404 21.7515 85.1699 22.6348 85.5947C23.1401 85.8603 23.7019 85.9994 24.2723 86C26.8812 86 28.999 83.0259 28.999 79.3618C29.0211 77.9401 28.683 76.5361 28.0165 75.2813Z" fill="#6C63FF"/>
</svg>
