<svg width="1440" height="192" viewBox="0 0 1440 192" fill="none" xmlns="http://www.w3.org/2000/svg">
<path d="M189 116.31C112.38 104.286 0 55.3097 0 55.3097V191.81H1444.5C1444.5 191.81 1485.61 92.402 1444.5 64.3097C1412.94 42.746 1384.72 78.9523 1347 72.8097C1326.03 69.3951 1315.96 60.2919 1295 56.8097C1229.3 45.8944 1195.51 87.3226 1130.5 101.81C1073.19 114.582 1041.13 125.177 982.5 128.31C921.096 131.591 886.989 116.858 825.5 116.31C717.063 115.342 657.637 154.926 549.5 146.81C484.921 141.963 450.933 122.812 386.5 116.31C309.761 108.566 265.196 128.267 189 116.31Z" fill="#D1D3D4"/>
<path d="M1244 13.142C1244 38.0103 1259.59 58.1367 1278.85 58.1367L1244 13.142Z" fill="#46455B"/>
<path d="M1278.85 58.1416C1278.85 32.9911 1296.25 12.642 1317.75 12.642L1278.85 58.1416Z" fill="#57547D"/>
<path d="M1256.63 15.3992C1256.63 39.0251 1266.57 58.1417 1278.85 58.1417L1256.63 15.3992Z" fill="#57547D"/>
<path d="M1278.85 58.1417C1278.85 26.0069 1298.96 0 1323.8 0L1278.85 58.1417Z" fill="#46455B"/>
<path opacity="0.2" d="M1277.34 66.7347C1282.13 66.7347 1286.01 66.0787 1286.01 65.2695C1286.01 64.4603 1282.13 63.8043 1277.34 63.8043C1272.56 63.8043 1268.68 64.4603 1268.68 65.2695C1268.68 66.0787 1272.56 66.7347 1277.34 66.7347Z" fill="#57547D"/>
<path d="M1271.52 58.4583C1271.52 58.4583 1276.47 58.3049 1277.95 57.2456C1279.43 56.1863 1285.55 54.9142 1285.92 56.617C1286.29 58.3198 1293.34 65.0863 1287.77 65.1308C1282.19 65.1754 1274.8 64.2596 1273.32 63.3538C1271.83 62.448 1271.52 58.4583 1271.52 58.4583Z" fill="#A8A8A8"/>
<path opacity="0.2" d="M1287.87 64.5369C1282.29 64.5815 1274.91 63.6657 1273.42 62.7599C1272.29 62.0719 1271.84 59.592 1271.68 58.4535H1271.52C1271.52 58.4535 1271.83 62.4431 1273.32 63.3489C1274.81 64.2548 1282.19 65.1705 1287.77 65.126C1289.38 65.126 1289.94 64.5369 1289.91 63.6905C1289.68 64.2053 1289.1 64.527 1287.87 64.5369Z" fill="black"/>
<path d="M845 85.4591C845 105.259 857.398 121.257 872.724 121.257L845 85.4591Z" fill="#46455B"/>
<path d="M872.725 121.257C872.725 101.249 886.572 85.0582 903.668 85.0582L872.725 121.257Z" fill="#57547D"/>
<path d="M855.045 87.261C855.045 106.071 862.958 121.267 872.725 121.267L855.045 87.261Z" fill="#57547D"/>
<path d="M872.725 121.257C872.725 95.6906 888.723 75 908.49 75L872.725 121.257Z" fill="#46455B"/>
<path opacity="0.2" d="M871.522 128.098C875.329 128.098 878.416 127.575 878.416 126.93C878.416 126.284 875.329 125.761 871.522 125.761C867.714 125.761 864.628 126.284 864.628 126.93C864.628 127.575 867.714 128.098 871.522 128.098Z" fill="#57547D"/>
<path d="M866.893 121.509C866.893 121.509 870.824 121.386 872.006 120.519C873.188 119.653 878.059 118.663 878.351 120.024C878.643 121.386 884.261 126.761 879.835 126.796C875.409 126.831 869.519 126.103 868.337 125.385C867.155 124.667 866.893 121.509 866.893 121.509Z" fill="#A8A8A8"/>
</svg>
