<svg width="438" height="94" viewBox="0 0 438 94" fill="none" xmlns="http://www.w3.org/2000/svg">
<g opacity="0.2">
<path d="M45.937 78.4304H4.34405C1.94489 78.4304 0 80.3771 0 82.7785V89.2976C0 91.6989 1.94489 93.6456 4.34405 93.6456H45.937C48.3362 93.6456 50.2811 91.6989 50.2811 89.2976V82.7785C50.2811 80.3771 48.3362 78.4304 45.937 78.4304Z" fill="#FF8E01"/>
</g>
<path opacity="0.5" d="M45.937 39.2152H4.34405C1.94489 39.2152 0 41.1619 0 43.5632V50.0824C0 52.4837 1.94489 54.4304 4.34405 54.4304H45.937C48.3362 54.4304 50.2811 52.4837 50.2811 50.0824V43.5632C50.2811 41.1619 48.3362 39.2152 45.937 39.2152Z" fill="#FF8E01"/>
<path opacity="0.8" d="M45.937 0H4.34405C1.94489 0 0 1.94668 0 4.34804V10.8672C0 13.2685 1.94489 15.2152 4.34405 15.2152H45.937C48.3362 15.2152 50.2811 13.2685 50.2811 10.8672V4.34804C50.2811 1.94668 48.3362 0 45.937 0Z" fill="#FF8E01"/>
<path opacity="0.2" d="M432.937 3H391.344C388.945 3 387 4.94668 387 7.34804V13.8672C387 16.2685 388.945 18.2152 391.344 18.2152H432.937C435.336 18.2152 437.281 16.2685 437.281 13.8672V7.34804C437.281 4.94668 435.336 3 432.937 3Z" fill="#F9F9F9"/>
</svg>
