<svg width="1440" height="185" viewBox="0 0 1440 185" fill="none" xmlns="http://www.w3.org/2000/svg">
<path d="M189 109.31C112.38 97.2856 0 48.3097 0 48.3097V184.81H1444.5C1444.5 184.81 1485.61 85.402 1444.5 57.3097C1412.94 35.746 1384.72 71.9523 1347 65.8097C1326.03 62.3951 1315.96 53.2919 1295 49.8097C1229.3 38.8944 1195.51 80.3226 1130.5 94.8097C1073.19 107.582 1041.13 118.177 982.5 121.31C921.096 124.591 886.989 109.858 825.5 109.31C717.063 108.342 657.637 147.926 549.5 139.81C484.921 134.963 450.933 115.812 386.5 109.31C309.761 101.566 265.196 121.267 189 109.31Z" fill="#D1D3D4"/>
<path d="M1248 11.857C1248 34.2939 1262.06 52.4524 1279.44 52.4524L1248 11.857Z" fill="#46455B"/>
<path d="M1279.44 52.4568C1279.44 29.7654 1295.14 11.4059 1314.53 11.4059L1279.44 52.4568Z" fill="#57547D"/>
<path d="M1259.4 13.8936C1259.4 35.2095 1268.36 52.457 1279.44 52.457L1259.4 13.8936Z" fill="#57547D"/>
<path d="M1279.44 52.457C1279.44 23.4641 1297.58 0 1320 0L1279.44 52.457Z" fill="#46455B"/>
<path opacity="0.2" d="M1278.08 60.2098C1282.4 60.2098 1285.9 59.6179 1285.9 58.8879C1285.9 58.1578 1282.4 57.5659 1278.08 57.5659C1273.76 57.5659 1270.26 58.1578 1270.26 58.8879C1270.26 59.6179 1273.76 60.2098 1278.08 60.2098Z" fill="#57547D"/>
<path d="M1272.83 52.7426C1272.83 52.7426 1277.29 52.6042 1278.63 51.6485C1279.97 50.6928 1285.49 49.545 1285.82 51.0813C1286.16 52.6176 1292.51 58.7225 1287.49 58.7627C1282.46 58.8029 1275.79 57.9767 1274.45 57.1594C1273.11 56.3422 1272.83 52.7426 1272.83 52.7426Z" fill="#A8A8A8"/>
<path opacity="0.2" d="M1287.58 58.2269C1282.55 58.2671 1275.89 57.4409 1274.54 56.6236C1273.52 56.0029 1273.11 53.7654 1272.98 52.7383H1272.83C1272.83 52.7383 1273.11 56.3378 1274.45 57.1551C1275.8 57.9723 1282.46 58.7985 1287.49 58.7583C1288.95 58.7583 1289.45 58.2269 1289.42 57.4632C1289.22 57.9277 1288.69 58.218 1287.58 58.2269Z" fill="black"/>
<path d="M851 86.0953C851 101.42 860.596 113.803 872.458 113.803L851 86.0953Z" fill="#46455B"/>
<path d="M872.459 113.803C872.459 98.3171 883.177 85.7851 896.409 85.7851L872.459 113.803Z" fill="#57547D"/>
<path d="M858.775 87.4901C858.775 102.049 864.9 113.811 872.46 113.811L858.775 87.4901Z" fill="#57547D"/>
<path d="M872.459 113.803C872.459 94.0146 884.842 78 900.141 78L872.459 113.803Z" fill="#46455B"/>
<path opacity="0.2" d="M871.528 119.098C874.475 119.098 876.864 118.693 876.864 118.194C876.864 117.694 874.475 117.289 871.528 117.289C868.581 117.289 866.192 117.694 866.192 118.194C866.192 118.693 868.581 119.098 871.528 119.098Z" fill="#57547D"/>
<path d="M867.945 113.998C867.945 113.998 870.988 113.903 871.903 113.232C872.818 112.562 876.588 111.795 876.814 112.849C877.04 113.903 881.388 118.063 877.962 118.09C874.537 118.117 869.978 117.554 869.063 116.998C868.148 116.443 867.945 113.998 867.945 113.998Z" fill="#A8A8A8"/>
</svg>
