<svg width="1440" height="160" viewBox="0 0 1440 160" fill="none" xmlns="http://www.w3.org/2000/svg">
<path d="M189 84.3097C112.38 72.2856 0 23.3097 0 23.3097V159.81H1444.5C1444.5 159.81 1485.61 60.402 1444.5 32.3097C1412.94 10.746 1384.72 46.9523 1347 40.8097C1326.03 37.3951 1315.96 28.2919 1295 24.8097C1229.3 13.8944 1195.51 55.3226 1130.5 69.8097C1073.19 82.5817 1041.13 93.1765 982.5 96.3097C921.096 99.591 886.989 84.8584 825.5 84.3097C717.063 83.3421 657.637 122.926 549.5 114.81C484.921 109.963 450.933 90.8119 386.5 84.3097C309.761 76.5657 265.196 96.2672 189 84.3097Z" fill="#D1D3D4"/>
<path d="M863 73C863 81.4798 868.31 88.3315 874.874 88.3315L863 73Z" fill="#46455B"/>
<path d="M867.302 73.7717C867.302 81.8276 870.691 88.3358 874.874 88.3358L867.302 73.7717Z" fill="#57547D"/>
<path d="M884.724 73.66C884.724 82.1398 879.414 88.9915 872.851 88.9915L884.724 73.66Z" fill="#46455B"/>
<path d="M880.422 74.4317C880.422 82.4875 877.034 88.9958 872.85 88.9958L880.422 74.4317Z" fill="#57547D"/>
<path opacity="0.2" d="M871.522 96.0978C875.329 96.0978 878.416 95.5748 878.416 94.9297C878.416 94.2845 875.329 93.7615 871.522 93.7615C867.714 93.7615 864.628 94.2845 864.628 94.9297C864.628 95.5748 867.714 96.0978 871.522 96.0978Z" fill="#57547D"/>
<path d="M866.893 89.5094C866.893 89.5094 870.825 89.3856 872.007 88.5194C873.189 87.6532 878.06 86.6632 878.352 88.0244C878.643 89.3856 884.261 94.7613 879.835 94.7959C875.409 94.8306 869.519 94.1029 868.337 93.3852C867.155 92.6675 866.893 89.5094 866.893 89.5094Z" fill="#A8A8A8"/>
<path d="M1259 0.406605C1259 16.3369 1270.02 29.226 1283.64 29.226L1259 0.406605Z" fill="#57547D"/>
<path d="M1304 -1.14441e-05C1304 15.9303 1292.98 28.8194 1279.36 28.8194L1304 -1.14441e-05Z" fill="#57547D"/>
<path opacity="0.2" d="M1277.34 34.7347C1282.13 34.7347 1286.01 34.0787 1286.01 33.2695C1286.01 32.4603 1282.13 31.8043 1277.34 31.8043C1272.56 31.8043 1268.68 32.4603 1268.68 33.2695C1268.68 34.0787 1272.56 34.7347 1277.34 34.7347Z" fill="#57547D"/>
<path d="M1271.52 26.4583C1271.52 26.4583 1276.47 26.3049 1277.95 25.2456C1279.43 24.1863 1285.55 22.9142 1285.92 24.617C1286.29 26.3198 1293.34 33.0863 1287.77 33.1308C1282.19 33.1754 1274.8 32.2596 1273.32 31.3538C1271.83 30.448 1271.52 26.4583 1271.52 26.4583Z" fill="#A8A8A8"/>
<path opacity="0.2" d="M1287.87 32.5369C1282.29 32.5815 1274.91 31.6657 1273.42 30.7599C1272.29 30.0719 1271.84 27.592 1271.68 26.4535H1271.52C1271.52 26.4535 1271.83 30.4431 1273.32 31.3489C1274.81 32.2548 1282.19 33.1705 1287.77 33.126C1289.38 33.126 1289.94 32.5369 1289.91 31.6905C1289.68 32.2053 1289.1 32.527 1287.87 32.5369Z" fill="black"/>
</svg>
