<svg width="1440" height="164" viewBox="0 0 1440 164" fill="none" xmlns="http://www.w3.org/2000/svg">
<path d="M189 88.3097C112.38 76.2856 0 27.3097 0 27.3097V163.81H1444.5C1444.5 163.81 1485.61 64.402 1444.5 36.3097C1412.94 14.746 1384.72 50.9523 1347 44.8097C1326.03 41.3951 1315.96 32.2919 1295 28.8097C1229.3 17.8944 1195.51 59.3226 1130.5 73.8097C1073.19 86.5817 1041.13 97.1765 982.5 100.31C921.096 103.591 886.989 88.8584 825.5 88.3097C717.063 87.3421 657.637 126.926 549.5 118.81C484.921 113.963 450.933 94.8119 386.5 88.3097C309.761 80.5657 265.196 100.267 189 88.3097Z" fill="#D1D3D4"/>
<path d="M1261 7.03717C1261 20.3535 1269.35 31.1307 1279.66 31.1307L1261 7.03717Z" fill="#46455B"/>
<path d="M1279.66 31.1333C1279.66 17.6659 1288.98 6.76947 1300.49 6.76947L1279.66 31.1333Z" fill="#57547D"/>
<path d="M1267.76 8.24585C1267.76 20.8969 1273.09 31.1334 1279.66 31.1334L1267.76 8.24585Z" fill="#57547D"/>
<path d="M1279.66 31.1334C1279.66 13.926 1290.43 0 1303.73 0L1279.66 31.1334Z" fill="#46455B"/>
<path opacity="0.2" d="M1278.85 35.7347C1281.42 35.7347 1283.49 35.3835 1283.49 34.9502C1283.49 34.5169 1281.42 34.1656 1278.85 34.1656C1276.29 34.1656 1274.21 34.5169 1274.21 34.9502C1274.21 35.3835 1276.29 35.7347 1278.85 35.7347Z" fill="#57547D"/>
<path d="M1275.74 31.3029C1275.74 31.3029 1278.38 31.2208 1279.18 30.6535C1279.97 30.0863 1283.25 29.4052 1283.45 30.3169C1283.65 31.2287 1287.42 34.852 1284.44 34.8759C1281.45 34.8997 1277.49 34.4094 1276.7 33.9243C1275.9 33.4393 1275.74 31.3029 1275.74 31.3029Z" fill="#A8A8A8"/>
<path opacity="0.2" d="M1284.49 34.5579C1281.5 34.5817 1277.55 34.0914 1276.75 33.6063C1276.15 33.2379 1275.91 31.91 1275.82 31.3004H1275.74C1275.74 31.3004 1275.9 33.4367 1276.7 33.9217C1277.5 34.4068 1281.45 34.8971 1284.44 34.8733C1285.3 34.8733 1285.6 34.5579 1285.58 34.1046C1285.46 34.3803 1285.15 34.5526 1284.49 34.5579Z" fill="black"/>
<path d="M859 77.9421C859 87.2979 864.858 94.8574 872.1 94.8574L859 77.9421Z" fill="#46455B"/>
<path d="M872.1 94.8574C872.1 85.4034 878.643 77.7527 886.721 77.7527L872.1 94.8574Z" fill="#57547D"/>
<path d="M863.746 78.7936C863.746 87.6816 867.485 94.8621 872.1 94.8621L863.746 78.7936Z" fill="#57547D"/>
<path d="M872.1 94.8574C872.1 82.7768 879.66 73 889 73L872.1 94.8574Z" fill="#46455B"/>
<path opacity="0.2" d="M871.532 98.0899C873.331 98.0899 874.79 97.8428 874.79 97.5379C874.79 97.233 873.331 96.9859 871.532 96.9859C869.733 96.9859 868.275 97.233 868.275 97.5379C868.275 97.8428 869.733 98.0899 871.532 98.0899Z" fill="#57547D"/>
<path d="M869.345 94.9767C869.345 94.9767 871.202 94.9182 871.761 94.5089C872.319 94.0996 874.621 93.6318 874.759 94.275C874.897 94.9182 877.552 97.4583 875.46 97.4747C873.369 97.4911 870.586 97.1472 870.027 96.8081C869.469 96.4689 869.345 94.9767 869.345 94.9767Z" fill="#A8A8A8"/>
</svg>
