<svg width="400" height="416" viewBox="0 0 400 416" fill="none" xmlns="http://www.w3.org/2000/svg">
<path opacity="0.6" d="M41.8626 130.789C62.3118 139.659 74.062 158.013 74.062 158.013C74.062 158.013 52.6534 161.973 32.1993 153.108C11.7453 144.243 0 125.883 0 125.883C0 125.883 21.4085 121.918 41.8626 130.789Z" fill="#FF8E01"/>
<path d="M40.8669 105.749C45.3919 121.915 57.8641 132.558 57.8641 132.558C57.8641 132.558 63.0024 116.98 58.4774 100.809C53.9523 84.6374 41.4752 74 41.4752 74C41.4752 74 36.3369 89.5774 40.8669 105.749Z" fill="#FF8E01"/>
<path opacity="0.6" d="M79.8258 105.345C86.151 94.9499 96.922 90 96.922 90C96.922 90 97.4165 101.85 91.1112 112.215C84.8058 122.58 74.01 127.525 74.01 127.525C74.01 127.525 73.4957 115.68 79.8258 105.345Z" fill="#FF8E01"/>
<path d="M395.739 97.8038H42.3517C40.3825 97.8038 38.7861 99.4017 38.7861 101.373V274.907C38.7861 276.878 40.3825 278.476 42.3517 278.476H395.739C397.708 278.476 399.304 276.878 399.304 274.907V101.373C399.304 99.4017 397.708 97.8038 395.739 97.8038Z" fill="#F2F2F2"/>
<path d="M65.994 123.032H69.844C70.936 123.032 71.874 123.228 72.658 123.62C73.442 124.012 74.0393 124.581 74.45 125.328C74.87 126.075 75.08 126.966 75.08 128.002C75.08 129.047 74.8747 129.943 74.464 130.69C74.0533 131.437 73.456 132.011 72.672 132.412C71.888 132.804 70.9453 133 69.844 133H65.994V123.032ZM69.704 131.236C71.832 131.236 72.896 130.158 72.896 128.002C72.896 125.865 71.832 124.796 69.704 124.796H68.178V131.236H69.704ZM84.4668 125.902V133H82.3808V131.95C82.1661 132.314 81.8628 132.599 81.4708 132.804C81.0788 133.009 80.6354 133.112 80.1408 133.112C79.5248 133.112 78.9788 132.963 78.5028 132.664C78.0361 132.365 77.6674 131.941 77.3968 131.39C77.1354 130.83 77.0048 130.186 77.0048 129.458C77.0048 128.73 77.1354 128.081 77.3968 127.512C77.6674 126.943 78.0408 126.504 78.5168 126.196C78.9928 125.879 79.5341 125.72 80.1408 125.72C80.6354 125.72 81.0788 125.827 81.4708 126.042C81.8628 126.257 82.1661 126.546 82.3808 126.91V125.902H84.4668ZM80.7568 131.502C81.2794 131.502 81.6808 131.325 81.9608 130.97C82.2408 130.615 82.3808 130.102 82.3808 129.43C82.3808 128.758 82.2408 128.245 81.9608 127.89C81.6808 127.526 81.2794 127.344 80.7568 127.344C80.2341 127.344 79.8281 127.531 79.5388 127.904C79.2494 128.277 79.1048 128.795 79.1048 129.458C79.1048 130.121 79.2448 130.629 79.5248 130.984C79.8141 131.329 80.2248 131.502 80.7568 131.502ZM93.8731 125.902L90.5971 133.378C90.1958 134.283 89.6871 134.946 89.0711 135.366C88.4645 135.795 87.7178 136.071 86.8311 136.192L86.3411 134.568C86.9945 134.428 87.4845 134.251 87.8111 134.036C88.1471 133.821 88.4085 133.509 88.5951 133.098L88.8051 132.636L85.8791 125.902H88.0911L89.9111 130.508L91.7871 125.902H93.8731ZM104.906 127.876C105.485 128.044 105.928 128.338 106.236 128.758C106.553 129.169 106.712 129.677 106.712 130.284C106.712 131.161 106.381 131.852 105.718 132.356C105.055 132.86 104.155 133.112 103.016 133.112C102.325 133.112 101.663 133.014 101.028 132.818C100.393 132.613 99.8799 132.337 99.4879 131.992L100.188 130.424C101.075 131.068 101.985 131.39 102.918 131.39C103.525 131.39 103.963 131.287 104.234 131.082C104.514 130.867 104.654 130.531 104.654 130.074C104.654 129.635 104.514 129.318 104.234 129.122C103.963 128.917 103.525 128.814 102.918 128.814H101.49V127.106H102.68C103.259 127.106 103.688 127.008 103.968 126.812C104.248 126.607 104.388 126.299 104.388 125.888C104.388 125.477 104.262 125.165 104.01 124.95C103.767 124.735 103.417 124.628 102.96 124.628C102.531 124.628 102.092 124.712 101.644 124.88C101.196 125.039 100.757 125.277 100.328 125.594L99.6279 124.026C100.029 123.681 100.543 123.41 101.168 123.214C101.793 123.009 102.437 122.906 103.1 122.906C103.772 122.906 104.36 123.018 104.864 123.242C105.377 123.466 105.769 123.779 106.04 124.18C106.32 124.581 106.46 125.053 106.46 125.594C106.46 126.135 106.325 126.607 106.054 127.008C105.783 127.4 105.401 127.689 104.906 127.876ZM113.724 128.38H118.078V130.046H113.724V128.38ZM125.506 123.032H128.992C130.607 123.032 131.857 123.466 132.744 124.334C133.631 125.202 134.074 126.425 134.074 128.002C134.074 129.589 133.631 130.821 132.744 131.698C131.857 132.566 130.607 133 128.992 133H125.506V123.032ZM128.908 131.796C131.363 131.796 132.59 130.531 132.59 128.002C132.59 125.491 131.363 124.236 128.908 124.236H126.948V131.796H128.908ZM142.641 129.5H137.601C137.648 131.152 138.399 131.978 139.855 131.978C140.667 131.978 141.409 131.712 142.081 131.18L142.515 132.188C142.198 132.468 141.792 132.692 141.297 132.86C140.812 133.019 140.322 133.098 139.827 133.098C138.698 133.098 137.811 132.776 137.167 132.132C136.523 131.479 136.201 130.587 136.201 129.458C136.201 128.739 136.341 128.1 136.621 127.54C136.91 126.98 137.312 126.546 137.825 126.238C138.338 125.93 138.922 125.776 139.575 125.776C140.527 125.776 141.274 126.084 141.815 126.7C142.366 127.316 142.641 128.17 142.641 129.262V129.5ZM139.603 126.826C139.071 126.826 138.637 126.985 138.301 127.302C137.965 127.619 137.75 128.072 137.657 128.66H141.395C141.339 128.063 141.157 127.61 140.849 127.302C140.541 126.985 140.126 126.826 139.603 126.826ZM148.03 133.098C147.32 133.098 146.7 132.949 146.168 132.65C145.645 132.351 145.244 131.931 144.964 131.39C144.684 130.839 144.544 130.2 144.544 129.472C144.544 128.744 144.688 128.1 144.978 127.54C145.276 126.98 145.692 126.546 146.224 126.238C146.756 125.93 147.376 125.776 148.086 125.776C148.58 125.776 149.056 125.86 149.514 126.028C149.971 126.187 150.34 126.406 150.62 126.686L150.186 127.708C149.523 127.185 148.856 126.924 148.184 126.924C147.502 126.924 146.97 127.148 146.588 127.596C146.205 128.035 146.014 128.655 146.014 129.458C146.014 130.261 146.205 130.881 146.588 131.32C146.97 131.749 147.502 131.964 148.184 131.964C148.874 131.964 149.542 131.703 150.186 131.18L150.62 132.202C150.321 132.482 149.938 132.701 149.472 132.86C149.014 133.019 148.534 133.098 148.03 133.098ZM152.65 125.944H154.05V133H152.65V125.944ZM154.162 122.864V124.348H152.524V122.864H154.162ZM163.277 122.696V133H161.877V131.796C161.671 132.216 161.363 132.538 160.953 132.762C160.551 132.986 160.08 133.098 159.539 133.098C158.932 133.098 158.391 132.944 157.915 132.636C157.439 132.328 157.065 131.899 156.795 131.348C156.533 130.788 156.403 130.144 156.403 129.416C156.403 128.688 156.533 128.049 156.795 127.498C157.056 126.947 157.42 126.523 157.887 126.224C158.363 125.925 158.913 125.776 159.539 125.776C160.071 125.776 160.537 125.888 160.939 126.112C161.349 126.336 161.657 126.653 161.863 127.064V122.696H163.277ZM159.861 131.978C160.505 131.978 160.999 131.759 161.345 131.32C161.699 130.872 161.877 130.247 161.877 129.444C161.877 128.641 161.699 128.021 161.345 127.582C160.999 127.134 160.509 126.91 159.875 126.91C159.231 126.91 158.727 127.129 158.363 127.568C158.008 128.007 157.831 128.623 157.831 129.416C157.831 130.219 158.008 130.849 158.363 131.306C158.727 131.754 159.226 131.978 159.861 131.978ZM172.074 129.5H167.034C167.081 131.152 167.832 131.978 169.288 131.978C170.1 131.978 170.842 131.712 171.514 131.18L171.948 132.188C171.631 132.468 171.225 132.692 170.73 132.86C170.245 133.019 169.755 133.098 169.26 133.098C168.131 133.098 167.244 132.776 166.6 132.132C165.956 131.479 165.634 130.587 165.634 129.458C165.634 128.739 165.774 128.1 166.054 127.54C166.343 126.98 166.745 126.546 167.258 126.238C167.771 125.93 168.355 125.776 169.008 125.776C169.96 125.776 170.707 126.084 171.248 126.7C171.799 127.316 172.074 128.17 172.074 129.262V129.5ZM169.036 126.826C168.504 126.826 168.07 126.985 167.734 127.302C167.398 127.619 167.183 128.072 167.09 128.66H170.828C170.772 128.063 170.59 127.61 170.282 127.302C169.974 126.985 169.559 126.826 169.036 126.826Z" fill="#46455B"/>
<path d="M101.953 161H97.1777V152.434H101.953V153.318H98.1738V156.078H101.725V156.957H98.1738V160.109H101.953V161ZM105.318 157.713L103.085 154.578H104.193L105.886 157.039L107.574 154.578H108.669L106.437 157.713L108.787 161H107.685L105.886 158.398L104.07 161H102.968L105.318 157.713ZM113.112 161.117C112.694 161.117 112.311 161.041 111.964 160.889C111.62 160.732 111.331 160.494 111.097 160.174H111.026C111.073 160.549 111.097 160.904 111.097 161.24V163.883H110.124V154.578H110.915L111.05 155.457H111.097C111.347 155.105 111.638 154.852 111.97 154.695C112.302 154.539 112.682 154.461 113.112 154.461C113.964 154.461 114.62 154.752 115.081 155.334C115.546 155.916 115.778 156.732 115.778 157.783C115.778 158.838 115.542 159.658 115.069 160.244C114.6 160.826 113.948 161.117 113.112 161.117ZM112.972 155.287C112.315 155.287 111.841 155.469 111.548 155.832C111.255 156.195 111.104 156.773 111.097 157.566V157.783C111.097 158.686 111.247 159.332 111.548 159.723C111.849 160.109 112.331 160.303 112.995 160.303C113.55 160.303 113.983 160.078 114.296 159.629C114.612 159.18 114.77 158.561 114.77 157.771C114.77 156.971 114.612 156.357 114.296 155.932C113.983 155.502 113.542 155.287 112.972 155.287ZM118.516 161H117.543V151.883H118.516V161ZM124.588 161L124.394 160.086H124.347C124.027 160.488 123.707 160.762 123.386 160.906C123.07 161.047 122.674 161.117 122.197 161.117C121.56 161.117 121.06 160.953 120.697 160.625C120.338 160.297 120.158 159.83 120.158 159.225C120.158 157.928 121.195 157.248 123.269 157.186L124.359 157.15V156.752C124.359 156.248 124.25 155.877 124.031 155.639C123.816 155.396 123.47 155.275 122.994 155.275C122.459 155.275 121.853 155.439 121.177 155.768L120.879 155.023C121.195 154.852 121.541 154.717 121.916 154.619C122.295 154.521 122.674 154.473 123.052 154.473C123.818 154.473 124.385 154.643 124.752 154.982C125.123 155.322 125.308 155.867 125.308 156.617V161H124.588ZM122.39 160.314C122.996 160.314 123.47 160.148 123.814 159.816C124.162 159.484 124.336 159.02 124.336 158.422V157.842L123.363 157.883C122.59 157.91 122.031 158.031 121.687 158.246C121.347 158.457 121.177 158.787 121.177 159.236C121.177 159.588 121.283 159.855 121.494 160.039C121.709 160.223 122.008 160.314 122.39 160.314ZM128.351 161H127.378V154.578H128.351V161ZM127.296 152.838C127.296 152.615 127.351 152.453 127.46 152.352C127.57 152.246 127.706 152.193 127.87 152.193C128.027 152.193 128.161 152.246 128.275 152.352C128.388 152.457 128.445 152.619 128.445 152.838C128.445 153.057 128.388 153.221 128.275 153.33C128.161 153.436 128.027 153.488 127.87 153.488C127.706 153.488 127.57 153.436 127.46 153.33C127.351 153.221 127.296 153.057 127.296 152.838ZM134.868 161V156.846C134.868 156.322 134.749 155.932 134.51 155.674C134.272 155.416 133.899 155.287 133.391 155.287C132.719 155.287 132.227 155.469 131.915 155.832C131.602 156.195 131.446 156.795 131.446 157.631V161H130.473V154.578H131.264L131.423 155.457H131.469C131.669 155.141 131.948 154.896 132.307 154.725C132.667 154.549 133.067 154.461 133.508 154.461C134.282 154.461 134.864 154.648 135.255 155.023C135.645 155.395 135.84 155.99 135.84 156.811V161H134.868ZM143.794 161.117C142.845 161.117 142.095 160.828 141.544 160.25C140.998 159.672 140.724 158.869 140.724 157.842C140.724 156.807 140.978 155.984 141.486 155.375C141.998 154.766 142.683 154.461 143.542 154.461C144.347 154.461 144.984 154.727 145.453 155.258C145.921 155.785 146.156 156.482 146.156 157.35V157.965H141.732C141.751 158.719 141.941 159.291 142.3 159.682C142.664 160.072 143.173 160.268 143.83 160.268C144.521 160.268 145.205 160.123 145.88 159.834V160.701C145.537 160.85 145.21 160.955 144.902 161.018C144.597 161.084 144.228 161.117 143.794 161.117ZM143.531 155.275C143.015 155.275 142.603 155.443 142.294 155.779C141.99 156.115 141.81 156.58 141.755 157.174H145.113C145.113 156.561 144.976 156.092 144.703 155.768C144.429 155.439 144.039 155.275 143.531 155.275ZM151.829 161L151.636 160.086H151.589C151.269 160.488 150.948 160.762 150.628 160.906C150.311 161.047 149.915 161.117 149.438 161.117C148.802 161.117 148.302 160.953 147.938 160.625C147.579 160.297 147.399 159.83 147.399 159.225C147.399 157.928 148.436 157.248 150.511 157.186L151.601 157.15V156.752C151.601 156.248 151.491 155.877 151.272 155.639C151.058 155.396 150.712 155.275 150.235 155.275C149.7 155.275 149.095 155.439 148.419 155.768L148.12 155.023C148.436 154.852 148.782 154.717 149.157 154.619C149.536 154.521 149.915 154.473 150.294 154.473C151.06 154.473 151.626 154.643 151.993 154.982C152.364 155.322 152.55 155.867 152.55 156.617V161H151.829ZM149.632 160.314C150.237 160.314 150.712 160.148 151.056 159.816C151.403 159.484 151.577 159.02 151.577 158.422V157.842L150.604 157.883C149.831 157.91 149.272 158.031 148.929 158.246C148.589 158.457 148.419 158.787 148.419 159.236C148.419 159.588 148.524 159.855 148.735 160.039C148.95 160.223 149.249 160.314 149.632 160.314ZM157.186 161.117C156.256 161.117 155.536 160.832 155.024 160.262C154.516 159.688 154.262 158.877 154.262 157.83C154.262 156.756 154.52 155.926 155.036 155.34C155.555 154.754 156.293 154.461 157.25 154.461C157.559 154.461 157.868 154.494 158.176 154.561C158.485 154.627 158.727 154.705 158.903 154.795L158.604 155.621C158.389 155.535 158.155 155.465 157.901 155.41C157.647 155.352 157.422 155.322 157.227 155.322C155.922 155.322 155.27 156.154 155.27 157.818C155.27 158.607 155.428 159.213 155.745 159.635C156.065 160.057 156.537 160.268 157.162 160.268C157.698 160.268 158.246 160.152 158.809 159.922V160.783C158.379 161.006 157.838 161.117 157.186 161.117ZM164.793 161V156.846C164.793 156.322 164.674 155.932 164.435 155.674C164.197 155.416 163.824 155.287 163.316 155.287C162.64 155.287 162.146 155.471 161.834 155.838C161.525 156.205 161.371 156.807 161.371 157.643V161H160.398V151.883H161.371V154.643C161.371 154.975 161.355 155.25 161.324 155.469H161.383C161.574 155.16 161.846 154.918 162.197 154.742C162.553 154.562 162.957 154.473 163.41 154.473C164.195 154.473 164.783 154.66 165.174 155.035C165.568 155.406 165.765 155.998 165.765 156.811V161H164.793ZM176.55 157.783C176.55 158.83 176.286 159.648 175.759 160.238C175.231 160.824 174.503 161.117 173.573 161.117C172.999 161.117 172.489 160.982 172.044 160.713C171.598 160.443 171.255 160.057 171.012 159.553C170.77 159.049 170.649 158.459 170.649 157.783C170.649 156.736 170.911 155.922 171.434 155.34C171.958 154.754 172.684 154.461 173.614 154.461C174.512 154.461 175.225 154.76 175.753 155.357C176.284 155.955 176.55 156.764 176.55 157.783ZM171.657 157.783C171.657 158.604 171.821 159.229 172.149 159.658C172.477 160.088 172.96 160.303 173.596 160.303C174.233 160.303 174.716 160.09 175.044 159.664C175.376 159.234 175.542 158.607 175.542 157.783C175.542 156.967 175.376 156.348 175.044 155.926C174.716 155.5 174.229 155.287 173.585 155.287C172.948 155.287 172.467 155.496 172.143 155.914C171.819 156.332 171.657 156.955 171.657 157.783ZM183.565 161L182.387 157.232C182.313 157.002 182.174 156.479 181.971 155.662H181.924C181.768 156.346 181.631 156.873 181.514 157.244L180.301 161H179.176L177.424 154.578H178.444C178.858 156.191 179.172 157.42 179.387 158.264C179.606 159.107 179.731 159.676 179.762 159.969H179.809C179.852 159.746 179.92 159.459 180.014 159.107C180.111 158.752 180.195 158.471 180.266 158.264L181.444 154.578H182.498L183.647 158.264C183.865 158.936 184.014 159.5 184.092 159.957H184.139C184.154 159.816 184.195 159.6 184.262 159.307C184.332 159.014 184.74 157.438 185.486 154.578H186.494L184.719 161H183.565ZM192.115 161V156.846C192.115 156.322 191.996 155.932 191.757 155.674C191.519 155.416 191.146 155.287 190.638 155.287C189.966 155.287 189.474 155.469 189.162 155.832C188.849 156.195 188.693 156.795 188.693 157.631V161H187.72V154.578H188.511L188.67 155.457H188.716C188.916 155.141 189.195 154.896 189.554 154.725C189.914 154.549 190.314 154.461 190.755 154.461C191.529 154.461 192.111 154.648 192.502 155.023C192.892 155.395 193.088 155.99 193.088 156.811V161H192.115ZM202.471 159.248C202.471 159.846 202.249 160.307 201.803 160.631C201.358 160.955 200.733 161.117 199.928 161.117C199.077 161.117 198.413 160.982 197.936 160.713V159.811C198.245 159.967 198.575 160.09 198.926 160.18C199.282 160.27 199.624 160.314 199.952 160.314C200.459 160.314 200.85 160.234 201.124 160.074C201.397 159.91 201.534 159.662 201.534 159.33C201.534 159.08 201.424 158.867 201.206 158.691C200.991 158.512 200.569 158.301 199.94 158.059C199.342 157.836 198.916 157.643 198.663 157.479C198.413 157.311 198.225 157.121 198.1 156.91C197.979 156.699 197.918 156.447 197.918 156.154C197.918 155.631 198.131 155.219 198.557 154.918C198.983 154.613 199.567 154.461 200.309 154.461C201 154.461 201.676 154.602 202.336 154.883L201.991 155.674C201.346 155.408 200.762 155.275 200.239 155.275C199.778 155.275 199.43 155.348 199.196 155.492C198.961 155.637 198.844 155.836 198.844 156.09C198.844 156.262 198.887 156.408 198.973 156.529C199.063 156.65 199.206 156.766 199.401 156.875C199.596 156.984 199.971 157.143 200.526 157.35C201.288 157.627 201.801 157.906 202.067 158.188C202.336 158.469 202.471 158.822 202.471 159.248ZM209.662 157.783C209.662 158.83 209.398 159.648 208.871 160.238C208.344 160.824 207.615 161.117 206.685 161.117C206.111 161.117 205.601 160.982 205.156 160.713C204.711 160.443 204.367 160.057 204.125 159.553C203.883 159.049 203.762 158.459 203.762 157.783C203.762 156.736 204.023 155.922 204.547 155.34C205.07 154.754 205.797 154.461 206.726 154.461C207.625 154.461 208.338 154.76 208.865 155.357C209.396 155.955 209.662 156.764 209.662 157.783ZM204.769 157.783C204.769 158.604 204.934 159.229 205.262 159.658C205.59 160.088 206.072 160.303 206.709 160.303C207.346 160.303 207.828 160.09 208.156 159.664C208.488 159.234 208.654 158.607 208.654 157.783C208.654 156.967 208.488 156.348 208.156 155.926C207.828 155.5 207.342 155.287 206.697 155.287C206.06 155.287 205.58 155.496 205.256 155.914C204.932 156.332 204.769 156.955 204.769 157.783ZM212.406 161H211.433V151.883H212.406V161ZM215.442 154.578V158.744C215.442 159.268 215.561 159.658 215.8 159.916C216.038 160.174 216.411 160.303 216.919 160.303C217.591 160.303 218.081 160.119 218.389 159.752C218.702 159.385 218.858 158.785 218.858 157.953V154.578H219.831V161H219.028L218.887 160.139H218.835C218.636 160.455 218.358 160.697 218.003 160.865C217.651 161.033 217.249 161.117 216.796 161.117C216.014 161.117 215.429 160.932 215.038 160.561C214.651 160.189 214.458 159.596 214.458 158.779V154.578H215.442ZM224.033 160.314C224.205 160.314 224.371 160.303 224.531 160.279C224.692 160.252 224.819 160.225 224.912 160.197V160.941C224.807 160.992 224.651 161.033 224.444 161.064C224.24 161.1 224.057 161.117 223.893 161.117C222.651 161.117 222.03 160.463 222.03 159.154V155.334H221.11V154.865L222.03 154.461L222.44 153.09H223.002V154.578H224.865V155.334H223.002V159.113C223.002 159.5 223.094 159.797 223.278 160.004C223.461 160.211 223.713 160.314 224.033 160.314ZM227.234 161H226.261V154.578H227.234V161ZM226.179 152.838C226.179 152.615 226.234 152.453 226.343 152.352C226.453 152.246 226.59 152.193 226.754 152.193C226.91 152.193 227.045 152.246 227.158 152.352C227.271 152.457 227.328 152.619 227.328 152.838C227.328 153.057 227.271 153.221 227.158 153.33C227.045 153.436 226.91 153.488 226.754 153.488C226.59 153.488 226.453 153.436 226.343 153.33C226.234 153.221 226.179 153.057 226.179 152.838ZM234.9 157.783C234.9 158.83 234.636 159.648 234.109 160.238C233.581 160.824 232.853 161.117 231.923 161.117C231.349 161.117 230.839 160.982 230.394 160.713C229.948 160.443 229.605 160.057 229.362 159.553C229.12 159.049 228.999 158.459 228.999 157.783C228.999 156.736 229.261 155.922 229.784 155.34C230.308 154.754 231.034 154.461 231.964 154.461C232.862 154.461 233.575 154.76 234.103 155.357C234.634 155.955 234.9 156.764 234.9 157.783ZM230.007 157.783C230.007 158.604 230.171 159.229 230.499 159.658C230.827 160.088 231.31 160.303 231.946 160.303C232.583 160.303 233.066 160.09 233.394 159.664C233.726 159.234 233.892 158.607 233.892 157.783C233.892 156.967 233.726 156.348 233.394 155.926C233.066 155.5 232.579 155.287 231.935 155.287C231.298 155.287 230.818 155.496 230.493 155.914C230.169 156.332 230.007 156.955 230.007 157.783ZM241.065 161V156.846C241.065 156.322 240.946 155.932 240.708 155.674C240.469 155.416 240.096 155.287 239.588 155.287C238.917 155.287 238.424 155.469 238.112 155.832C237.799 156.195 237.643 156.795 237.643 157.631V161H236.67V154.578H237.461L237.62 155.457H237.667C237.866 155.141 238.145 154.896 238.504 154.725C238.864 154.549 239.264 154.461 239.706 154.461C240.479 154.461 241.061 154.648 241.452 155.023C241.842 155.395 242.038 155.99 242.038 156.811V161H241.065ZM250.267 154.473C251.111 154.473 251.765 154.762 252.23 155.34C252.699 155.914 252.933 156.729 252.933 157.783C252.933 158.838 252.697 159.658 252.224 160.244C251.755 160.826 251.103 161.117 250.267 161.117C249.849 161.117 249.466 161.041 249.119 160.889C248.775 160.732 248.486 160.494 248.251 160.174H248.181L247.976 161H247.279V151.883H248.251V154.098C248.251 154.594 248.236 155.039 248.205 155.434H248.251C248.705 154.793 249.376 154.473 250.267 154.473ZM250.126 155.287C249.462 155.287 248.984 155.479 248.691 155.861C248.398 156.24 248.251 156.881 248.251 157.783C248.251 158.686 248.402 159.332 248.703 159.723C249.003 160.109 249.486 160.303 250.15 160.303C250.747 160.303 251.193 160.086 251.486 159.652C251.779 159.215 251.925 158.588 251.925 157.771C251.925 156.936 251.779 156.312 251.486 155.902C251.193 155.492 250.74 155.287 250.126 155.287ZM257.628 154.461C257.913 154.461 258.169 154.484 258.395 154.531L258.261 155.434C257.995 155.375 257.761 155.346 257.557 155.346C257.038 155.346 256.593 155.557 256.222 155.979C255.854 156.4 255.671 156.926 255.671 157.555V161H254.698V154.578H255.501L255.612 155.768H255.659C255.897 155.35 256.184 155.027 256.52 154.801C256.856 154.574 257.225 154.461 257.628 154.461ZM260.629 161H259.657V154.578H260.629V161ZM259.575 152.838C259.575 152.615 259.629 152.453 259.739 152.352C259.848 152.246 259.985 152.193 260.149 152.193C260.305 152.193 260.44 152.246 260.553 152.352C260.666 152.457 260.723 152.619 260.723 152.838C260.723 153.057 260.666 153.221 260.553 153.33C260.44 153.436 260.305 153.488 260.149 153.488C259.985 153.488 259.848 153.436 259.739 153.33C259.629 153.221 259.575 153.057 259.575 152.838ZM265.465 161.117C264.515 161.117 263.765 160.828 263.215 160.25C262.668 159.672 262.394 158.869 262.394 157.842C262.394 156.807 262.648 155.984 263.156 155.375C263.668 154.766 264.353 154.461 265.213 154.461C266.017 154.461 266.654 154.727 267.123 155.258C267.592 155.785 267.826 156.482 267.826 157.35V157.965H263.402C263.422 158.719 263.611 159.291 263.97 159.682C264.334 160.072 264.844 160.268 265.5 160.268C266.191 160.268 266.875 160.123 267.551 159.834V160.701C267.207 160.85 266.881 160.955 266.572 161.018C266.267 161.084 265.898 161.117 265.465 161.117ZM265.201 155.275C264.685 155.275 264.273 155.443 263.965 155.779C263.66 156.115 263.48 156.58 263.426 157.174H266.783C266.783 156.561 266.646 156.092 266.373 155.768C266.099 155.439 265.709 155.275 265.201 155.275ZM272.445 155.334H270.81V161H269.837V155.334H268.689V154.895L269.837 154.543V154.186C269.837 152.607 270.527 151.818 271.905 151.818C272.245 151.818 272.644 151.887 273.101 152.023L272.849 152.803C272.474 152.682 272.154 152.621 271.888 152.621C271.521 152.621 271.249 152.744 271.073 152.99C270.898 153.232 270.81 153.623 270.81 154.162V154.578H272.445V155.334ZM274.589 161H273.616V151.883H274.589V161ZM275.692 154.578H276.735L278.141 158.24C278.45 159.076 278.641 159.68 278.715 160.051H278.762C278.813 159.852 278.919 159.512 279.079 159.031C279.243 158.547 279.774 157.062 280.673 154.578H281.715L278.956 161.891C278.682 162.613 278.362 163.125 277.995 163.426C277.631 163.73 277.184 163.883 276.653 163.883C276.356 163.883 276.063 163.85 275.774 163.783V163.004C275.989 163.051 276.229 163.074 276.495 163.074C277.163 163.074 277.639 162.699 277.924 161.949L278.282 161.035L275.692 154.578Z" fill="#57547D"/>
<circle cx="85.5" cy="156.5" r="2.5" fill="#57547D"/>
<path d="M102.609 175.93C102.609 176.797 102.312 177.465 101.719 177.934C101.129 178.398 100.283 178.631 99.1816 178.631H98.1738V182H97.1777V173.434H99.3984C101.539 173.434 102.609 174.266 102.609 175.93ZM98.1738 177.775H99.0703C99.9531 177.775 100.592 177.633 100.986 177.348C101.381 177.062 101.578 176.605 101.578 175.977C101.578 175.41 101.393 174.988 101.021 174.711C100.65 174.434 100.072 174.295 99.2871 174.295H98.1738V177.775ZM105.294 182H104.322V175.578H105.294V182ZM104.24 173.838C104.24 173.615 104.294 173.453 104.404 173.352C104.513 173.246 104.65 173.193 104.814 173.193C104.97 173.193 105.105 173.246 105.218 173.352C105.331 173.457 105.388 173.619 105.388 173.838C105.388 174.057 105.331 174.221 105.218 174.33C105.105 174.436 104.97 174.488 104.814 174.488C104.65 174.488 104.513 174.436 104.404 174.33C104.294 174.221 104.24 174.057 104.24 173.838ZM109.983 182.117C109.054 182.117 108.333 181.832 107.821 181.262C107.313 180.688 107.059 179.877 107.059 178.83C107.059 177.756 107.317 176.926 107.833 176.34C108.352 175.754 109.091 175.461 110.048 175.461C110.356 175.461 110.665 175.494 110.974 175.561C111.282 175.627 111.524 175.705 111.7 175.795L111.401 176.621C111.186 176.535 110.952 176.465 110.698 176.41C110.444 176.352 110.22 176.322 110.024 176.322C108.72 176.322 108.067 177.154 108.067 178.818C108.067 179.607 108.225 180.213 108.542 180.635C108.862 181.057 109.335 181.268 109.96 181.268C110.495 181.268 111.044 181.152 111.606 180.922V181.783C111.177 182.006 110.636 182.117 109.983 182.117ZM114.157 178.713C114.325 178.475 114.58 178.162 114.924 177.775L116.998 175.578H118.153L115.551 178.314L118.334 182H117.157L114.889 178.965L114.157 179.598V182H113.196V172.883H114.157V177.717C114.157 177.932 114.141 178.264 114.11 178.713H114.157ZM128.28 178.783C128.28 179.83 128.017 180.648 127.489 181.238C126.962 181.824 126.234 182.117 125.304 182.117C124.73 182.117 124.22 181.982 123.775 181.713C123.329 181.443 122.986 181.057 122.743 180.553C122.501 180.049 122.38 179.459 122.38 178.783C122.38 177.736 122.642 176.922 123.165 176.34C123.689 175.754 124.415 175.461 125.345 175.461C126.243 175.461 126.956 175.76 127.484 176.357C128.015 176.955 128.28 177.764 128.28 178.783ZM123.388 178.783C123.388 179.604 123.552 180.229 123.88 180.658C124.208 181.088 124.691 181.303 125.327 181.303C125.964 181.303 126.446 181.09 126.775 180.664C127.107 180.234 127.273 179.607 127.273 178.783C127.273 177.967 127.107 177.348 126.775 176.926C126.446 176.5 125.96 176.287 125.316 176.287C124.679 176.287 124.198 176.496 123.874 176.914C123.55 177.332 123.388 177.955 123.388 178.783ZM134.446 182V177.846C134.446 177.322 134.327 176.932 134.089 176.674C133.85 176.416 133.477 176.287 132.969 176.287C132.298 176.287 131.805 176.469 131.493 176.832C131.18 177.195 131.024 177.795 131.024 178.631V182H130.051V175.578H130.842L131.001 176.457H131.048C131.247 176.141 131.526 175.896 131.885 175.725C132.245 175.549 132.645 175.461 133.087 175.461C133.86 175.461 134.442 175.648 134.833 176.023C135.223 176.395 135.419 176.99 135.419 177.811V182H134.446ZM140.195 182.117C139.246 182.117 138.496 181.828 137.945 181.25C137.399 180.672 137.125 179.869 137.125 178.842C137.125 177.807 137.379 176.984 137.887 176.375C138.399 175.766 139.084 175.461 139.943 175.461C140.748 175.461 141.385 175.727 141.854 176.258C142.322 176.785 142.557 177.482 142.557 178.35V178.965H138.133C138.152 179.719 138.342 180.291 138.701 180.682C139.065 181.072 139.574 181.268 140.231 181.268C140.922 181.268 141.606 181.123 142.281 180.834V181.701C141.938 181.85 141.611 181.955 141.303 182.018C140.998 182.084 140.629 182.117 140.195 182.117ZM139.932 176.275C139.416 176.275 139.004 176.443 138.695 176.779C138.391 177.115 138.211 177.58 138.156 178.174H141.514C141.514 177.561 141.377 177.092 141.104 176.768C140.83 176.439 140.44 176.275 139.932 176.275ZM151.601 180.248C151.601 180.846 151.378 181.307 150.933 181.631C150.487 181.955 149.862 182.117 149.058 182.117C148.206 182.117 147.542 181.982 147.065 181.713V180.811C147.374 180.967 147.704 181.09 148.056 181.18C148.411 181.27 148.753 181.314 149.081 181.314C149.589 181.314 149.979 181.234 150.253 181.074C150.526 180.91 150.663 180.662 150.663 180.33C150.663 180.08 150.554 179.867 150.335 179.691C150.12 179.512 149.698 179.301 149.069 179.059C148.472 178.836 148.046 178.643 147.792 178.479C147.542 178.311 147.354 178.121 147.229 177.91C147.108 177.699 147.048 177.447 147.048 177.154C147.048 176.631 147.261 176.219 147.686 175.918C148.112 175.613 148.696 175.461 149.438 175.461C150.13 175.461 150.806 175.602 151.466 175.883L151.12 176.674C150.476 176.408 149.892 176.275 149.368 176.275C148.907 176.275 148.56 176.348 148.325 176.492C148.091 176.637 147.974 176.836 147.974 177.09C147.974 177.262 148.017 177.408 148.103 177.529C148.192 177.65 148.335 177.766 148.53 177.875C148.726 177.984 149.101 178.143 149.655 178.35C150.417 178.627 150.931 178.906 151.196 179.188C151.466 179.469 151.601 179.822 151.601 180.248ZM158.791 178.783C158.791 179.83 158.528 180.648 158 181.238C157.473 181.824 156.745 182.117 155.815 182.117C155.241 182.117 154.731 181.982 154.286 181.713C153.84 181.443 153.496 181.057 153.254 180.553C153.012 180.049 152.891 179.459 152.891 178.783C152.891 177.736 153.153 176.922 153.676 176.34C154.2 175.754 154.926 175.461 155.856 175.461C156.754 175.461 157.467 175.76 157.995 176.357C158.526 176.955 158.791 177.764 158.791 178.783ZM153.899 178.783C153.899 179.604 154.063 180.229 154.391 180.658C154.719 181.088 155.202 181.303 155.838 181.303C156.475 181.303 156.957 181.09 157.286 180.664C157.618 180.234 157.784 179.607 157.784 178.783C157.784 177.967 157.618 177.348 157.286 176.926C156.957 176.5 156.471 176.287 155.827 176.287C155.19 176.287 154.709 176.496 154.385 176.914C154.061 177.332 153.899 177.955 153.899 178.783ZM161.535 182H160.562V172.883H161.535V182ZM164.572 175.578V179.744C164.572 180.268 164.691 180.658 164.929 180.916C165.167 181.174 165.54 181.303 166.048 181.303C166.72 181.303 167.21 181.119 167.519 180.752C167.831 180.385 167.988 179.785 167.988 178.953V175.578H168.96V182H168.158L168.017 181.139H167.964C167.765 181.455 167.488 181.697 167.132 181.865C166.781 182.033 166.378 182.117 165.925 182.117C165.144 182.117 164.558 181.932 164.167 181.561C163.781 181.189 163.587 180.596 163.587 179.779V175.578H164.572ZM173.163 181.314C173.335 181.314 173.501 181.303 173.661 181.279C173.821 181.252 173.948 181.225 174.042 181.197V181.941C173.936 181.992 173.78 182.033 173.573 182.064C173.37 182.1 173.186 182.117 173.022 182.117C171.78 182.117 171.159 181.463 171.159 180.154V176.334H170.239V175.865L171.159 175.461L171.569 174.09H172.132V175.578H173.995V176.334H172.132V180.113C172.132 180.5 172.223 180.797 172.407 181.004C172.591 181.211 172.842 181.314 173.163 181.314ZM176.363 182H175.391V175.578H176.363V182ZM175.309 173.838C175.309 173.615 175.363 173.453 175.473 173.352C175.582 173.246 175.719 173.193 175.883 173.193C176.039 173.193 176.174 173.246 176.287 173.352C176.401 173.457 176.457 173.619 176.457 173.838C176.457 174.057 176.401 174.221 176.287 174.33C176.174 174.436 176.039 174.488 175.883 174.488C175.719 174.488 175.582 174.436 175.473 174.33C175.363 174.221 175.309 174.057 175.309 173.838ZM184.029 178.783C184.029 179.83 183.765 180.648 183.238 181.238C182.711 181.824 181.982 182.117 181.052 182.117C180.478 182.117 179.968 181.982 179.523 181.713C179.078 181.443 178.734 181.057 178.492 180.553C178.25 180.049 178.129 179.459 178.129 178.783C178.129 177.736 178.39 176.922 178.914 176.34C179.437 175.754 180.164 175.461 181.093 175.461C181.992 175.461 182.705 175.76 183.232 176.357C183.763 176.955 184.029 177.764 184.029 178.783ZM179.136 178.783C179.136 179.604 179.3 180.229 179.629 180.658C179.957 181.088 180.439 181.303 181.076 181.303C181.713 181.303 182.195 181.09 182.523 180.664C182.855 180.234 183.021 179.607 183.021 178.783C183.021 177.967 182.855 177.348 182.523 176.926C182.195 176.5 181.709 176.287 181.064 176.287C180.427 176.287 179.947 176.496 179.623 176.914C179.298 177.332 179.136 177.955 179.136 178.783ZM190.194 182V177.846C190.194 177.322 190.075 176.932 189.837 176.674C189.599 176.416 189.226 176.287 188.718 176.287C188.046 176.287 187.554 176.469 187.241 176.832C186.929 177.195 186.772 177.795 186.772 178.631V182H185.8V175.578H186.591L186.749 176.457H186.796C186.995 176.141 187.274 175.896 187.634 175.725C187.993 175.549 188.394 175.461 188.835 175.461C189.608 175.461 190.19 175.648 190.581 176.023C190.972 176.395 191.167 176.99 191.167 177.811V182H190.194ZM198.482 181.314C198.654 181.314 198.82 181.303 198.98 181.279C199.141 181.252 199.268 181.225 199.361 181.197V181.941C199.256 181.992 199.1 182.033 198.893 182.064C198.689 182.1 198.506 182.117 198.342 182.117C197.1 182.117 196.478 181.463 196.478 180.154V176.334H195.559V175.865L196.478 175.461L196.889 174.09H197.451V175.578H199.314V176.334H197.451V180.113C197.451 180.5 197.543 180.797 197.726 181.004C197.91 181.211 198.162 181.314 198.482 181.314ZM206.253 178.783C206.253 179.83 205.99 180.648 205.462 181.238C204.935 181.824 204.206 182.117 203.277 182.117C202.702 182.117 202.193 181.982 201.747 181.713C201.302 181.443 200.958 181.057 200.716 180.553C200.474 180.049 200.353 179.459 200.353 178.783C200.353 177.736 200.615 176.922 201.138 176.34C201.661 175.754 202.388 175.461 203.318 175.461C204.216 175.461 204.929 175.76 205.456 176.357C205.988 176.955 206.253 177.764 206.253 178.783ZM201.361 178.783C201.361 179.604 201.525 180.229 201.853 180.658C202.181 181.088 202.663 181.303 203.3 181.303C203.937 181.303 204.419 181.09 204.747 180.664C205.079 180.234 205.245 179.607 205.245 178.783C205.245 177.967 205.079 177.348 204.747 176.926C204.419 176.5 203.933 176.287 203.288 176.287C202.652 176.287 202.171 176.496 201.847 176.914C201.523 177.332 201.361 177.955 201.361 178.783ZM214.19 175.473C215.033 175.473 215.688 175.762 216.153 176.34C216.621 176.914 216.856 177.729 216.856 178.783C216.856 179.838 216.619 180.658 216.147 181.244C215.678 181.826 215.026 182.117 214.19 182.117C213.772 182.117 213.389 182.041 213.041 181.889C212.698 181.732 212.408 181.494 212.174 181.174H212.104L211.899 182H211.201V172.883H212.174V175.098C212.174 175.594 212.158 176.039 212.127 176.434H212.174C212.627 175.793 213.299 175.473 214.19 175.473ZM214.049 176.287C213.385 176.287 212.906 176.479 212.614 176.861C212.321 177.24 212.174 177.881 212.174 178.783C212.174 179.686 212.324 180.332 212.625 180.723C212.926 181.109 213.408 181.303 214.073 181.303C214.67 181.303 215.115 181.086 215.408 180.652C215.701 180.215 215.848 179.588 215.848 178.771C215.848 177.936 215.701 177.312 215.408 176.902C215.115 176.492 214.662 176.287 214.049 176.287ZM221.334 182.117C220.384 182.117 219.634 181.828 219.084 181.25C218.537 180.672 218.263 179.869 218.263 178.842C218.263 177.807 218.517 176.984 219.025 176.375C219.537 175.766 220.222 175.461 221.082 175.461C221.886 175.461 222.523 175.727 222.992 176.258C223.461 176.785 223.695 177.482 223.695 178.35V178.965H219.271C219.291 179.719 219.48 180.291 219.84 180.682C220.203 181.072 220.713 181.268 221.369 181.268C222.06 181.268 222.744 181.123 223.42 180.834V181.701C223.076 181.85 222.75 181.955 222.441 182.018C222.136 182.084 221.767 182.117 221.334 182.117ZM221.07 176.275C220.554 176.275 220.142 176.443 219.834 176.779C219.529 177.115 219.349 177.58 219.295 178.174H222.652C222.652 177.561 222.515 177.092 222.242 176.768C221.968 176.439 221.578 176.275 221.07 176.275ZM230.67 181.314C230.842 181.314 231.008 181.303 231.169 181.279C231.329 181.252 231.456 181.225 231.549 181.197V181.941C231.444 181.992 231.288 182.033 231.081 182.064C230.878 182.1 230.694 182.117 230.53 182.117C229.288 182.117 228.667 181.463 228.667 180.154V176.334H227.747V175.865L228.667 175.461L229.077 174.09H229.639V175.578H231.503V176.334H229.639V180.113C229.639 180.5 229.731 180.797 229.915 181.004C230.098 181.211 230.35 181.314 230.67 181.314ZM235.611 182.117C234.662 182.117 233.912 181.828 233.361 181.25C232.814 180.672 232.541 179.869 232.541 178.842C232.541 177.807 232.795 176.984 233.303 176.375C233.814 175.766 234.5 175.461 235.359 175.461C236.164 175.461 236.801 175.727 237.27 176.258C237.738 176.785 237.973 177.482 237.973 178.35V178.965H233.549C233.568 179.719 233.758 180.291 234.117 180.682C234.48 181.072 234.99 181.268 235.646 181.268C236.338 181.268 237.021 181.123 237.697 180.834V181.701C237.354 181.85 237.027 181.955 236.719 182.018C236.414 182.084 236.045 182.117 235.611 182.117ZM235.348 176.275C234.832 176.275 234.42 176.443 234.111 176.779C233.807 177.115 233.627 177.58 233.572 178.174H236.93C236.93 177.561 236.793 177.092 236.52 176.768C236.246 176.439 235.855 176.275 235.348 176.275ZM243.839 180.248C243.839 180.846 243.617 181.307 243.171 181.631C242.726 181.955 242.101 182.117 241.296 182.117C240.445 182.117 239.781 181.982 239.304 181.713V180.811C239.613 180.967 239.943 181.09 240.294 181.18C240.65 181.27 240.992 181.314 241.32 181.314C241.828 181.314 242.218 181.234 242.492 181.074C242.765 180.91 242.902 180.662 242.902 180.33C242.902 180.08 242.792 179.867 242.574 179.691C242.359 179.512 241.937 179.301 241.308 179.059C240.71 178.836 240.285 178.643 240.031 178.479C239.781 178.311 239.593 178.121 239.468 177.91C239.347 177.699 239.287 177.447 239.287 177.154C239.287 176.631 239.499 176.219 239.925 175.918C240.351 175.613 240.935 175.461 241.677 175.461C242.369 175.461 243.044 175.602 243.705 175.883L243.359 176.674C242.714 176.408 242.13 176.275 241.607 176.275C241.146 176.275 240.798 176.348 240.564 176.492C240.33 176.637 240.212 176.836 240.212 177.09C240.212 177.262 240.255 177.408 240.341 177.529C240.431 177.65 240.574 177.766 240.769 177.875C240.964 177.984 241.339 178.143 241.894 178.35C242.656 178.627 243.169 178.906 243.435 179.188C243.705 179.469 243.839 179.822 243.839 180.248ZM247.561 181.314C247.733 181.314 247.899 181.303 248.059 181.279C248.22 181.252 248.347 181.225 248.44 181.197V181.941C248.335 181.992 248.179 182.033 247.972 182.064C247.768 182.1 247.585 182.117 247.421 182.117C246.179 182.117 245.557 181.463 245.557 180.154V176.334H244.638V175.865L245.557 175.461L245.968 174.09H246.53V175.578H248.393V176.334H246.53V180.113C246.53 180.5 246.622 180.797 246.806 181.004C246.989 181.211 247.241 181.314 247.561 181.314ZM252.502 182.117C251.553 182.117 250.803 181.828 250.252 181.25C249.705 180.672 249.432 179.869 249.432 178.842C249.432 177.807 249.686 176.984 250.194 176.375C250.705 175.766 251.391 175.461 252.25 175.461C253.055 175.461 253.692 175.727 254.16 176.258C254.629 176.785 254.864 177.482 254.864 178.35V178.965H250.44C250.459 179.719 250.649 180.291 251.008 180.682C251.371 181.072 251.881 181.268 252.537 181.268C253.229 181.268 253.912 181.123 254.588 180.834V181.701C254.244 181.85 253.918 181.955 253.61 182.018C253.305 182.084 252.936 182.117 252.502 182.117ZM252.239 176.275C251.723 176.275 251.311 176.443 251.002 176.779C250.698 177.115 250.518 177.58 250.463 178.174H253.821C253.821 177.561 253.684 177.092 253.41 176.768C253.137 176.439 252.746 176.275 252.239 176.275ZM260.959 181.139H260.906C260.457 181.791 259.785 182.117 258.89 182.117C258.051 182.117 257.396 181.83 256.928 181.256C256.463 180.682 256.23 179.865 256.23 178.807C256.23 177.748 256.465 176.926 256.933 176.34C257.402 175.754 258.054 175.461 258.89 175.461C259.761 175.461 260.429 175.777 260.894 176.41H260.97L260.929 175.947L260.906 175.496V172.883H261.879V182H261.088L260.959 181.139ZM259.013 181.303C259.678 181.303 260.158 181.123 260.455 180.764C260.756 180.4 260.906 179.816 260.906 179.012V178.807C260.906 177.896 260.754 177.248 260.449 176.861C260.148 176.471 259.666 176.275 259.002 176.275C258.431 176.275 257.994 176.498 257.689 176.943C257.388 177.385 257.238 178.01 257.238 178.818C257.238 179.639 257.388 180.258 257.689 180.676C257.99 181.094 258.431 181.303 259.013 181.303Z" fill="#57547D"/>
<circle cx="85.5" cy="177.5" r="2.5" fill="#57547D"/>
<path d="M291.602 117.426H291.566C291.267 117.861 290.819 118.078 290.223 118.078C289.663 118.078 289.227 117.887 288.914 117.504C288.604 117.121 288.449 116.577 288.449 115.871C288.449 115.165 288.605 114.617 288.918 114.227C289.23 113.836 289.665 113.641 290.223 113.641C290.803 113.641 291.249 113.852 291.559 114.273H291.609L291.582 113.965L291.566 113.664V111.922H292.215V118H291.688L291.602 117.426ZM290.305 117.535C290.747 117.535 291.068 117.415 291.266 117.176C291.466 116.934 291.566 116.544 291.566 116.008V115.871C291.566 115.264 291.465 114.832 291.262 114.574C291.061 114.314 290.74 114.184 290.297 114.184C289.917 114.184 289.625 114.332 289.422 114.629C289.221 114.923 289.121 115.34 289.121 115.879C289.121 116.426 289.221 116.839 289.422 117.117C289.622 117.396 289.917 117.535 290.305 117.535ZM295.402 118.078C294.77 118.078 294.27 117.885 293.902 117.5C293.538 117.115 293.355 116.579 293.355 115.895C293.355 115.204 293.525 114.656 293.863 114.25C294.204 113.844 294.661 113.641 295.234 113.641C295.771 113.641 296.195 113.818 296.508 114.172C296.82 114.523 296.977 114.988 296.977 115.566V115.977H294.027C294.04 116.479 294.167 116.861 294.406 117.121C294.648 117.382 294.988 117.512 295.426 117.512C295.887 117.512 296.342 117.415 296.793 117.223V117.801C296.564 117.9 296.346 117.97 296.141 118.012C295.938 118.056 295.691 118.078 295.402 118.078ZM295.227 114.184C294.883 114.184 294.608 114.296 294.402 114.52C294.199 114.743 294.079 115.053 294.043 115.449H296.281C296.281 115.04 296.19 114.728 296.008 114.512C295.826 114.293 295.565 114.184 295.227 114.184ZM300.848 116.832C300.848 117.23 300.699 117.538 300.402 117.754C300.105 117.97 299.689 118.078 299.152 118.078C298.585 118.078 298.142 117.988 297.824 117.809V117.207C298.03 117.311 298.25 117.393 298.484 117.453C298.721 117.513 298.949 117.543 299.168 117.543C299.507 117.543 299.767 117.49 299.949 117.383C300.132 117.273 300.223 117.108 300.223 116.887C300.223 116.72 300.15 116.578 300.004 116.461C299.861 116.341 299.579 116.201 299.16 116.039C298.762 115.891 298.478 115.762 298.309 115.652C298.142 115.54 298.017 115.414 297.934 115.273C297.853 115.133 297.812 114.965 297.812 114.77C297.812 114.421 297.954 114.146 298.238 113.945C298.522 113.742 298.911 113.641 299.406 113.641C299.867 113.641 300.318 113.734 300.758 113.922L300.527 114.449C300.098 114.272 299.708 114.184 299.359 114.184C299.052 114.184 298.82 114.232 298.664 114.328C298.508 114.424 298.43 114.557 298.43 114.727C298.43 114.841 298.458 114.939 298.516 115.02C298.576 115.1 298.671 115.177 298.801 115.25C298.931 115.323 299.181 115.428 299.551 115.566C300.059 115.751 300.401 115.938 300.578 116.125C300.758 116.312 300.848 116.548 300.848 116.832ZM302.555 118H301.906V113.719H302.555V118ZM301.852 112.559C301.852 112.41 301.888 112.302 301.961 112.234C302.034 112.164 302.125 112.129 302.234 112.129C302.339 112.129 302.428 112.164 302.504 112.234C302.579 112.305 302.617 112.413 302.617 112.559C302.617 112.704 302.579 112.814 302.504 112.887C302.428 112.957 302.339 112.992 302.234 112.992C302.125 112.992 302.034 112.957 301.961 112.887C301.888 112.814 301.852 112.704 301.852 112.559ZM307.434 113.719V114.129L306.641 114.223C306.714 114.314 306.779 114.434 306.836 114.582C306.893 114.728 306.922 114.893 306.922 115.078C306.922 115.497 306.779 115.832 306.492 116.082C306.206 116.332 305.812 116.457 305.312 116.457C305.185 116.457 305.065 116.447 304.953 116.426C304.677 116.572 304.539 116.755 304.539 116.977C304.539 117.094 304.587 117.181 304.684 117.238C304.78 117.293 304.945 117.32 305.18 117.32H305.938C306.401 117.32 306.757 117.418 307.004 117.613C307.254 117.809 307.379 118.092 307.379 118.465C307.379 118.939 307.189 119.299 306.809 119.547C306.428 119.797 305.874 119.922 305.145 119.922C304.585 119.922 304.152 119.818 303.848 119.609C303.546 119.401 303.395 119.107 303.395 118.727C303.395 118.466 303.478 118.241 303.645 118.051C303.811 117.861 304.046 117.732 304.348 117.664C304.238 117.615 304.146 117.538 304.07 117.434C303.997 117.329 303.961 117.208 303.961 117.07C303.961 116.914 304.003 116.777 304.086 116.66C304.169 116.543 304.301 116.43 304.48 116.32C304.259 116.229 304.078 116.074 303.938 115.855C303.799 115.637 303.73 115.387 303.73 115.105C303.73 114.637 303.871 114.276 304.152 114.023C304.434 113.768 304.832 113.641 305.348 113.641C305.572 113.641 305.773 113.667 305.953 113.719H307.434ZM304.02 118.719C304.02 118.951 304.117 119.126 304.312 119.246C304.508 119.366 304.788 119.426 305.152 119.426C305.697 119.426 306.099 119.344 306.359 119.18C306.622 119.018 306.754 118.798 306.754 118.52C306.754 118.288 306.682 118.126 306.539 118.035C306.396 117.947 306.126 117.902 305.73 117.902H304.953C304.659 117.902 304.43 117.973 304.266 118.113C304.102 118.254 304.02 118.456 304.02 118.719ZM304.371 115.09C304.371 115.389 304.456 115.616 304.625 115.77C304.794 115.923 305.03 116 305.332 116C305.965 116 306.281 115.693 306.281 115.078C306.281 114.435 305.961 114.113 305.32 114.113C305.016 114.113 304.781 114.195 304.617 114.359C304.453 114.523 304.371 114.767 304.371 115.09ZM311.242 118V115.23C311.242 114.882 311.163 114.621 311.004 114.449C310.845 114.277 310.596 114.191 310.258 114.191C309.81 114.191 309.482 114.312 309.273 114.555C309.065 114.797 308.961 115.197 308.961 115.754V118H308.312V113.719H308.84L308.945 114.305H308.977C309.109 114.094 309.296 113.931 309.535 113.816C309.775 113.699 310.042 113.641 310.336 113.641C310.852 113.641 311.24 113.766 311.5 114.016C311.76 114.263 311.891 114.66 311.891 115.207V118H311.242ZM318.066 116.832C318.066 117.23 317.918 117.538 317.621 117.754C317.324 117.97 316.908 118.078 316.371 118.078C315.803 118.078 315.361 117.988 315.043 117.809V117.207C315.249 117.311 315.469 117.393 315.703 117.453C315.94 117.513 316.168 117.543 316.387 117.543C316.725 117.543 316.986 117.49 317.168 117.383C317.35 117.273 317.441 117.108 317.441 116.887C317.441 116.72 317.368 116.578 317.223 116.461C317.079 116.341 316.798 116.201 316.379 116.039C315.98 115.891 315.697 115.762 315.527 115.652C315.361 115.54 315.236 115.414 315.152 115.273C315.072 115.133 315.031 114.965 315.031 114.77C315.031 114.421 315.173 114.146 315.457 113.945C315.741 113.742 316.13 113.641 316.625 113.641C317.086 113.641 317.536 113.734 317.977 113.922L317.746 114.449C317.316 114.272 316.927 114.184 316.578 114.184C316.271 114.184 316.039 114.232 315.883 114.328C315.727 114.424 315.648 114.557 315.648 114.727C315.648 114.841 315.677 114.939 315.734 115.02C315.794 115.1 315.889 115.177 316.02 115.25C316.15 115.323 316.4 115.428 316.77 115.566C317.277 115.751 317.62 115.938 317.797 116.125C317.977 116.312 318.066 116.548 318.066 116.832ZM321.117 118.078C320.839 118.078 320.583 118.027 320.352 117.926C320.122 117.822 319.93 117.663 319.773 117.449H319.727C319.758 117.699 319.773 117.936 319.773 118.16V119.922H319.125V113.719H319.652L319.742 114.305H319.773C319.94 114.07 320.134 113.901 320.355 113.797C320.577 113.693 320.831 113.641 321.117 113.641C321.685 113.641 322.122 113.835 322.43 114.223C322.74 114.611 322.895 115.155 322.895 115.855C322.895 116.559 322.737 117.105 322.422 117.496C322.109 117.884 321.674 118.078 321.117 118.078ZM321.023 114.191C320.586 114.191 320.27 114.312 320.074 114.555C319.879 114.797 319.779 115.182 319.773 115.711V115.855C319.773 116.457 319.874 116.888 320.074 117.148C320.275 117.406 320.596 117.535 321.039 117.535C321.409 117.535 321.698 117.385 321.906 117.086C322.117 116.786 322.223 116.374 322.223 115.848C322.223 115.314 322.117 114.905 321.906 114.621C321.698 114.335 321.404 114.191 321.023 114.191ZM325.984 113.641C326.174 113.641 326.345 113.656 326.496 113.688L326.406 114.289C326.229 114.25 326.073 114.23 325.938 114.23C325.591 114.23 325.294 114.371 325.047 114.652C324.802 114.934 324.68 115.284 324.68 115.703V118H324.031V113.719H324.566L324.641 114.512H324.672C324.831 114.233 325.022 114.018 325.246 113.867C325.47 113.716 325.716 113.641 325.984 113.641ZM327.945 118H327.297V113.719H327.945V118ZM327.242 112.559C327.242 112.41 327.279 112.302 327.352 112.234C327.424 112.164 327.516 112.129 327.625 112.129C327.729 112.129 327.819 112.164 327.895 112.234C327.97 112.305 328.008 112.413 328.008 112.559C328.008 112.704 327.97 112.814 327.895 112.887C327.819 112.957 327.729 112.992 327.625 112.992C327.516 112.992 327.424 112.957 327.352 112.887C327.279 112.814 327.242 112.704 327.242 112.559ZM332.25 118V115.23C332.25 114.882 332.171 114.621 332.012 114.449C331.853 114.277 331.604 114.191 331.266 114.191C330.818 114.191 330.49 114.312 330.281 114.555C330.073 114.797 329.969 115.197 329.969 115.754V118H329.32V113.719H329.848L329.953 114.305H329.984C330.117 114.094 330.303 113.931 330.543 113.816C330.783 113.699 331.049 113.641 331.344 113.641C331.859 113.641 332.247 113.766 332.508 114.016C332.768 114.263 332.898 114.66 332.898 115.207V118H332.25ZM335.617 117.543C335.732 117.543 335.842 117.535 335.949 117.52C336.056 117.501 336.141 117.483 336.203 117.465V117.961C336.133 117.995 336.029 118.022 335.891 118.043C335.755 118.066 335.633 118.078 335.523 118.078C334.695 118.078 334.281 117.642 334.281 116.77V114.223H333.668V113.91L334.281 113.641L334.555 112.727H334.93V113.719H336.172V114.223H334.93V116.742C334.93 117 334.991 117.198 335.113 117.336C335.236 117.474 335.404 117.543 335.617 117.543ZM339.789 118H339.141V113.719H339.789V118ZM339.086 112.559C339.086 112.41 339.122 112.302 339.195 112.234C339.268 112.164 339.359 112.129 339.469 112.129C339.573 112.129 339.663 112.164 339.738 112.234C339.814 112.305 339.852 112.413 339.852 112.559C339.852 112.704 339.814 112.814 339.738 112.887C339.663 112.957 339.573 112.992 339.469 112.992C339.359 112.992 339.268 112.957 339.195 112.887C339.122 112.814 339.086 112.704 339.086 112.559ZM344.094 118V115.23C344.094 114.882 344.014 114.621 343.855 114.449C343.697 114.277 343.448 114.191 343.109 114.191C342.661 114.191 342.333 114.312 342.125 114.555C341.917 114.797 341.812 115.197 341.812 115.754V118H341.164V113.719H341.691L341.797 114.305H341.828C341.961 114.094 342.147 113.931 342.387 113.816C342.626 113.699 342.893 113.641 343.188 113.641C343.703 113.641 344.091 113.766 344.352 114.016C344.612 114.263 344.742 114.66 344.742 115.207V118H344.094ZM350.789 118L350.66 117.391H350.629C350.415 117.659 350.202 117.841 349.988 117.938C349.777 118.031 349.513 118.078 349.195 118.078C348.771 118.078 348.438 117.969 348.195 117.75C347.956 117.531 347.836 117.22 347.836 116.816C347.836 115.952 348.527 115.499 349.91 115.457L350.637 115.434V115.168C350.637 114.832 350.564 114.585 350.418 114.426C350.275 114.264 350.044 114.184 349.727 114.184C349.37 114.184 348.966 114.293 348.516 114.512L348.316 114.016C348.527 113.901 348.758 113.811 349.008 113.746C349.26 113.681 349.513 113.648 349.766 113.648C350.276 113.648 350.654 113.762 350.898 113.988C351.146 114.215 351.27 114.578 351.27 115.078V118H350.789ZM349.324 117.543C349.728 117.543 350.044 117.432 350.273 117.211C350.505 116.99 350.621 116.68 350.621 116.281V115.895L349.973 115.922C349.457 115.94 349.085 116.021 348.855 116.164C348.629 116.305 348.516 116.525 348.516 116.824C348.516 117.059 348.586 117.237 348.727 117.359C348.87 117.482 349.069 117.543 349.324 117.543ZM357.617 118V115.23C357.617 114.882 357.538 114.621 357.379 114.449C357.22 114.277 356.971 114.191 356.633 114.191C356.185 114.191 355.857 114.312 355.648 114.555C355.44 114.797 355.336 115.197 355.336 115.754V118H354.688V113.719H355.215L355.32 114.305H355.352C355.484 114.094 355.671 113.931 355.91 113.816C356.15 113.699 356.417 113.641 356.711 113.641C357.227 113.641 357.615 113.766 357.875 114.016C358.135 114.263 358.266 114.66 358.266 115.207V118H357.617ZM360.211 113.719V116.496C360.211 116.845 360.29 117.105 360.449 117.277C360.608 117.449 360.857 117.535 361.195 117.535C361.643 117.535 361.97 117.413 362.176 117.168C362.384 116.923 362.488 116.523 362.488 115.969V113.719H363.137V118H362.602L362.508 117.426H362.473C362.34 117.637 362.155 117.798 361.918 117.91C361.684 118.022 361.415 118.078 361.113 118.078C360.592 118.078 360.202 117.954 359.941 117.707C359.684 117.46 359.555 117.064 359.555 116.52V113.719H360.211ZM365.898 117.543C366.013 117.543 366.124 117.535 366.23 117.52C366.337 117.501 366.422 117.483 366.484 117.465V117.961C366.414 117.995 366.31 118.022 366.172 118.043C366.036 118.066 365.914 118.078 365.805 118.078C364.977 118.078 364.562 117.642 364.562 116.77V114.223H363.949V113.91L364.562 113.641L364.836 112.727H365.211V113.719H366.453V114.223H365.211V116.742C365.211 117 365.272 117.198 365.395 117.336C365.517 117.474 365.685 117.543 365.898 117.543ZM370.105 116.832C370.105 117.23 369.957 117.538 369.66 117.754C369.363 117.97 368.947 118.078 368.41 118.078C367.842 118.078 367.4 117.988 367.082 117.809V117.207C367.288 117.311 367.508 117.393 367.742 117.453C367.979 117.513 368.207 117.543 368.426 117.543C368.764 117.543 369.025 117.49 369.207 117.383C369.389 117.273 369.48 117.108 369.48 116.887C369.48 116.72 369.408 116.578 369.262 116.461C369.118 116.341 368.837 116.201 368.418 116.039C368.02 115.891 367.736 115.762 367.566 115.652C367.4 115.54 367.275 115.414 367.191 115.273C367.111 115.133 367.07 114.965 367.07 114.77C367.07 114.421 367.212 114.146 367.496 113.945C367.78 113.742 368.169 113.641 368.664 113.641C369.125 113.641 369.576 113.734 370.016 113.922L369.785 114.449C369.355 114.272 368.966 114.184 368.617 114.184C368.31 114.184 368.078 114.232 367.922 114.328C367.766 114.424 367.688 114.557 367.688 114.727C367.688 114.841 367.716 114.939 367.773 115.02C367.833 115.1 367.928 115.177 368.059 115.25C368.189 115.323 368.439 115.428 368.809 115.566C369.316 115.751 369.659 115.938 369.836 116.125C370.016 116.312 370.105 116.548 370.105 116.832ZM374.094 118V115.23C374.094 114.882 374.014 114.621 373.855 114.449C373.697 114.277 373.448 114.191 373.109 114.191C372.659 114.191 372.329 114.314 372.121 114.559C371.915 114.803 371.812 115.204 371.812 115.762V118H371.164V111.922H371.812V113.762C371.812 113.983 371.802 114.167 371.781 114.312H371.82C371.948 114.107 372.129 113.945 372.363 113.828C372.6 113.708 372.87 113.648 373.172 113.648C373.695 113.648 374.087 113.773 374.348 114.023C374.611 114.271 374.742 114.665 374.742 115.207V118H374.094ZM377.887 118.078C377.254 118.078 376.754 117.885 376.387 117.5C376.022 117.115 375.84 116.579 375.84 115.895C375.84 115.204 376.009 114.656 376.348 114.25C376.689 113.844 377.146 113.641 377.719 113.641C378.255 113.641 378.68 113.818 378.992 114.172C379.305 114.523 379.461 114.988 379.461 115.566V115.977H376.512C376.525 116.479 376.651 116.861 376.891 117.121C377.133 117.382 377.473 117.512 377.91 117.512C378.371 117.512 378.827 117.415 379.277 117.223V117.801C379.048 117.9 378.831 117.97 378.625 118.012C378.422 118.056 378.176 118.078 377.887 118.078ZM377.711 114.184C377.367 114.184 377.092 114.296 376.887 114.52C376.684 114.743 376.564 115.053 376.527 115.449H378.766C378.766 115.04 378.674 114.728 378.492 114.512C378.31 114.293 378.049 114.184 377.711 114.184ZM381.219 118H380.57V111.922H381.219V118ZM383.242 118H382.594V111.922H383.242V118Z" fill="#808285"/>
<path opacity="0.1" d="M38.7861 267.586H399.304V274.907C399.304 275.854 398.928 276.761 398.26 277.431C397.591 278.1 396.684 278.476 395.739 278.476H42.3517C41.4061 278.476 40.4992 278.1 39.8305 277.431C39.1618 276.761 38.7861 275.854 38.7861 274.907V267.586Z" fill="black"/>
<path d="M99.3666 254.221H75.1343C74.4515 254.221 73.8979 254.775 73.8979 255.459V266.349C73.8979 267.032 74.4515 267.586 75.1343 267.586H99.3666C100.049 267.586 100.603 267.032 100.603 266.349V255.459C100.603 254.775 100.049 254.221 99.3666 254.221Z" fill="#57547D"/>
<path d="M125.329 265.606H109.01C108.463 265.606 108.021 266.049 108.021 266.596C108.021 267.143 108.463 267.586 109.01 267.586H125.329C125.876 267.586 126.318 267.143 126.318 266.596C126.318 266.049 125.876 265.606 125.329 265.606Z" fill="#57547D"/>
<path opacity="0.2" d="M340 415.814C358.225 415.814 373 413.352 373 410.314C373 407.277 358.225 404.814 340 404.814C321.775 404.814 307 407.277 307 410.314C307 413.352 321.775 415.814 340 415.814Z" fill="#57547D"/>
<path d="M316.412 400.556C315.166 401.338 313.742 401.779 312.456 402.467C311.17 403.155 309.919 404.189 309.553 405.615C309.416 406.057 309.439 406.534 309.617 406.961C309.937 407.478 310.427 407.866 311.002 408.06C313.614 409.221 316.435 409.837 319.293 409.869C322.151 409.902 324.986 409.35 327.623 408.248C328.552 407.802 329.51 407.421 330.492 407.11C331.701 406.863 332.932 406.737 334.166 406.734C335.463 406.658 336.754 406.492 338.028 406.239C338.669 406.167 339.276 405.915 339.779 405.511C340.238 404.982 340.514 404.319 340.565 403.62C341.151 399.764 340.268 395.828 338.093 392.592C337.819 392.138 337.451 391.748 337.015 391.448C336.482 391.173 335.897 391.016 335.299 390.988C332.826 390.686 330.235 390.132 327.737 390.072C325.947 390.033 325.047 390.884 323.781 392.116C321.165 394.735 319.637 398.541 316.412 400.556Z" fill="#323444"/>
<path d="M352.856 400.19C352.856 402.615 353.148 405.184 354.616 407.12C355.288 407.957 356.102 408.669 357.02 409.223C360.125 411.203 364.24 411.931 367.514 410.253C368.043 410.015 368.495 409.635 368.819 409.154C369.314 408.293 369.052 407.219 368.775 406.268L364.037 389.835C360.976 390.305 356.476 390.636 353.756 392.191C351.783 393.314 352.856 398.022 352.856 400.19Z" fill="#323444"/>
<path d="M313.633 298.999C313.346 299.904 312.308 300.325 311.739 301.087C311.071 301.983 311.141 303.226 311.383 304.315C311.682 305.921 312.436 307.407 313.554 308.596C314.121 309.186 314.821 309.631 315.596 309.894C316.37 310.158 317.196 310.232 318.005 310.111C319.597 309.809 320.972 308.398 321.026 306.78C320.998 306.044 320.84 305.318 320.561 304.637L317.189 294.875C317.175 294.806 317.147 294.741 317.106 294.684C317.065 294.627 317.012 294.579 316.951 294.544C316.824 294.515 316.691 294.538 316.58 294.608C315.784 294.984 314.187 295.38 313.722 296.207C313.257 297.033 313.969 298.103 313.633 298.999Z" fill="#FBB3B2"/>
<path d="M312.056 298.509C313.287 298.315 314.365 297.593 315.517 297.118C316.67 296.642 318.114 296.459 319.083 297.251C319.36 297.479 319.627 297.791 319.988 297.786C319.497 295.365 318.754 293.003 317.773 290.737C317.738 290.629 317.671 290.533 317.58 290.465C317.445 290.41 317.294 290.41 317.159 290.465L313.831 291.336C312.6 291.658 312.456 291.559 312.55 292.772C312.575 293.311 312.852 298.509 312.056 298.509Z" fill="#323444"/>
<path d="M311.689 228.022C311.195 228.784 311.195 229.734 311.195 230.63C311.195 235.011 311.239 239.416 311.887 243.753C312.041 244.792 312.233 245.832 312.332 246.881C312.444 248.342 312.468 249.808 312.402 251.272L311.907 270.329C311.848 272.66 311.729 275.165 310.29 276.996C309.854 277.61 309.649 278.359 309.711 279.11C310.087 283.891 310.878 288.633 311.665 293.361C312.931 292.789 314.314 292.526 315.701 292.592C317.089 292.658 318.441 293.052 319.647 293.742C322.142 285.889 323.522 277.724 323.746 269.487C323.86 265.433 323.687 261.354 324.31 257.35C325.354 250.608 324.928 243.693 324.162 236.912C323.919 234.764 323.405 232.551 322.03 230.888C320.729 229.433 318.995 228.433 317.085 228.037C315.255 227.556 313.618 228.051 311.689 228.022Z" fill="#5B5583"/>
<path opacity="0.1" d="M311.689 228.022C311.195 228.784 311.195 229.734 311.195 230.63C311.195 235.011 311.239 239.416 311.887 243.753C312.041 244.792 312.233 245.832 312.332 246.881C312.444 248.342 312.468 249.808 312.402 251.272L311.907 270.329C311.848 272.66 311.729 275.165 310.29 276.996C309.854 277.61 309.649 278.359 309.711 279.11C310.087 283.891 310.878 288.633 311.665 293.361C312.931 292.789 314.314 292.526 315.701 292.592C317.089 292.658 318.441 293.052 319.647 293.742C322.142 285.889 323.522 277.724 323.746 269.487C323.86 265.433 323.687 261.354 324.31 257.35C325.354 250.608 324.928 243.693 324.162 236.912C323.919 234.764 323.405 232.551 322.03 230.888C320.729 229.433 318.995 228.433 317.085 228.037C315.255 227.556 313.618 228.051 311.689 228.022Z" fill="black"/>
<path d="M317.732 283.288C314.415 300.3 316.226 317.915 322.935 333.896C323.514 335.078 323.921 336.339 324.141 337.638C324.413 340.063 323.296 342.395 322.658 344.741C321.174 350.077 322.03 355.759 322.979 361.219C323.375 363.496 323.782 365.771 324.201 368.045C324.611 370.263 325.007 372.673 323.978 374.683C324.863 378.375 325.388 382.033 326.273 385.726C326.367 386.018 326.395 386.327 326.357 386.632C326.179 387.115 325.864 387.536 325.452 387.845C324.792 388.514 324.318 389.344 324.076 390.253C323.834 391.162 323.833 392.118 324.072 393.027C326.332 391.404 329.482 391.973 332.064 393.027C334.645 394.082 337.187 395.502 339.976 395.502C339.571 392.225 339.18 388.785 340.387 385.711C341.089 383.929 342.326 382.246 342.291 380.341C342.256 378.633 341.213 377.108 340.961 375.42C340.867 374.37 340.907 373.312 341.079 372.272C341.742 366.214 340.99 360.095 340.239 354.047C340.154 352.854 339.873 351.683 339.408 350.582C339.057 349.869 338.532 349.186 338.542 348.389C338.542 347.463 339.289 346.711 339.566 345.83C340.061 344.206 339.151 341.999 340.52 340.994C344.131 338.341 342.746 332.005 342.667 327.525C342.604 323.661 342.439 319.8 342.172 315.942C344.445 322.339 345.375 329.137 344.902 335.91C344.744 338.128 344.452 340.459 345.317 342.508C345.98 344.082 347.296 345.379 347.652 347.047C347.874 348.077 347.716 349.141 347.765 350.191C347.815 351.24 348.171 352.383 349.076 352.913C349.145 357.685 349.57 362.788 349.645 367.56C349.597 369.999 349.795 372.437 350.238 374.836C350.46 375.599 350.583 376.388 350.604 377.183C350.493 378.179 350.229 379.152 349.823 380.068C348.961 382.623 348.735 385.349 349.166 388.011C349.597 390.672 350.672 393.188 352.295 395.339C353.462 393.265 355.896 392.166 358.269 391.993C360.643 391.819 362.987 392.418 365.287 393.022C364.935 390.13 365.51 387.201 366.929 384.657C367.309 384.084 367.601 383.456 367.794 382.796C368.061 381.538 367.438 380.286 367.102 379.044C366.553 377.064 366.746 374.93 366.874 372.861C367.306 365.932 366.999 358.976 365.959 352.111C365.799 350.759 365.482 349.43 365.015 348.151C364.837 347.696 364.619 347.26 364.471 346.8C364.237 345.974 364.105 345.123 364.075 344.266L363.507 336.346C363.106 330.797 364.926 325.317 366.197 319.902C366.766 317.477 367.384 315.056 367.765 312.591C368.284 309.235 368.368 305.805 369.129 302.493C369.812 299.523 371.043 296.628 371.3 293.583C371.696 288.866 369.738 284.307 367.839 279.981C367.047 278.199 364.055 278.377 362.132 278.06C348.487 275.818 334.116 275.803 321.248 280.857C319.918 281.409 318.719 282.237 317.732 283.288Z" fill="#3C354C"/>
<path d="M327.568 195.432L329.082 201.322C329.493 202.673 329.721 204.073 329.759 205.485C329.775 206 329.661 206.51 329.428 206.97C329.179 207.347 328.86 207.673 328.488 207.93C327.455 208.717 326.738 210.554 325.556 211.098C326.164 212.157 327.005 211.469 328.103 211.999C330.036 212.939 331.807 214.291 333.903 214.756C335.882 215.192 337.959 214.781 339.922 214.261C342.706 213.504 345.476 212.459 347.716 210.633C349.956 208.806 351.232 207.193 351.222 204.307C348.749 204.599 346.549 202.099 345.456 199.852C345.077 198.998 344.798 198.102 344.625 197.184L343.3 191.348C341.856 191.665 340.679 192.699 339.299 193.239C337.919 193.778 336.287 193.828 334.754 193.897C332.033 194.021 329.326 194.372 326.663 194.946C326.297 195.021 325.838 195.253 325.927 195.61" fill="#FBB3B2"/>
<path opacity="0.1" d="M327.568 195.432L329.082 201.322C329.493 202.673 329.721 204.073 329.759 205.485C329.775 206 329.661 206.51 329.428 206.97C329.179 207.347 328.86 207.673 328.488 207.93C327.455 208.717 326.738 210.554 325.556 211.098C326.164 212.157 327.005 211.469 328.103 211.999C330.036 212.939 331.807 214.291 333.903 214.756C335.882 215.192 337.959 214.781 339.922 214.261C342.706 213.504 345.476 212.459 347.716 210.633C349.956 208.806 351.232 207.193 351.222 204.307C348.749 204.599 346.549 202.099 345.456 199.852C345.077 198.998 344.798 198.102 344.625 197.184L343.3 191.348C341.856 191.665 340.679 192.699 339.299 193.239C337.919 193.778 336.287 193.828 334.754 193.897C332.033 194.021 329.326 194.372 326.663 194.946C326.297 195.021 325.838 195.253 325.927 195.61" fill="black"/>
<path d="M334.067 198.679C341.299 198.679 347.162 192.81 347.162 185.571C347.162 178.332 341.299 172.464 334.067 172.464C326.835 172.464 320.972 178.332 320.972 185.571C320.972 192.81 326.835 198.679 334.067 198.679Z" fill="#FBB3B2"/>
<path d="M337.673 207.178C338.373 205.664 339.384 204.315 340.64 203.218C342.485 201.599 345.007 200.287 345.442 197.872L349.438 202.53C349.655 202.746 349.824 203.006 349.932 203.292C349.983 203.561 349.975 203.837 349.911 204.102C349.846 204.368 349.725 204.616 349.557 204.831C348.568 206.41 347.01 207.539 345.536 208.682C342.158 211.36 338.924 214.216 335.848 217.236C335.712 217.393 335.531 217.504 335.329 217.553C335.138 217.558 334.949 217.504 334.79 217.399C332.135 216.004 329.787 214.093 327.881 211.776C327.738 211.603 327.56 211.405 327.327 211.42C327.187 211.446 327.058 211.513 326.956 211.613C325.626 212.702 324.172 214.004 322.466 213.835C324.676 212.246 325.928 209.593 326.392 206.905C326.484 205.986 326.673 205.078 326.956 204.198C327.103 203.758 327.355 203.36 327.692 203.041C328.028 202.721 328.438 202.49 328.885 202.366C327.807 204.015 328.544 206.351 329.993 207.683C331.401 208.879 333.088 209.698 334.899 210.063C336.58 210.38 337.074 208.475 337.673 207.178Z" fill="#323444"/>
<path d="M320.636 284.634C322.5 285.094 324.266 285.876 326.076 286.456C329.375 287.49 332.846 287.855 336.288 287.53C337.347 287.506 338.377 287.178 339.255 286.584C339.488 286.396 339.7 286.173 339.947 286C340.361 285.752 340.809 285.567 341.278 285.451C345.813 284.03 349.611 280.966 353.295 277.966C353.414 277.867 353.547 277.744 353.537 277.585C353.52 277.477 353.468 277.378 353.389 277.303L351.45 275.076C346.367 275.942 341.159 275.615 336.001 275.487C334.942 275.439 333.881 275.468 332.826 275.571C331.807 275.689 330.803 275.947 329.8 276.165C325.987 276.996 322.09 277.313 318.227 277.858C317.957 277.877 317.695 277.959 317.461 278.095C317.298 278.221 317.159 278.375 317.05 278.551L315.695 280.456C315.169 281.097 314.782 281.841 314.558 282.639C314.241 284.124 314.904 284.619 316.165 284.426C317.655 284.208 319.173 284.278 320.636 284.634Z" fill="#323444"/>
<path d="M335.793 214.969C334.28 213.417 332.565 212.077 330.694 210.984C329.938 210.504 329.1 210.168 328.221 209.994C327.779 209.907 327.324 209.917 326.886 210.025C326.449 210.133 326.04 210.335 325.689 210.618C325.249 211.009 324.972 211.553 324.547 211.964C324.012 212.414 323.398 212.762 322.737 212.989C320.486 213.952 318.352 215.169 316.377 216.617C315.301 217.371 314.331 218.267 313.494 219.28C311.254 222.151 310.918 226.057 310.977 229.7C311.021 232.234 313.45 234.115 315.121 236.011C316.689 237.877 318.108 239.863 319.364 241.951C320.264 243.376 321.204 244.921 321.09 246.619C320.996 248.01 320.185 249.316 320.314 250.702C320.358 251.197 320.516 251.653 320.561 252.133C320.65 253.123 320.259 254.113 320.16 255.103C320.027 256.504 320.482 257.895 320.507 259.305C320.488 260.271 320.366 261.232 320.141 262.171C319.191 266.696 317.999 271.244 318.242 275.863L315.502 276.358C315.761 276.612 315.957 276.925 316.074 277.269C316.191 277.614 316.224 277.981 316.173 278.341C316.121 278.701 315.986 279.044 315.777 279.341C315.569 279.639 315.293 279.884 314.973 280.055C319.25 281.486 323.874 280.763 328.409 280.758C332.163 280.758 335.902 281.253 339.65 281.184C343.399 281.115 347.266 280.436 350.357 278.313C351.198 277.739 351.969 277.066 352.854 276.566C354.04 275.951 355.318 275.533 356.638 275.328C359.082 274.862 361.567 274.639 364.056 274.665C365.272 274.665 366.598 274.714 367.567 273.982C368.635 273.17 368.907 271.7 369.05 270.368C369.194 268.963 369.283 267.552 369.308 266.141C369.349 265.043 369.291 263.942 369.134 262.854C368.986 262.059 368.793 261.272 368.556 260.498L366.691 253.925C365.92 251.212 366.993 248.237 367.221 245.426C367.275 244.762 367.285 243.99 366.776 243.565C366.593 243.411 366.34 243.307 366.281 243.07C366.254 242.957 366.251 242.84 366.272 242.726C366.292 242.611 366.336 242.503 366.4 242.406C367.389 240.426 368.872 238.679 370.227 236.892C372.503 233.758 374.616 230.508 376.558 227.156C375.95 220.141 372.998 213.535 368.18 208.405C367.191 207.331 366.058 206.302 364.674 205.816C363.769 205.54 362.83 205.388 361.885 205.366C358.007 205.104 353.972 204.871 350.594 202.921C350.352 202.753 350.077 202.636 349.788 202.579C349.041 202.495 348.497 203.233 348.013 203.817C346.767 205.302 344.932 206.153 343.32 207.247C340.313 209.291 337.964 212.103 335.793 214.969Z" fill="#5B5583"/>
<path d="M376.893 229.18C377.665 231.625 377.591 234.239 377.843 236.788C377.992 238.326 378.262 239.851 378.649 241.347C378.826 242.169 379.144 242.955 379.589 243.668C380.034 244.322 380.672 244.851 380.954 245.589C381.108 246.089 381.176 246.611 381.156 247.133L381.216 250.549C381.343 252.359 381.067 254.174 380.41 255.865L378.278 262.354C377.126 265.869 375.944 269.438 373.867 272.497C373.574 273.014 373.131 273.431 372.596 273.69C372.177 273.8 371.748 273.867 371.315 273.888C370.561 274.022 369.878 274.416 369.382 275C368.887 275.585 368.61 276.324 368.6 277.09C368.105 276.366 367.488 275.735 366.775 275.224L362.438 271.759C360.954 270.551 359.407 269.324 357.606 268.626C360.028 267.869 362.177 266.425 363.794 264.469C365.411 262.513 366.426 260.13 366.716 257.607C366.714 256.857 366.883 256.115 367.21 255.439C367.571 254.855 368.239 254.41 368.288 253.722C368.348 252.855 367.369 252.202 367.369 251.336C367.369 250.762 367.794 250.286 367.982 249.747C368.158 249.08 368.158 248.379 367.982 247.713L367.383 244.386C367.348 244.053 367.247 243.73 367.087 243.436C366.863 243.154 366.615 242.892 366.345 242.654C365.316 241.5 365.771 239.684 366.345 238.263C367.662 235.11 369.36 232.129 371.399 229.388C372.125 228.467 372.797 227.505 373.412 226.507C373.936 225.596 374.055 224.334 374.609 223.537C375.321 225.408 376.285 227.254 376.893 229.18Z" fill="#5B5583"/>
<path d="M357.453 268.829C357.233 268.993 357.042 269.194 356.89 269.423C356.307 270.155 355.531 270.709 354.649 271.022C355.144 271.378 355.594 271.73 356.059 272.091C359.498 274.75 362.648 277.764 365.455 281.085C365.767 279.971 367.631 280.05 368.086 278.986C368.193 278.682 368.227 278.356 368.185 278.036C368.09 276.368 367.852 274.712 367.473 273.086C367.323 272.249 366.985 271.456 366.484 270.769C365.791 269.933 364.713 269.532 363.685 269.185C362.127 268.641 359.036 267.874 357.453 268.829Z" fill="#323444"/>
<path d="M351.272 272.72C349.788 273.818 348.488 275.194 346.821 275.947C345.644 276.481 344.304 276.714 343.275 277.511C343.834 278.744 345.288 279.382 346.638 279.333C347.99 279.2 349.285 278.724 350.402 277.952C351.287 277.407 352.325 276.774 353.29 277.155C353.438 277.907 352.795 278.615 352.795 279.377C352.795 280.139 353.428 280.694 354.051 281.095C357.019 283.01 360.836 282.852 364.372 282.629C364.575 282.637 364.775 282.578 364.941 282.461C365.018 282.371 365.076 282.268 365.113 282.155C365.149 282.043 365.163 281.925 365.154 281.808C365.198 281.025 365.218 280.248 365.223 279.466C365.323 278.836 365.241 278.19 364.987 277.604C364.733 277.018 364.317 276.517 363.789 276.16C361.87 274.509 359.8 273.042 357.607 271.779C355.431 270.517 353.225 271.264 351.272 272.72Z" fill="#FBB3B2"/>
<path d="M338.666 180.092C336.471 180.354 334.873 182.072 335.096 183.938C335.318 185.804 337.277 187.091 339.473 186.824C341.668 186.556 343.266 184.844 343.043 182.982C342.821 181.121 340.862 179.829 338.666 180.092ZM339.413 186.309C337.554 186.532 335.897 185.438 335.704 183.864C335.511 182.289 336.871 180.834 338.726 180.611C340.58 180.389 342.242 181.483 342.435 183.057C342.628 184.631 341.268 186.086 339.413 186.309Z" fill="#3C354C"/>
<path d="M327.964 181.379C325.769 181.641 324.171 183.359 324.394 185.22C324.616 187.081 326.575 188.373 328.77 188.111C330.966 187.848 332.564 186.131 332.341 184.265C332.118 182.398 330.16 181.116 327.964 181.379ZM328.711 187.591C326.852 187.814 325.195 186.72 325.007 185.151C324.819 183.581 326.169 182.121 328.029 181.893C329.888 181.666 331.545 182.765 331.733 184.339C331.921 185.913 330.566 187.368 328.711 187.591Z" fill="#3C354C"/>
<path d="M320.017 182.334L324.789 183.354L324.32 184.611L319.819 183.289L320.017 182.334Z" fill="#3C354C"/>
<path d="M346.618 179.136L342.217 181.26L342.973 182.369L347.034 180.018L346.618 179.136Z" fill="#3C354C"/>
<path d="M331.901 183.037L335.249 182.636L335.076 183.468L332.203 183.661L331.901 183.037Z" fill="#3C354C"/>
<path d="M325.407 181.913C325.722 181.235 325.891 180.498 325.902 179.75C325.914 179.303 325.99 178.859 326.129 178.433C326.372 177.893 326.742 177.419 327.207 177.052C328.75 175.746 330.961 175.072 333.142 174.978C335.52 174.869 337.885 175.381 340.006 176.463C340.654 176.767 341.234 177.198 341.712 177.731C342.405 178.577 342.553 179.671 343.25 180.507C343.726 181.015 344.325 181.391 344.988 181.599C345.652 181.807 346.358 181.84 347.038 181.695C347.281 180.834 346.964 179.923 347.088 179.042C347.283 178.287 347.546 177.552 347.874 176.845C348.641 174.582 347.523 171.959 345.218 170.608C344.412 170.113 343.458 169.791 342.855 169.123C342.251 168.454 342.108 167.761 341.692 167.093C340.59 165.326 337.736 164.499 335.565 165.316C334.883 165.574 334.279 165.965 333.587 166.242C332.301 166.771 330.837 166.865 329.423 167.044C328.029 167.173 326.665 167.531 325.388 168.103C324.166 168.707 323.142 169.677 322.86 170.835C322.727 171.37 322.757 171.924 322.623 172.454C321.941 175.142 317.534 176.449 317.287 179.191C317.198 180.181 317.737 181.131 318.41 181.938C318.874 182.487 319.987 183.958 320.773 184.17C321.56 184.383 322.158 183.636 322.91 183.378C324.097 183.007 324.814 182.928 325.407 181.913Z" fill="#3C354C"/>
<path opacity="0.2" d="M340 415.814C358.225 415.814 373 413.352 373 410.314C373 407.277 358.225 404.814 340 404.814C321.775 404.814 307 407.277 307 410.314C307 413.352 321.775 415.814 340 415.814Z" fill="#57547D"/>
<path d="M316.412 400.556C315.166 401.338 313.742 401.779 312.456 402.467C311.17 403.155 309.919 404.189 309.553 405.615C309.416 406.057 309.439 406.534 309.617 406.961C309.937 407.478 310.427 407.866 311.002 408.06C313.614 409.221 316.435 409.837 319.293 409.869C322.151 409.902 324.986 409.35 327.623 408.248C328.552 407.802 329.51 407.421 330.492 407.11C331.701 406.863 332.932 406.737 334.166 406.734C335.463 406.658 336.754 406.492 338.028 406.239C338.669 406.167 339.276 405.915 339.779 405.511C340.238 404.982 340.514 404.319 340.565 403.62C341.151 399.764 340.268 395.828 338.093 392.592C337.819 392.138 337.451 391.748 337.015 391.448C336.482 391.173 335.897 391.016 335.299 390.988C332.826 390.686 330.235 390.132 327.737 390.072C325.947 390.033 325.047 390.884 323.781 392.116C321.165 394.735 319.637 398.541 316.412 400.556Z" fill="#323444"/>
<path d="M352.856 400.19C352.856 402.615 353.148 405.184 354.616 407.12C355.288 407.957 356.102 408.669 357.02 409.223C360.125 411.203 364.24 411.931 367.514 410.253C368.043 410.015 368.495 409.635 368.819 409.154C369.314 408.293 369.052 407.219 368.775 406.268L364.037 389.835C360.976 390.305 356.476 390.636 353.756 392.191C351.783 393.314 352.856 398.022 352.856 400.19Z" fill="#323444"/>
<path d="M313.633 298.999C313.346 299.904 312.308 300.325 311.739 301.087C311.071 301.983 311.141 303.226 311.383 304.315C311.682 305.921 312.436 307.407 313.554 308.596C314.121 309.186 314.821 309.631 315.596 309.894C316.37 310.158 317.196 310.232 318.005 310.111C319.597 309.809 320.972 308.398 321.026 306.78C320.998 306.044 320.84 305.318 320.561 304.637L317.189 294.875C317.175 294.806 317.147 294.741 317.106 294.684C317.065 294.627 317.012 294.579 316.951 294.544C316.824 294.515 316.691 294.538 316.58 294.608C315.784 294.984 314.187 295.38 313.722 296.207C313.257 297.033 313.969 298.103 313.633 298.999Z" fill="#FBB3B2"/>
<path d="M312.056 298.509C313.287 298.315 314.365 297.593 315.517 297.118C316.67 296.642 318.114 296.459 319.083 297.251C319.36 297.479 319.627 297.791 319.988 297.786C319.497 295.365 318.754 293.003 317.773 290.737C317.738 290.629 317.671 290.533 317.58 290.465C317.445 290.41 317.294 290.41 317.159 290.465L313.831 291.336C312.6 291.658 312.456 291.559 312.55 292.772C312.575 293.311 312.852 298.509 312.056 298.509Z" fill="#323444"/>
<path d="M311.689 228.022C311.195 228.784 311.195 229.734 311.195 230.63C311.195 235.011 311.239 239.416 311.887 243.753C312.041 244.792 312.233 245.832 312.332 246.881C312.444 248.342 312.468 249.808 312.402 251.272L311.907 270.329C311.848 272.66 311.729 275.165 310.29 276.996C309.854 277.61 309.649 278.359 309.711 279.11C310.087 283.891 310.878 288.633 311.665 293.361C312.931 292.789 314.314 292.526 315.701 292.592C317.089 292.658 318.441 293.052 319.647 293.742C322.142 285.889 323.522 277.724 323.746 269.487C323.86 265.433 323.687 261.354 324.31 257.35C325.354 250.608 324.928 243.693 324.162 236.912C323.919 234.764 323.405 232.551 322.03 230.888C320.729 229.433 318.995 228.433 317.085 228.037C315.255 227.556 313.618 228.051 311.689 228.022Z" fill="#FF8E01"/>
<path opacity="0.1" d="M311.689 228.022C311.195 228.784 311.195 229.734 311.195 230.63C311.195 235.011 311.239 239.416 311.887 243.753C312.041 244.792 312.233 245.832 312.332 246.881C312.444 248.342 312.468 249.808 312.402 251.272L311.907 270.329C311.848 272.66 311.729 275.165 310.29 276.996C309.854 277.61 309.649 278.359 309.711 279.11C310.087 283.891 310.878 288.633 311.665 293.361C312.931 292.789 314.314 292.526 315.701 292.592C317.089 292.658 318.441 293.052 319.647 293.742C322.142 285.889 323.522 277.724 323.746 269.487C323.86 265.433 323.687 261.354 324.31 257.35C325.354 250.608 324.928 243.693 324.162 236.912C323.919 234.764 323.405 232.551 322.03 230.888C320.729 229.433 318.995 228.433 317.085 228.037C315.255 227.556 313.618 228.051 311.689 228.022Z" fill="black"/>
<path d="M317.732 283.288C314.415 300.3 316.226 317.915 322.935 333.896C323.514 335.078 323.921 336.339 324.141 337.638C324.413 340.063 323.296 342.395 322.658 344.741C321.174 350.077 322.03 355.759 322.979 361.219C323.375 363.496 323.782 365.771 324.201 368.045C324.611 370.263 325.007 372.673 323.978 374.683C324.863 378.375 325.388 382.033 326.273 385.726C326.367 386.018 326.395 386.327 326.357 386.632C326.179 387.115 325.864 387.536 325.452 387.845C324.792 388.514 324.318 389.344 324.076 390.253C323.834 391.162 323.833 392.118 324.072 393.027C326.332 391.404 329.482 391.973 332.064 393.027C334.645 394.082 337.187 395.502 339.976 395.502C339.571 392.225 339.18 388.785 340.387 385.711C341.089 383.929 342.326 382.246 342.291 380.341C342.256 378.633 341.213 377.108 340.961 375.42C340.867 374.37 340.907 373.312 341.079 372.272C341.742 366.214 340.99 360.095 340.239 354.047C340.154 352.854 339.873 351.683 339.408 350.582C339.057 349.869 338.532 349.186 338.542 348.389C338.542 347.463 339.289 346.711 339.566 345.83C340.061 344.206 339.151 341.999 340.52 340.994C344.131 338.341 342.746 332.005 342.667 327.525C342.604 323.661 342.439 319.8 342.172 315.942C344.445 322.339 345.375 329.137 344.902 335.91C344.744 338.128 344.452 340.459 345.317 342.508C345.98 344.082 347.296 345.379 347.652 347.047C347.874 348.077 347.716 349.141 347.765 350.191C347.815 351.24 348.171 352.383 349.076 352.913C349.145 357.685 349.57 362.788 349.645 367.56C349.597 369.999 349.795 372.437 350.238 374.836C350.46 375.599 350.583 376.388 350.604 377.183C350.493 378.179 350.229 379.152 349.823 380.068C348.961 382.623 348.735 385.349 349.166 388.011C349.597 390.672 350.672 393.188 352.295 395.339C353.462 393.265 355.896 392.166 358.269 391.993C360.643 391.819 362.987 392.418 365.287 393.022C364.935 390.13 365.51 387.201 366.929 384.657C367.309 384.084 367.601 383.456 367.794 382.796C368.061 381.538 367.438 380.286 367.102 379.044C366.553 377.064 366.746 374.93 366.874 372.861C367.306 365.932 366.999 358.976 365.959 352.111C365.799 350.759 365.482 349.43 365.015 348.151C364.837 347.696 364.619 347.26 364.471 346.8C364.237 345.974 364.105 345.123 364.075 344.266L363.507 336.346C363.106 330.797 364.926 325.317 366.197 319.902C366.766 317.477 367.384 315.056 367.765 312.591C368.284 309.235 368.368 305.805 369.129 302.493C369.812 299.523 371.043 296.628 371.3 293.583C371.696 288.866 369.738 284.307 367.839 279.981C367.047 278.199 364.055 278.377 362.132 278.06C348.487 275.818 334.116 275.803 321.248 280.857C319.918 281.409 318.719 282.237 317.732 283.288Z" fill="#444B97"/>
<path d="M327.568 195.432L329.082 201.322C329.493 202.673 329.721 204.073 329.759 205.485C329.775 206 329.661 206.51 329.428 206.97C329.179 207.347 328.86 207.673 328.488 207.93C327.455 208.717 326.738 210.554 325.556 211.098C326.164 212.157 327.005 211.469 328.103 211.999C330.036 212.939 331.807 214.291 333.903 214.756C335.882 215.192 337.959 214.781 339.922 214.261C342.706 213.504 345.476 212.459 347.716 210.633C349.956 208.806 351.232 207.193 351.222 204.307C348.749 204.599 346.549 202.099 345.456 199.852C345.077 198.998 344.798 198.102 344.625 197.184L343.3 191.348C341.856 191.665 340.679 192.699 339.299 193.239C337.919 193.778 336.287 193.828 334.754 193.897C332.033 194.021 329.326 194.372 326.663 194.946C326.297 195.021 325.838 195.253 325.927 195.61" fill="#FBB3B2"/>
<path opacity="0.1" d="M327.568 195.432L329.082 201.322C329.493 202.673 329.721 204.073 329.759 205.485C329.775 206 329.661 206.51 329.428 206.97C329.179 207.347 328.86 207.673 328.488 207.93C327.455 208.717 326.738 210.554 325.556 211.098C326.164 212.157 327.005 211.469 328.103 211.999C330.036 212.939 331.807 214.291 333.903 214.756C335.882 215.192 337.959 214.781 339.922 214.261C342.706 213.504 345.476 212.459 347.716 210.633C349.956 208.806 351.232 207.193 351.222 204.307C348.749 204.599 346.549 202.099 345.456 199.852C345.077 198.998 344.798 198.102 344.625 197.184L343.3 191.348C341.856 191.665 340.679 192.699 339.299 193.239C337.919 193.778 336.287 193.828 334.754 193.897C332.033 194.021 329.326 194.372 326.663 194.946C326.297 195.021 325.838 195.253 325.927 195.61" fill="black"/>
<path d="M334.067 198.679C341.299 198.679 347.162 192.81 347.162 185.571C347.162 178.332 341.299 172.464 334.067 172.464C326.835 172.464 320.972 178.332 320.972 185.571C320.972 192.81 326.835 198.679 334.067 198.679Z" fill="#FBB3B2"/>
<path d="M337.673 207.178C338.373 205.664 339.384 204.315 340.64 203.218C342.485 201.599 345.007 200.287 345.442 197.872L349.438 202.53C349.655 202.746 349.824 203.006 349.932 203.292C349.983 203.561 349.975 203.837 349.911 204.102C349.846 204.368 349.725 204.616 349.557 204.831C348.568 206.41 347.01 207.539 345.536 208.682C342.158 211.36 338.924 214.216 335.848 217.236C335.712 217.393 335.531 217.504 335.329 217.553C335.138 217.558 334.949 217.504 334.79 217.399C332.135 216.004 329.787 214.093 327.881 211.776C327.738 211.603 327.56 211.405 327.327 211.42C327.187 211.446 327.058 211.513 326.956 211.613C325.626 212.702 324.172 214.004 322.466 213.835C324.676 212.246 325.928 209.593 326.392 206.905C326.484 205.986 326.673 205.078 326.956 204.198C327.103 203.758 327.355 203.36 327.692 203.041C328.028 202.721 328.438 202.49 328.885 202.366C327.807 204.015 328.544 206.351 329.993 207.683C331.401 208.879 333.088 209.698 334.899 210.063C336.58 210.38 337.074 208.475 337.673 207.178Z" fill="#323444"/>
<path d="M320.636 284.634C322.5 285.094 324.266 285.876 326.076 286.456C329.375 287.49 332.846 287.855 336.288 287.53C337.347 287.506 338.377 287.178 339.255 286.584C339.488 286.396 339.7 286.173 339.947 286C340.361 285.752 340.809 285.567 341.278 285.451C345.813 284.03 349.611 280.966 353.295 277.966C353.414 277.867 353.547 277.744 353.537 277.585C353.52 277.477 353.468 277.378 353.389 277.303L351.45 275.076C346.367 275.942 341.159 275.615 336.001 275.487C334.942 275.439 333.881 275.468 332.826 275.571C331.807 275.689 330.803 275.947 329.8 276.165C325.987 276.996 322.09 277.313 318.227 277.858C317.957 277.877 317.695 277.959 317.461 278.095C317.298 278.221 317.159 278.375 317.05 278.551L315.695 280.456C315.169 281.097 314.782 281.841 314.558 282.639C314.241 284.124 314.904 284.619 316.165 284.426C317.655 284.208 319.173 284.278 320.636 284.634Z" fill="#323444"/>
<path d="M335.793 214.969C334.28 213.417 332.565 212.077 330.694 210.984C329.938 210.504 329.1 210.168 328.221 209.994C327.779 209.907 327.324 209.917 326.886 210.025C326.449 210.133 326.04 210.335 325.689 210.618C325.249 211.009 324.972 211.553 324.547 211.964C324.012 212.414 323.398 212.762 322.737 212.989C320.486 213.952 318.352 215.169 316.377 216.617C315.301 217.371 314.331 218.267 313.494 219.28C311.254 222.151 310.918 226.057 310.977 229.7C311.021 232.234 313.45 234.115 315.121 236.011C316.689 237.877 318.108 239.863 319.364 241.951C320.264 243.376 321.204 244.921 321.09 246.619C320.996 248.01 320.185 249.316 320.314 250.702C320.358 251.197 320.516 251.653 320.561 252.133C320.65 253.123 320.259 254.113 320.16 255.103C320.027 256.504 320.482 257.895 320.507 259.305C320.488 260.271 320.366 261.232 320.141 262.171C319.191 266.696 317.999 271.244 318.242 275.863L315.502 276.358C315.761 276.612 315.957 276.925 316.074 277.269C316.191 277.614 316.224 277.981 316.173 278.341C316.121 278.701 315.986 279.044 315.777 279.341C315.569 279.639 315.293 279.884 314.973 280.055C319.25 281.486 323.874 280.763 328.409 280.758C332.163 280.758 335.902 281.253 339.65 281.184C343.399 281.115 347.266 280.436 350.357 278.313C351.198 277.739 351.969 277.066 352.854 276.566C354.04 275.951 355.318 275.533 356.638 275.328C359.082 274.862 361.567 274.639 364.056 274.665C365.272 274.665 366.598 274.714 367.567 273.982C368.635 273.17 368.907 271.7 369.05 270.368C369.194 268.963 369.283 267.552 369.308 266.141C369.349 265.043 369.291 263.942 369.134 262.854C368.986 262.059 368.793 261.272 368.556 260.498L366.691 253.925C365.92 251.212 366.993 248.237 367.221 245.426C367.275 244.762 367.285 243.99 366.776 243.565C366.593 243.411 366.34 243.307 366.281 243.07C366.254 242.957 366.251 242.84 366.272 242.726C366.292 242.611 366.336 242.503 366.4 242.406C367.389 240.426 368.872 238.679 370.227 236.892C372.503 233.758 374.616 230.508 376.558 227.156C375.95 220.141 372.998 213.535 368.18 208.405C367.191 207.331 366.058 206.302 364.674 205.816C363.769 205.54 362.83 205.388 361.885 205.366C358.007 205.104 353.972 204.871 350.594 202.921C350.352 202.753 350.077 202.636 349.788 202.579C349.041 202.495 348.497 203.233 348.013 203.817C346.767 205.302 344.932 206.153 343.32 207.247C340.313 209.291 337.964 212.103 335.793 214.969Z" fill="#FF8E01"/>
<path d="M376.893 229.18C377.665 231.625 377.591 234.239 377.843 236.788C377.992 238.326 378.262 239.851 378.649 241.347C378.826 242.169 379.144 242.955 379.589 243.668C380.034 244.322 380.672 244.851 380.954 245.589C381.108 246.089 381.176 246.611 381.156 247.133L381.216 250.549C381.343 252.359 381.067 254.174 380.41 255.865L378.278 262.354C377.126 265.869 375.944 269.438 373.867 272.497C373.574 273.014 373.131 273.431 372.596 273.69C372.177 273.8 371.748 273.867 371.315 273.888C370.561 274.022 369.878 274.416 369.382 275C368.887 275.585 368.61 276.324 368.6 277.09C368.105 276.366 367.488 275.735 366.775 275.224L362.438 271.759C360.954 270.551 359.407 269.324 357.606 268.626C360.028 267.869 362.177 266.425 363.794 264.469C365.411 262.513 366.426 260.13 366.716 257.607C366.714 256.857 366.883 256.115 367.21 255.439C367.571 254.855 368.239 254.41 368.288 253.722C368.348 252.855 367.369 252.202 367.369 251.336C367.369 250.762 367.794 250.286 367.982 249.747C368.158 249.08 368.158 248.379 367.982 247.713L367.383 244.386C367.348 244.053 367.247 243.73 367.087 243.436C366.863 243.154 366.615 242.892 366.345 242.654C365.316 241.5 365.771 239.684 366.345 238.263C367.662 235.11 369.36 232.129 371.399 229.388C372.125 228.467 372.797 227.505 373.412 226.507C373.936 225.596 374.055 224.334 374.609 223.537C375.321 225.408 376.285 227.254 376.893 229.18Z" fill="#FF8E01"/>
<path d="M357.453 268.829C357.233 268.993 357.042 269.194 356.89 269.423C356.307 270.155 355.531 270.709 354.649 271.022C355.144 271.378 355.594 271.73 356.059 272.091C359.498 274.75 362.648 277.764 365.455 281.085C365.767 279.971 367.631 280.05 368.086 278.986C368.193 278.682 368.227 278.356 368.185 278.036C368.09 276.368 367.852 274.712 367.473 273.086C367.323 272.249 366.985 271.456 366.484 270.769C365.791 269.933 364.713 269.532 363.685 269.185C362.127 268.641 359.036 267.874 357.453 268.829Z" fill="#323444"/>
<path d="M351.272 272.72C349.788 273.818 348.488 275.194 346.821 275.947C345.644 276.481 344.304 276.714 343.275 277.511C343.834 278.744 345.288 279.382 346.638 279.333C347.99 279.2 349.285 278.724 350.402 277.952C351.287 277.407 352.325 276.774 353.29 277.155C353.438 277.907 352.795 278.615 352.795 279.377C352.795 280.139 353.428 280.694 354.051 281.095C357.019 283.01 360.836 282.852 364.372 282.629C364.575 282.637 364.775 282.578 364.941 282.461C365.018 282.371 365.076 282.268 365.113 282.155C365.149 282.043 365.163 281.925 365.154 281.808C365.198 281.025 365.218 280.248 365.223 279.466C365.323 278.836 365.241 278.19 364.987 277.604C364.733 277.018 364.317 276.517 363.789 276.16C361.87 274.509 359.8 273.042 357.607 271.779C355.431 270.517 353.225 271.264 351.272 272.72Z" fill="#FBB3B2"/>
<path d="M338.666 180.092C336.471 180.354 334.873 182.072 335.096 183.938C335.318 185.804 337.277 187.091 339.473 186.824C341.668 186.556 343.266 184.844 343.043 182.982C342.821 181.121 340.862 179.829 338.666 180.092ZM339.413 186.309C337.554 186.532 335.897 185.438 335.704 183.864C335.511 182.289 336.871 180.834 338.726 180.611C340.58 180.389 342.242 181.483 342.435 183.057C342.628 184.631 341.268 186.086 339.413 186.309Z" fill="#444B97"/>
<path d="M327.964 181.379C325.769 181.641 324.171 183.359 324.394 185.22C324.616 187.081 326.575 188.373 328.77 188.111C330.966 187.848 332.564 186.131 332.341 184.265C332.118 182.398 330.16 181.116 327.964 181.379ZM328.711 187.591C326.852 187.814 325.195 186.72 325.007 185.151C324.819 183.581 326.169 182.121 328.029 181.893C329.888 181.666 331.545 182.765 331.733 184.339C331.921 185.913 330.566 187.368 328.711 187.591Z" fill="#444B97"/>
<path d="M320.017 182.334L324.789 183.354L324.32 184.611L319.819 183.289L320.017 182.334Z" fill="#444B97"/>
<path d="M346.618 179.136L342.217 181.26L342.973 182.369L347.034 180.018L346.618 179.136Z" fill="#444B97"/>
<path d="M331.901 183.037L335.249 182.636L335.076 183.468L332.203 183.661L331.901 183.037Z" fill="#444B97"/>
<path d="M325.407 181.913C325.722 181.235 325.891 180.498 325.902 179.75C325.914 179.303 325.99 178.859 326.129 178.433C326.372 177.893 326.742 177.419 327.207 177.052C328.75 175.746 330.961 175.072 333.142 174.978C335.52 174.869 337.885 175.381 340.006 176.463C340.654 176.767 341.234 177.198 341.712 177.731C342.405 178.577 342.553 179.671 343.25 180.507C343.726 181.015 344.325 181.391 344.988 181.599C345.652 181.807 346.358 181.84 347.038 181.695C347.281 180.834 346.964 179.923 347.088 179.042C347.283 178.287 347.546 177.552 347.874 176.845C348.641 174.582 347.523 171.959 345.218 170.608C344.412 170.113 343.458 169.791 342.855 169.123C342.251 168.454 342.108 167.761 341.692 167.093C340.59 165.326 337.736 164.499 335.565 165.316C334.883 165.574 334.279 165.965 333.587 166.242C332.301 166.771 330.837 166.865 329.423 167.044C328.029 167.173 326.665 167.531 325.388 168.103C324.166 168.707 323.142 169.677 322.86 170.835C322.727 171.37 322.757 171.924 322.623 172.454C321.941 175.142 317.534 176.449 317.287 179.191C317.198 180.181 317.737 181.131 318.41 181.938C318.874 182.487 319.987 183.958 320.773 184.17C321.56 184.383 322.158 183.636 322.91 183.378C324.097 183.007 324.814 182.928 325.407 181.913Z" fill="#323444"/>
<g opacity="0.2">
<path d="M195.937 92.0079H154.344C151.945 92.0079 150 93.9546 150 96.356V102.875C150 105.276 151.945 107.223 154.344 107.223H195.937C198.336 107.223 200.281 105.276 200.281 102.875V96.356C200.281 93.9546 198.336 92.0079 195.937 92.0079Z" fill="#F9F9F9"/>
<path d="M195.937 67.3348H154.344C151.945 67.3348 150 69.2815 150 71.6829V78.202C150 80.6034 151.945 82.55 154.344 82.55H195.937C198.336 82.55 200.281 80.6034 200.281 78.202V71.6829C200.281 69.2815 198.336 67.3348 195.937 67.3348Z" fill="#F9F9F9"/>
<path d="M195.937 25.5962H154.344C151.945 25.5962 150 27.5429 150 29.9442V36.4634C150 38.8647 151.945 40.8114 154.344 40.8114H195.937C198.336 40.8114 200.281 38.8647 200.281 36.4634V29.9442C200.281 27.5429 198.336 25.5962 195.937 25.5962Z" fill="#F9F9F9"/>
<path d="M195.937 0.923035H154.344C151.945 0.923035 150 2.86971 150 5.27107V11.7902C150 14.1916 151.945 16.1383 154.344 16.1383H195.937C198.336 16.1383 200.281 14.1916 200.281 11.7902V5.27107C200.281 2.86971 198.336 0.923035 195.937 0.923035Z" fill="#F9F9F9"/>
</g>
<g opacity="0.2">
<path d="M274.591 107.223H232.998C230.599 107.223 228.654 109.17 228.654 111.571V118.09C228.654 120.492 230.599 122.438 232.998 122.438H274.591C276.99 122.438 278.935 120.492 278.935 118.09V111.571C278.935 109.17 276.99 107.223 274.591 107.223Z" fill="#F9F9F9"/>
<path d="M274.591 82.55H232.998C230.599 82.55 228.654 84.4967 228.654 86.8981V93.4172C228.654 95.8186 230.599 97.7652 232.998 97.7652H274.591C276.99 97.7652 278.935 95.8186 278.935 93.4172V86.8981C278.935 84.4967 276.99 82.55 274.591 82.55Z" fill="#F9F9F9"/>
<path d="M274.591 40.8114H232.998C230.599 40.8114 228.654 42.7581 228.654 45.1594V51.6786C228.654 54.0799 230.599 56.0266 232.998 56.0266H274.591C276.99 56.0266 278.935 54.0799 278.935 51.6786V45.1594C278.935 42.7581 276.99 40.8114 274.591 40.8114Z" fill="#F9F9F9"/>
<path d="M274.591 16.1382H232.998C230.599 16.1382 228.654 18.0849 228.654 20.4863V27.0054C228.654 29.4068 230.599 31.3534 232.998 31.3534H274.591C276.99 31.3534 278.935 29.4068 278.935 27.0054V20.4863C278.935 18.0849 276.99 16.1382 274.591 16.1382Z" fill="#F9F9F9"/>
</g>
<g opacity="0.2">
<path d="M353.247 122.438H311.654C309.254 122.438 307.31 124.385 307.31 126.787V133.306C307.31 135.707 309.254 137.654 311.654 137.654H353.247C355.646 137.654 357.591 135.707 357.591 133.306V126.787C357.591 124.385 355.646 122.438 353.247 122.438Z" fill="#F9F9F9"/>
<path d="M353.247 97.7653H311.654C309.254 97.7653 307.31 99.712 307.31 102.113V108.632C307.31 111.034 309.254 112.981 311.654 112.981H353.247C355.646 112.981 357.591 111.034 357.591 108.632V102.113C357.591 99.712 355.646 97.7653 353.247 97.7653Z" fill="#F9F9F9"/>
<path d="M353.247 56.0265H311.654C309.254 56.0265 307.31 57.9732 307.31 60.3745V66.8937C307.31 69.295 309.254 71.2417 311.654 71.2417H353.247C355.646 71.2417 357.591 69.295 357.591 66.8937V60.3745C357.591 57.9732 355.646 56.0265 353.247 56.0265Z" fill="#F9F9F9"/>
<path d="M353.247 31.3534H311.654C309.254 31.3534 307.31 33.3001 307.31 35.7014V42.2206C307.31 44.6219 309.254 46.5686 311.654 46.5686H353.247C355.646 46.5686 357.591 44.6219 357.591 42.2206V35.7014C357.591 33.3001 355.646 31.3534 353.247 31.3534Z" fill="#F9F9F9"/>
</g>
<g opacity="0.2">
<path d="M106.937 299.085H65.344C62.9449 299.085 61 301.032 61 303.433V309.952C61 312.354 62.9449 314.3 65.344 314.3H106.937C109.336 314.3 111.281 312.354 111.281 309.952V303.433C111.281 301.032 109.336 299.085 106.937 299.085Z" fill="#F9F9F9"/>
<path d="M106.937 274.412H65.344C62.9449 274.412 61 276.359 61 278.76V285.279C61 287.68 62.9449 289.627 65.344 289.627H106.937C109.336 289.627 111.281 287.68 111.281 285.279V278.76C111.281 276.359 109.336 274.412 106.937 274.412Z" fill="#F9F9F9"/>
<path d="M106.937 232.673H65.344C62.9449 232.673 61 234.62 61 237.021V243.54C61 245.942 62.9449 247.888 65.344 247.888H106.937C109.336 247.888 111.281 245.942 111.281 243.54V237.021C111.281 234.62 109.336 232.673 106.937 232.673Z" fill="#F9F9F9"/>
<path d="M106.937 208H65.344C62.9449 208 61 209.947 61 212.348V218.867C61 221.269 62.9449 223.215 65.344 223.215H106.937C109.336 223.215 111.281 221.269 111.281 218.867V212.348C111.281 209.947 109.336 208 106.937 208Z" fill="#F9F9F9"/>
</g>
</svg>
