<svg width="372" height="416" viewBox="0 0 372 416" fill="none" xmlns="http://www.w3.org/2000/svg">
<g opacity="0.2">
<path d="M167.937 92.0079H126.344C123.945 92.0079 122 93.9546 122 96.356V102.875C122 105.276 123.945 107.223 126.344 107.223H167.937C170.336 107.223 172.281 105.276 172.281 102.875V96.356C172.281 93.9546 170.336 92.0079 167.937 92.0079Z" fill="#F9F9F9"/>
<path d="M167.937 67.3348H126.344C123.945 67.3348 122 69.2815 122 71.6829V78.202C122 80.6034 123.945 82.55 126.344 82.55H167.937C170.336 82.55 172.281 80.6034 172.281 78.202V71.6829C172.281 69.2815 170.336 67.3348 167.937 67.3348Z" fill="#F9F9F9"/>
<path d="M167.937 25.5962H126.344C123.945 25.5962 122 27.5429 122 29.9442V36.4634C122 38.8647 123.945 40.8114 126.344 40.8114H167.937C170.336 40.8114 172.281 38.8647 172.281 36.4634V29.9442C172.281 27.5429 170.336 25.5962 167.937 25.5962Z" fill="#F9F9F9"/>
<path d="M167.937 0.923035H126.344C123.945 0.923035 122 2.86971 122 5.27107V11.7902C122 14.1916 123.945 16.1383 126.344 16.1383H167.937C170.336 16.1383 172.281 14.1916 172.281 11.7902V5.27107C172.281 2.86971 170.336 0.923035 167.937 0.923035Z" fill="#F9F9F9"/>
</g>
<g opacity="0.2">
<path d="M246.592 107.223H204.999C202.6 107.223 200.655 109.17 200.655 111.571V118.09C200.655 120.492 202.6 122.438 204.999 122.438H246.592C248.991 122.438 250.936 120.492 250.936 118.09V111.571C250.936 109.17 248.991 107.223 246.592 107.223Z" fill="#F9F9F9"/>
<path d="M246.592 82.55H204.999C202.6 82.55 200.655 84.4967 200.655 86.8981V93.4172C200.655 95.8186 202.6 97.7652 204.999 97.7652H246.592C248.991 97.7652 250.936 95.8186 250.936 93.4172V86.8981C250.936 84.4967 248.991 82.55 246.592 82.55Z" fill="#F9F9F9"/>
<path d="M246.592 40.8114H204.999C202.6 40.8114 200.655 42.7581 200.655 45.1594V51.6786C200.655 54.0799 202.6 56.0266 204.999 56.0266H246.592C248.991 56.0266 250.936 54.0799 250.936 51.6786V45.1594C250.936 42.7581 248.991 40.8114 246.592 40.8114Z" fill="#F9F9F9"/>
<path d="M246.592 16.1382H204.999C202.6 16.1382 200.655 18.0849 200.655 20.4863V27.0054C200.655 29.4068 202.6 31.3534 204.999 31.3534H246.592C248.991 31.3534 250.936 29.4068 250.936 27.0054V20.4863C250.936 18.0849 248.991 16.1382 246.592 16.1382Z" fill="#F9F9F9"/>
</g>
<g opacity="0.2">
<path d="M325.247 122.438H283.654C281.254 122.438 279.31 124.385 279.31 126.787V133.306C279.31 135.707 281.254 137.654 283.654 137.654H325.247C327.646 137.654 329.591 135.707 329.591 133.306V126.787C329.591 124.385 327.646 122.438 325.247 122.438Z" fill="#F9F9F9"/>
<path d="M325.247 97.7653H283.654C281.254 97.7653 279.31 99.712 279.31 102.113V108.632C279.31 111.034 281.254 112.981 283.654 112.981H325.247C327.646 112.981 329.591 111.034 329.591 108.632V102.113C329.591 99.712 327.646 97.7653 325.247 97.7653Z" fill="#F9F9F9"/>
<path d="M325.247 56.0265H283.654C281.254 56.0265 279.31 57.9732 279.31 60.3745V66.8937C279.31 69.295 281.254 71.2417 283.654 71.2417H325.247C327.646 71.2417 329.591 69.295 329.591 66.8937V60.3745C329.591 57.9732 327.646 56.0265 325.247 56.0265Z" fill="#F9F9F9"/>
<path d="M325.247 31.3534H283.654C281.254 31.3534 279.31 33.3001 279.31 35.7014V42.2206C279.31 44.6219 281.254 46.5686 283.654 46.5686H325.247C327.646 46.5686 329.591 44.6219 329.591 42.2206V35.7014C329.591 33.3001 327.646 31.3534 325.247 31.3534Z" fill="#F9F9F9"/>
</g>
<g opacity="0.2">
<path d="M78.937 299.085H37.344C34.9449 299.085 33 301.032 33 303.433V309.952C33 312.354 34.9449 314.3 37.344 314.3H78.937C81.3361 314.3 83.281 312.354 83.281 309.952V303.433C83.281 301.032 81.3361 299.085 78.937 299.085Z" fill="#F9F9F9"/>
<path d="M78.937 274.412H37.344C34.9449 274.412 33 276.359 33 278.76V285.279C33 287.68 34.9449 289.627 37.344 289.627H78.937C81.3361 289.627 83.281 287.68 83.281 285.279V278.76C83.281 276.359 81.3361 274.412 78.937 274.412Z" fill="#F9F9F9"/>
<path d="M78.937 232.673H37.344C34.9449 232.673 33 234.62 33 237.021V243.54C33 245.942 34.9449 247.888 37.344 247.888H78.937C81.3361 247.888 83.281 245.942 83.281 243.54V237.021C83.281 234.62 81.3361 232.673 78.937 232.673Z" fill="#F9F9F9"/>
<path d="M78.937 208H37.344C34.9449 208 33 209.947 33 212.348V218.867C33 221.269 34.9449 223.215 37.344 223.215H78.937C81.3361 223.215 83.281 221.269 83.281 218.867V212.348C83.281 209.947 81.3361 208 78.937 208Z" fill="#F9F9F9"/>
</g>
<path opacity="0.6" d="M14.6962 140.049C21.875 143.19 26 149.688 26 149.688C26 149.688 18.4844 151.09 11.3038 147.951C4.12326 144.813 0 138.313 0 138.313C0 138.313 7.51563 136.909 14.6962 140.049Z" fill="#FF8E01"/>
<path d="M14.8669 116.749C19.3919 132.915 31.8641 143.558 31.8641 143.558C31.8641 143.558 37.0024 127.98 32.4774 111.809C27.9523 95.6374 15.4752 85 15.4752 85C15.4752 85 10.3369 100.577 14.8669 116.749Z" fill="#FF8E01"/>
<path opacity="0.6" d="M55.8258 130.345C62.151 119.95 72.922 115 72.922 115C72.922 115 73.4165 126.85 67.1112 137.215C60.8058 147.58 50.01 152.525 50.01 152.525C50.01 152.525 49.4957 140.68 55.8258 130.345Z" fill="#FF8E01"/>
<path d="M367.739 97.8038H14.3517C12.3825 97.8038 10.7861 99.4017 10.7861 101.373V274.907C10.7861 276.878 12.3825 278.476 14.3517 278.476H367.739C369.708 278.476 371.304 276.878 371.304 274.907V101.373C371.304 99.4017 369.708 97.8038 367.739 97.8038Z" fill="#F2F2F2"/>
<path d="M37.994 123.032H41.844C42.936 123.032 43.874 123.228 44.658 123.62C45.442 124.012 46.0393 124.581 46.45 125.328C46.87 126.075 47.08 126.966 47.08 128.002C47.08 129.047 46.8747 129.943 46.464 130.69C46.0533 131.437 45.456 132.011 44.672 132.412C43.888 132.804 42.9453 133 41.844 133H37.994V123.032ZM41.704 131.236C43.832 131.236 44.896 130.158 44.896 128.002C44.896 125.865 43.832 124.796 41.704 124.796H40.178V131.236H41.704ZM56.4668 125.902V133H54.3808V131.95C54.1661 132.314 53.8628 132.599 53.4708 132.804C53.0788 133.009 52.6354 133.112 52.1408 133.112C51.5248 133.112 50.9788 132.963 50.5028 132.664C50.0361 132.365 49.6674 131.941 49.3968 131.39C49.1354 130.83 49.0048 130.186 49.0048 129.458C49.0048 128.73 49.1354 128.081 49.3968 127.512C49.6674 126.943 50.0408 126.504 50.5168 126.196C50.9928 125.879 51.5341 125.72 52.1408 125.72C52.6354 125.72 53.0788 125.827 53.4708 126.042C53.8628 126.257 54.1661 126.546 54.3808 126.91V125.902H56.4668ZM52.7568 131.502C53.2794 131.502 53.6808 131.325 53.9608 130.97C54.2408 130.615 54.3808 130.102 54.3808 129.43C54.3808 128.758 54.2408 128.245 53.9608 127.89C53.6808 127.526 53.2794 127.344 52.7568 127.344C52.2341 127.344 51.8281 127.531 51.5388 127.904C51.2494 128.277 51.1048 128.795 51.1048 129.458C51.1048 130.121 51.2448 130.629 51.5248 130.984C51.8141 131.329 52.2248 131.502 52.7568 131.502ZM65.8731 125.902L62.5971 133.378C62.1958 134.283 61.6871 134.946 61.0711 135.366C60.4645 135.795 59.7178 136.071 58.8311 136.192L58.3411 134.568C58.9945 134.428 59.4845 134.251 59.8111 134.036C60.1471 133.821 60.4085 133.509 60.5951 133.098L60.8051 132.636L57.8791 125.902H60.0911L61.9111 130.508L63.7871 125.902H65.8731ZM78.8099 131.25V133H71.9639V131.39L75.2819 127.862C75.9726 127.115 76.3179 126.434 76.3179 125.818C76.3179 125.426 76.2012 125.132 75.9679 124.936C75.7439 124.731 75.4126 124.628 74.9739 124.628C74.1246 124.628 73.2426 124.95 72.3279 125.594L71.6279 124.026C72.0292 123.681 72.5426 123.41 73.1679 123.214C73.7932 123.009 74.4279 122.906 75.0719 122.906C76.1079 122.906 76.9292 123.158 77.5359 123.662C78.1519 124.157 78.4599 124.824 78.4599 125.664C78.4599 126.243 78.3386 126.779 78.0959 127.274C77.8626 127.759 77.4659 128.301 76.9059 128.898L74.6519 131.25H78.8099ZM85.7376 128.38H90.0916V130.046H85.7376V128.38ZM100.782 133.112C100.007 133.112 99.2978 133.009 98.6538 132.804C98.0191 132.599 97.4685 132.291 97.0018 131.88L97.5198 130.816C98.0051 131.208 98.5091 131.493 99.0318 131.67C99.5545 131.847 100.142 131.936 100.796 131.936C101.542 131.936 102.121 131.796 102.532 131.516C102.942 131.236 103.148 130.839 103.148 130.326C103.148 129.897 102.956 129.575 102.574 129.36C102.191 129.136 101.584 128.931 100.754 128.744C99.9605 128.576 99.3118 128.385 98.8078 128.17C98.3038 127.946 97.9071 127.652 97.6178 127.288C97.3285 126.915 97.1838 126.439 97.1838 125.86C97.1838 125.281 97.3378 124.773 97.6458 124.334C97.9538 123.886 98.3878 123.541 98.9478 123.298C99.5171 123.046 100.17 122.92 100.908 122.92C101.608 122.92 102.261 123.027 102.868 123.242C103.484 123.457 103.997 123.76 104.408 124.152L103.89 125.216C103.432 124.833 102.961 124.553 102.476 124.376C101.99 124.189 101.472 124.096 100.922 124.096C100.203 124.096 99.6385 124.25 99.2278 124.558C98.8171 124.857 98.6118 125.267 98.6118 125.79C98.6118 126.238 98.7891 126.579 99.1438 126.812C99.5078 127.045 100.086 127.255 100.88 127.442C101.71 127.629 102.382 127.825 102.896 128.03C103.409 128.235 103.82 128.515 104.128 128.87C104.436 129.225 104.59 129.682 104.59 130.242C104.59 130.821 104.436 131.325 104.128 131.754C103.82 132.183 103.376 132.519 102.798 132.762C102.228 132.995 101.556 133.112 100.782 133.112ZM111.727 133L108.353 129.668V133H106.953V122.696H108.353V129.136L111.489 125.958H113.239L109.865 129.346L113.533 133H111.727ZM121.001 129.5H115.961C116.008 131.152 116.759 131.978 118.215 131.978C119.027 131.978 119.769 131.712 120.441 131.18L120.875 132.188C120.558 132.468 120.152 132.692 119.657 132.86C119.172 133.019 118.682 133.098 118.187 133.098C117.058 133.098 116.171 132.776 115.527 132.132C114.883 131.479 114.561 130.587 114.561 129.458C114.561 128.739 114.701 128.1 114.981 127.54C115.271 126.98 115.672 126.546 116.185 126.238C116.699 125.93 117.282 125.776 117.935 125.776C118.887 125.776 119.634 126.084 120.175 126.7C120.726 127.316 121.001 128.17 121.001 129.262V129.5ZM117.963 126.826C117.431 126.826 116.997 126.985 116.661 127.302C116.325 127.619 116.111 128.072 116.017 128.66H119.755C119.699 128.063 119.517 127.61 119.209 127.302C118.901 126.985 118.486 126.826 117.963 126.826ZM125.09 127.036V130.578C125.09 131.063 125.192 131.409 125.398 131.614C125.612 131.81 125.906 131.908 126.28 131.908C126.522 131.908 126.77 131.871 127.022 131.796V132.944C126.714 133.047 126.364 133.098 125.972 133.098C125.244 133.098 124.679 132.893 124.278 132.482C123.876 132.071 123.676 131.474 123.676 130.69V127.036H122.304V125.944H123.676V124.18L125.09 123.69V125.944H127.036V127.036H125.09ZM132.107 133.098C131.398 133.098 130.777 132.949 130.245 132.65C129.723 132.351 129.321 131.931 129.041 131.39C128.761 130.839 128.621 130.2 128.621 129.472C128.621 128.744 128.766 128.1 129.055 127.54C129.354 126.98 129.769 126.546 130.301 126.238C130.833 125.93 131.454 125.776 132.163 125.776C132.658 125.776 133.134 125.86 133.591 126.028C134.049 126.187 134.417 126.406 134.697 126.686L134.263 127.708C133.601 127.185 132.933 126.924 132.261 126.924C131.58 126.924 131.048 127.148 130.665 127.596C130.283 128.035 130.091 128.655 130.091 129.458C130.091 130.261 130.283 130.881 130.665 131.32C131.048 131.749 131.58 131.964 132.261 131.964C132.952 131.964 133.619 131.703 134.263 131.18L134.697 132.202C134.399 132.482 134.016 132.701 133.549 132.86C133.092 133.019 132.611 133.098 132.107 133.098ZM140.48 125.776C142.169 125.776 143.014 126.719 143.014 128.604V133H141.6V128.688C141.6 128.072 141.478 127.624 141.236 127.344C141.002 127.064 140.624 126.924 140.102 126.924C139.504 126.924 139.024 127.111 138.66 127.484C138.305 127.857 138.128 128.357 138.128 128.982V133H136.728V122.696H138.128V127.036C138.361 126.625 138.683 126.313 139.094 126.098C139.504 125.883 139.966 125.776 140.48 125.776Z" fill="#46455B"/>
<path d="M69.1777 161V152.434H70.1738V160.098H73.9531V161H69.1777ZM80.8686 157.783C80.8686 158.83 80.6049 159.648 80.0776 160.238C79.5502 160.824 78.8217 161.117 77.892 161.117C77.3178 161.117 76.808 160.982 76.3627 160.713C75.9174 160.443 75.5737 160.057 75.3315 159.553C75.0893 159.049 74.9682 158.459 74.9682 157.783C74.9682 156.736 75.2299 155.922 75.7534 155.34C76.2768 154.754 77.0034 154.461 77.933 154.461C78.8315 154.461 79.5444 154.76 80.0717 155.357C80.603 155.955 80.8686 156.764 80.8686 157.783ZM75.976 157.783C75.976 158.604 76.1401 159.229 76.4682 159.658C76.7963 160.088 77.2787 160.303 77.9155 160.303C78.5522 160.303 79.0346 160.09 79.3627 159.664C79.6948 159.234 79.8608 158.607 79.8608 157.783C79.8608 156.967 79.6948 156.348 79.3627 155.926C79.0346 155.5 78.5483 155.287 77.9037 155.287C77.267 155.287 76.7866 155.496 76.4623 155.914C76.1381 156.332 75.976 156.955 75.976 157.783ZM88.1825 157.783C88.1825 158.83 87.9188 159.648 87.3915 160.238C86.8641 160.824 86.1356 161.117 85.2059 161.117C84.6317 161.117 84.122 160.982 83.6766 160.713C83.2313 160.443 82.8876 160.057 82.6454 159.553C82.4032 159.049 82.2821 158.459 82.2821 157.783C82.2821 156.736 82.5438 155.922 83.0673 155.34C83.5907 154.754 84.3173 154.461 85.247 154.461C86.1454 154.461 86.8583 154.76 87.3856 155.357C87.9169 155.955 88.1825 156.764 88.1825 157.783ZM83.2899 157.783C83.2899 158.604 83.454 159.229 83.7821 159.658C84.1102 160.088 84.5927 160.303 85.2294 160.303C85.8661 160.303 86.3485 160.09 86.6766 159.664C87.0087 159.234 87.1747 158.607 87.1747 157.783C87.1747 156.967 87.0087 156.348 86.6766 155.926C86.3485 155.5 85.8622 155.287 85.2177 155.287C84.5809 155.287 84.1005 155.496 83.7762 155.914C83.452 156.332 83.2899 156.955 83.2899 157.783ZM90.9144 157.713C91.0823 157.475 91.3382 157.162 91.682 156.775L93.7562 154.578H94.9105L92.3089 157.314L95.0921 161H93.9144L91.6468 157.965L90.9144 158.598V161H89.9534V151.883H90.9144V156.717C90.9144 156.932 90.8988 157.264 90.8675 157.713H90.9144ZM102.39 155.334H100.755V161H99.7824V155.334H98.634V154.895L99.7824 154.543V154.186C99.7824 152.607 100.472 151.818 101.851 151.818C102.191 151.818 102.589 151.887 103.046 152.023L102.794 152.803C102.419 152.682 102.099 152.621 101.833 152.621C101.466 152.621 101.195 152.744 101.019 152.99C100.843 153.232 100.755 153.623 100.755 154.162V154.578H102.39V155.334ZM109.165 157.783C109.165 158.83 108.901 159.648 108.374 160.238C107.846 160.824 107.118 161.117 106.188 161.117C105.614 161.117 105.104 160.982 104.659 160.713C104.214 160.443 103.87 160.057 103.628 159.553C103.385 159.049 103.264 158.459 103.264 157.783C103.264 156.736 103.526 155.922 104.049 155.34C104.573 154.754 105.299 154.461 106.229 154.461C107.128 154.461 107.84 154.76 108.368 155.357C108.899 155.955 109.165 156.764 109.165 157.783ZM104.272 157.783C104.272 158.604 104.436 159.229 104.764 159.658C105.092 160.088 105.575 160.303 106.212 160.303C106.848 160.303 107.331 160.09 107.659 159.664C107.991 159.234 108.157 158.607 108.157 157.783C108.157 156.967 107.991 156.348 107.659 155.926C107.331 155.5 106.844 155.287 106.2 155.287C105.563 155.287 105.083 155.496 104.758 155.914C104.434 156.332 104.272 156.955 104.272 157.783ZM113.865 154.461C114.15 154.461 114.406 154.484 114.633 154.531L114.498 155.434C114.232 155.375 113.998 155.346 113.795 155.346C113.275 155.346 112.83 155.557 112.459 155.979C112.092 156.4 111.908 156.926 111.908 157.555V161H110.936V154.578H111.738L111.85 155.768H111.897C112.135 155.35 112.422 155.027 112.758 154.801C113.094 154.574 113.463 154.461 113.865 154.461ZM120.044 161H119.071V154.578H120.044V161ZM118.989 152.838C118.989 152.615 119.044 152.453 119.153 152.352C119.263 152.246 119.399 152.193 119.563 152.193C119.72 152.193 119.854 152.246 119.968 152.352C120.081 152.457 120.138 152.619 120.138 152.838C120.138 153.057 120.081 153.221 119.968 153.33C119.854 153.436 119.72 153.488 119.563 153.488C119.399 153.488 119.263 153.436 119.153 153.33C119.044 153.221 118.989 153.057 118.989 152.838ZM126.561 161V156.846C126.561 156.322 126.442 155.932 126.204 155.674C125.965 155.416 125.592 155.287 125.084 155.287C124.412 155.287 123.92 155.469 123.608 155.832C123.295 156.195 123.139 156.795 123.139 157.631V161H122.166V154.578H122.957L123.116 155.457H123.162C123.362 155.141 123.641 154.896 124 154.725C124.36 154.549 124.76 154.461 125.202 154.461C125.975 154.461 126.557 154.648 126.948 155.023C127.338 155.395 127.534 155.99 127.534 156.811V161H126.561ZM133.74 159.248C133.74 159.846 133.517 160.307 133.072 160.631C132.627 160.955 132.002 161.117 131.197 161.117C130.346 161.117 129.681 160.982 129.205 160.713V159.811C129.514 159.967 129.844 160.09 130.195 160.18C130.551 160.27 130.892 160.314 131.221 160.314C131.728 160.314 132.119 160.234 132.392 160.074C132.666 159.91 132.803 159.662 132.803 159.33C132.803 159.08 132.693 158.867 132.474 158.691C132.26 158.512 131.838 158.301 131.209 158.059C130.611 157.836 130.185 157.643 129.931 157.479C129.681 157.311 129.494 157.121 129.369 156.91C129.248 156.699 129.187 156.447 129.187 156.154C129.187 155.631 129.4 155.219 129.826 154.918C130.252 154.613 130.836 154.461 131.578 154.461C132.269 154.461 132.945 154.602 133.605 154.883L133.26 155.674C132.615 155.408 132.031 155.275 131.508 155.275C131.047 155.275 130.699 155.348 130.465 155.492C130.23 155.637 130.113 155.836 130.113 156.09C130.113 156.262 130.156 156.408 130.242 156.529C130.332 156.65 130.474 156.766 130.67 156.875C130.865 156.984 131.24 157.143 131.795 157.35C132.556 157.627 133.07 157.906 133.336 158.188C133.605 158.469 133.74 158.822 133.74 159.248ZM138.376 161.117C137.958 161.117 137.575 161.041 137.228 160.889C136.884 160.732 136.595 160.494 136.361 160.174H136.29C136.337 160.549 136.361 160.904 136.361 161.24V163.883H135.388V154.578H136.179L136.314 155.457H136.361C136.611 155.105 136.902 154.852 137.234 154.695C137.566 154.539 137.947 154.461 138.376 154.461C139.228 154.461 139.884 154.752 140.345 155.334C140.81 155.916 141.042 156.732 141.042 157.783C141.042 158.838 140.806 159.658 140.333 160.244C139.865 160.826 139.212 161.117 138.376 161.117ZM138.236 155.287C137.579 155.287 137.105 155.469 136.812 155.832C136.519 156.195 136.368 156.773 136.361 157.566V157.783C136.361 158.686 136.511 159.332 136.812 159.723C137.113 160.109 137.595 160.303 138.259 160.303C138.814 160.303 139.247 160.078 139.56 159.629C139.876 159.18 140.034 158.561 140.034 157.771C140.034 156.971 139.876 156.357 139.56 155.932C139.247 155.502 138.806 155.287 138.236 155.287ZM143.78 161H142.807V154.578H143.78V161ZM142.725 152.838C142.725 152.615 142.78 152.453 142.889 152.352C142.999 152.246 143.135 152.193 143.3 152.193C143.456 152.193 143.591 152.246 143.704 152.352C143.817 152.457 143.874 152.619 143.874 152.838C143.874 153.057 143.817 153.221 143.704 153.33C143.591 153.436 143.456 153.488 143.3 153.488C143.135 153.488 142.999 153.436 142.889 153.33C142.78 153.221 142.725 153.057 142.725 152.838ZM148.832 154.461C149.117 154.461 149.373 154.484 149.6 154.531L149.465 155.434C149.199 155.375 148.965 155.346 148.762 155.346C148.242 155.346 147.797 155.557 147.426 155.979C147.059 156.4 146.875 156.926 146.875 157.555V161H145.902V154.578H146.705L146.817 155.768H146.863C147.102 155.35 147.389 155.027 147.725 154.801C148.061 154.574 148.43 154.461 148.832 154.461ZM154.81 161L154.617 160.086H154.57C154.25 160.488 153.929 160.762 153.609 160.906C153.293 161.047 152.896 161.117 152.42 161.117C151.783 161.117 151.283 160.953 150.92 160.625C150.56 160.297 150.38 159.83 150.38 159.225C150.38 157.928 151.418 157.248 153.492 157.186L154.582 157.15V156.752C154.582 156.248 154.472 155.877 154.254 155.639C154.039 155.396 153.693 155.275 153.216 155.275C152.681 155.275 152.076 155.439 151.4 155.768L151.101 155.023C151.418 154.852 151.763 154.717 152.138 154.619C152.517 154.521 152.896 154.473 153.275 154.473C154.041 154.473 154.607 154.643 154.974 154.982C155.345 155.322 155.531 155.867 155.531 156.617V161H154.81ZM152.613 160.314C153.218 160.314 153.693 160.148 154.037 159.816C154.384 159.484 154.558 159.02 154.558 158.422V157.842L153.586 157.883C152.812 157.91 152.254 158.031 151.91 158.246C151.57 158.457 151.4 158.787 151.4 159.236C151.4 159.588 151.505 159.855 151.716 160.039C151.931 160.223 152.23 160.314 152.613 160.314ZM159.675 160.314C159.847 160.314 160.013 160.303 160.173 160.279C160.333 160.252 160.46 160.225 160.554 160.197V160.941C160.448 160.992 160.292 161.033 160.085 161.064C159.882 161.1 159.698 161.117 159.534 161.117C158.292 161.117 157.671 160.463 157.671 159.154V155.334H156.751V154.865L157.671 154.461L158.081 153.09H158.644V154.578H160.507V155.334H158.644V159.113C158.644 159.5 158.735 159.797 158.919 160.004C159.103 160.211 159.355 160.314 159.675 160.314ZM162.875 161H161.903V154.578H162.875V161ZM161.821 152.838C161.821 152.615 161.875 152.453 161.985 152.352C162.094 152.246 162.231 152.193 162.395 152.193C162.551 152.193 162.686 152.246 162.799 152.352C162.913 152.457 162.969 152.619 162.969 152.838C162.969 153.057 162.913 153.221 162.799 153.33C162.686 153.436 162.551 153.488 162.395 153.488C162.231 153.488 162.094 153.436 161.985 153.33C161.875 153.221 161.821 153.057 161.821 152.838ZM170.541 157.783C170.541 158.83 170.277 159.648 169.75 160.238C169.223 160.824 168.494 161.117 167.564 161.117C166.99 161.117 166.48 160.982 166.035 160.713C165.59 160.443 165.246 160.057 165.004 159.553C164.762 159.049 164.641 158.459 164.641 157.783C164.641 156.736 164.902 155.922 165.426 155.34C165.949 154.754 166.676 154.461 167.605 154.461C168.504 154.461 169.217 154.76 169.744 155.357C170.275 155.955 170.541 156.764 170.541 157.783ZM165.648 157.783C165.648 158.604 165.812 159.229 166.141 159.658C166.469 160.088 166.951 160.303 167.588 160.303C168.225 160.303 168.707 160.09 169.035 159.664C169.367 159.234 169.533 158.607 169.533 157.783C169.533 156.967 169.367 156.348 169.035 155.926C168.707 155.5 168.221 155.287 167.576 155.287C166.939 155.287 166.459 155.496 166.135 155.914C165.81 156.332 165.648 156.955 165.648 157.783ZM176.706 161V156.846C176.706 156.322 176.587 155.932 176.349 155.674C176.111 155.416 175.738 155.287 175.23 155.287C174.558 155.287 174.066 155.469 173.753 155.832C173.441 156.195 173.285 156.795 173.285 157.631V161H172.312V154.578H173.103L173.261 155.457H173.308C173.507 155.141 173.786 154.896 174.146 154.725C174.505 154.549 174.906 154.461 175.347 154.461C176.12 154.461 176.702 154.648 177.093 155.023C177.484 155.395 177.679 155.99 177.679 156.811V161H176.706ZM183.886 159.248C183.886 159.846 183.663 160.307 183.218 160.631C182.772 160.955 182.147 161.117 181.343 161.117C180.491 161.117 179.827 160.982 179.35 160.713V159.811C179.659 159.967 179.989 160.09 180.341 160.18C180.696 160.27 181.038 160.314 181.366 160.314C181.874 160.314 182.264 160.234 182.538 160.074C182.811 159.91 182.948 159.662 182.948 159.33C182.948 159.08 182.839 158.867 182.62 158.691C182.405 158.512 181.983 158.301 181.354 158.059C180.757 157.836 180.331 157.643 180.077 157.479C179.827 157.311 179.639 157.121 179.514 156.91C179.393 156.699 179.333 156.447 179.333 156.154C179.333 155.631 179.546 155.219 179.971 154.918C180.397 154.613 180.981 154.461 181.723 154.461C182.415 154.461 183.091 154.602 183.751 154.883L183.405 155.674C182.761 155.408 182.177 155.275 181.653 155.275C181.192 155.275 180.845 155.348 180.61 155.492C180.376 155.637 180.259 155.836 180.259 156.09C180.259 156.262 180.302 156.408 180.387 156.529C180.477 156.65 180.62 156.766 180.815 156.875C181.011 156.984 181.386 157.143 181.94 157.35C182.702 157.627 183.216 157.906 183.481 158.188C183.751 158.469 183.886 158.822 183.886 159.248Z" fill="#57547D"/>
<circle cx="57.5" cy="156.5" r="2.5" fill="#57547D"/>
<path d="M73.9531 182H69.1777V173.434H73.9531V174.318H70.1738V177.078H73.7246V177.957H70.1738V181.109H73.9531V182ZM77.1772 182L74.7397 175.578H75.7827L77.1655 179.387C77.478 180.277 77.6616 180.855 77.7162 181.121H77.7631C77.8061 180.914 77.9409 180.486 78.1674 179.838C78.3979 179.186 78.9116 177.766 79.7084 175.578H80.7514L78.3139 182H77.1772ZM84.5555 182.117C83.6063 182.117 82.8563 181.828 82.3055 181.25C81.7587 180.672 81.4852 179.869 81.4852 178.842C81.4852 177.807 81.7391 176.984 82.247 176.375C82.7587 175.766 83.4442 175.461 84.3036 175.461C85.1083 175.461 85.745 175.727 86.2137 176.258C86.6825 176.785 86.9169 177.482 86.9169 178.35V178.965H82.493C82.5126 179.719 82.702 180.291 83.0614 180.682C83.4247 181.072 83.9345 181.268 84.5907 181.268C85.2821 181.268 85.9657 181.123 86.6415 180.834V181.701C86.2977 181.85 85.9716 181.955 85.663 182.018C85.3583 182.084 84.9891 182.117 84.5555 182.117ZM84.2919 176.275C83.7762 176.275 83.3641 176.443 83.0555 176.779C82.7509 177.115 82.5712 177.58 82.5165 178.174H85.8739C85.8739 177.561 85.7372 177.092 85.4637 176.768C85.1903 176.439 84.7997 176.275 84.2919 176.275ZM91.5706 175.461C91.8558 175.461 92.1116 175.484 92.3382 175.531L92.2034 176.434C91.9378 176.375 91.7034 176.346 91.5003 176.346C90.9808 176.346 90.5355 176.557 90.1644 176.979C89.7972 177.4 89.6136 177.926 89.6136 178.555V182H88.6409V175.578H89.4437L89.555 176.768H89.6019C89.8402 176.35 90.1273 176.027 90.4632 175.801C90.7991 175.574 91.1683 175.461 91.5706 175.461ZM92.5798 175.578H93.6228L95.0291 179.24C95.3377 180.076 95.5291 180.68 95.6033 181.051H95.6502C95.7009 180.852 95.8064 180.512 95.9666 180.031C96.1306 179.547 96.6619 178.062 97.5603 175.578H98.6033L95.8435 182.891C95.5701 183.613 95.2498 184.125 94.8826 184.426C94.5193 184.73 94.072 184.883 93.5408 184.883C93.2439 184.883 92.9509 184.85 92.6619 184.783V184.004C92.8767 184.051 93.117 184.074 93.3826 184.074C94.0505 184.074 94.5271 183.699 94.8123 182.949L95.1697 182.035L92.5798 175.578ZM102.695 175.473C103.538 175.473 104.193 175.762 104.657 176.34C105.126 176.914 105.361 177.729 105.361 178.783C105.361 179.838 105.124 180.658 104.652 181.244C104.183 181.826 103.53 182.117 102.695 182.117C102.277 182.117 101.894 182.041 101.546 181.889C101.202 181.732 100.913 181.494 100.679 181.174H100.609L100.404 182H99.7062V172.883H100.679V175.098C100.679 175.594 100.663 176.039 100.632 176.434H100.679C101.132 175.793 101.804 175.473 102.695 175.473ZM102.554 176.287C101.89 176.287 101.411 176.479 101.118 176.861C100.825 177.24 100.679 177.881 100.679 178.783C100.679 179.686 100.829 180.332 101.13 180.723C101.431 181.109 101.913 181.303 102.577 181.303C103.175 181.303 103.62 181.086 103.913 180.652C104.206 180.215 104.353 179.588 104.353 178.771C104.353 177.936 104.206 177.312 103.913 176.902C103.62 176.492 103.167 176.287 102.554 176.287ZM112.669 178.783C112.669 179.83 112.405 180.648 111.878 181.238C111.35 181.824 110.622 182.117 109.692 182.117C109.118 182.117 108.608 181.982 108.163 181.713C107.717 181.443 107.374 181.057 107.131 180.553C106.889 180.049 106.768 179.459 106.768 178.783C106.768 177.736 107.03 176.922 107.553 176.34C108.077 175.754 108.803 175.461 109.733 175.461C110.631 175.461 111.344 175.76 111.872 176.357C112.403 176.955 112.669 177.764 112.669 178.783ZM107.776 178.783C107.776 179.604 107.94 180.229 108.268 180.658C108.596 181.088 109.079 181.303 109.715 181.303C110.352 181.303 110.835 181.09 111.163 180.664C111.495 180.234 111.661 179.607 111.661 178.783C111.661 177.967 111.495 177.348 111.163 176.926C110.835 176.5 110.348 176.287 109.704 176.287C109.067 176.287 108.587 176.496 108.262 176.914C107.938 177.332 107.776 177.955 107.776 178.783ZM118.811 181.139H118.758C118.309 181.791 117.637 182.117 116.742 182.117C115.902 182.117 115.248 181.83 114.779 181.256C114.315 180.682 114.082 179.865 114.082 178.807C114.082 177.748 114.316 176.926 114.785 176.34C115.254 175.754 115.906 175.461 116.742 175.461C117.613 175.461 118.281 175.777 118.746 176.41H118.822L118.781 175.947L118.758 175.496V172.883H119.731V182H118.94L118.811 181.139ZM116.865 181.303C117.529 181.303 118.01 181.123 118.307 180.764C118.607 180.4 118.758 179.816 118.758 179.012V178.807C118.758 177.896 118.606 177.248 118.301 176.861C118 176.471 117.518 176.275 116.854 176.275C116.283 176.275 115.846 176.498 115.541 176.943C115.24 177.385 115.09 178.01 115.09 178.818C115.09 179.639 115.24 180.258 115.541 180.676C115.842 181.094 116.283 181.303 116.865 181.303ZM120.839 175.578H121.882L123.289 179.24C123.597 180.076 123.789 180.68 123.863 181.051H123.91C123.96 180.852 124.066 180.512 124.226 180.031C124.39 179.547 124.921 178.062 125.82 175.578H126.863L124.103 182.891C123.83 183.613 123.509 184.125 123.142 184.426C122.779 184.73 122.332 184.883 121.8 184.883C121.503 184.883 121.21 184.85 120.921 184.783V184.004C121.136 184.051 121.376 184.074 121.642 184.074C122.31 184.074 122.787 183.699 123.072 182.949L123.429 182.035L120.839 175.578ZM139.329 182V177.822C139.329 177.311 139.219 176.928 139 176.674C138.782 176.416 138.442 176.287 137.981 176.287C137.375 176.287 136.928 176.461 136.639 176.809C136.35 177.156 136.205 177.691 136.205 178.414V182H135.233V177.822C135.233 177.311 135.123 176.928 134.905 176.674C134.686 176.416 134.344 176.287 133.879 176.287C133.27 176.287 132.823 176.471 132.537 176.838C132.256 177.201 132.116 177.799 132.116 178.631V182H131.143V175.578H131.934L132.092 176.457H132.139C132.323 176.145 132.58 175.9 132.912 175.725C133.248 175.549 133.623 175.461 134.037 175.461C135.041 175.461 135.698 175.824 136.006 176.551H136.053C136.245 176.215 136.522 175.949 136.885 175.754C137.248 175.559 137.662 175.461 138.127 175.461C138.854 175.461 139.397 175.648 139.756 176.023C140.12 176.395 140.301 176.99 140.301 177.811V182H139.329ZM146.32 182L146.127 181.086H146.08C145.76 181.488 145.439 181.762 145.119 181.906C144.803 182.047 144.406 182.117 143.93 182.117C143.293 182.117 142.793 181.953 142.43 181.625C142.07 181.297 141.89 180.83 141.89 180.225C141.89 178.928 142.928 178.248 145.002 178.186L146.092 178.15V177.752C146.092 177.248 145.982 176.877 145.764 176.639C145.549 176.396 145.203 176.275 144.726 176.275C144.191 176.275 143.586 176.439 142.91 176.768L142.611 176.023C142.928 175.852 143.273 175.717 143.648 175.619C144.027 175.521 144.406 175.473 144.785 175.473C145.551 175.473 146.117 175.643 146.484 175.982C146.855 176.322 147.041 176.867 147.041 177.617V182H146.32ZM144.123 181.314C144.728 181.314 145.203 181.148 145.547 180.816C145.894 180.484 146.068 180.02 146.068 179.422V178.842L145.096 178.883C144.322 178.91 143.764 179.031 143.42 179.246C143.08 179.457 142.91 179.787 142.91 180.236C142.91 180.588 143.015 180.855 143.226 181.039C143.441 181.223 143.74 181.314 144.123 181.314ZM150.072 178.713C150.24 178.475 150.495 178.162 150.839 177.775L152.913 175.578H154.068L151.466 178.314L154.249 182H153.072L150.804 178.965L150.072 179.598V182H149.111V172.883H150.072V177.717C150.072 177.932 150.056 178.264 150.025 178.713H150.072ZM158.188 182.117C157.239 182.117 156.489 181.828 155.938 181.25C155.391 180.672 155.118 179.869 155.118 178.842C155.118 177.807 155.372 176.984 155.88 176.375C156.391 175.766 157.077 175.461 157.936 175.461C158.741 175.461 159.378 175.727 159.846 176.258C160.315 176.785 160.55 177.482 160.55 178.35V178.965H156.126C156.145 179.719 156.335 180.291 156.694 180.682C157.057 181.072 157.567 181.268 158.223 181.268C158.915 181.268 159.598 181.123 160.274 180.834V181.701C159.93 181.85 159.604 181.955 159.296 182.018C158.991 182.084 158.622 182.117 158.188 182.117ZM157.925 176.275C157.409 176.275 156.997 176.443 156.688 176.779C156.384 177.115 156.204 177.58 156.149 178.174H159.507C159.507 177.561 159.37 177.092 159.096 176.768C158.823 176.439 158.432 176.275 157.925 176.275ZM169.593 180.248C169.593 180.846 169.371 181.307 168.925 181.631C168.48 181.955 167.855 182.117 167.05 182.117C166.199 182.117 165.535 181.982 165.058 181.713V180.811C165.367 180.967 165.697 181.09 166.048 181.18C166.404 181.27 166.746 181.314 167.074 181.314C167.582 181.314 167.972 181.234 168.246 181.074C168.519 180.91 168.656 180.662 168.656 180.33C168.656 180.08 168.546 179.867 168.328 179.691C168.113 179.512 167.691 179.301 167.062 179.059C166.464 178.836 166.039 178.643 165.785 178.479C165.535 178.311 165.347 178.121 165.222 177.91C165.101 177.699 165.041 177.447 165.041 177.154C165.041 176.631 165.254 176.219 165.679 175.918C166.105 175.613 166.689 175.461 167.431 175.461C168.123 175.461 168.798 175.602 169.459 175.883L169.113 176.674C168.468 176.408 167.884 176.275 167.361 176.275C166.9 176.275 166.552 176.348 166.318 176.492C166.084 176.637 165.966 176.836 165.966 177.09C165.966 177.262 166.009 177.408 166.095 177.529C166.185 177.65 166.328 177.766 166.523 177.875C166.718 177.984 167.093 178.143 167.648 178.35C168.41 178.627 168.923 178.906 169.189 179.188C169.459 179.469 169.593 179.822 169.593 180.248ZM172.202 178.713C172.37 178.475 172.626 178.162 172.97 177.775L175.044 175.578H176.198L173.597 178.314L176.38 182H175.202L172.935 178.965L172.202 179.598V182H171.241V172.883H172.202V177.717C172.202 177.932 172.187 178.264 172.155 178.713H172.202ZM180.319 182.117C179.37 182.117 178.62 181.828 178.069 181.25C177.522 180.672 177.249 179.869 177.249 178.842C177.249 177.807 177.502 176.984 178.01 176.375C178.522 175.766 179.207 175.461 180.067 175.461C180.872 175.461 181.508 175.727 181.977 176.258C182.446 176.785 182.68 177.482 182.68 178.35V178.965H178.256C178.276 179.719 178.465 180.291 178.825 180.682C179.188 181.072 179.698 181.268 180.354 181.268C181.045 181.268 181.729 181.123 182.405 180.834V181.701C182.061 181.85 181.735 181.955 181.426 182.018C181.122 182.084 180.752 182.117 180.319 182.117ZM180.055 176.275C179.54 176.275 179.127 176.443 178.819 176.779C178.514 177.115 178.334 177.58 178.28 178.174H181.637C181.637 177.561 181.5 177.092 181.227 176.768C180.954 176.439 180.563 176.275 180.055 176.275ZM186.478 181.314C186.65 181.314 186.816 181.303 186.976 181.279C187.137 181.252 187.264 181.225 187.357 181.197V181.941C187.252 181.992 187.096 182.033 186.889 182.064C186.685 182.1 186.502 182.117 186.338 182.117C185.096 182.117 184.475 181.463 184.475 180.154V176.334H183.555V175.865L184.475 175.461L184.885 174.09H185.447V175.578H187.31V176.334H185.447V180.113C185.447 180.5 185.539 180.797 185.723 181.004C185.906 181.211 186.158 181.314 186.478 181.314ZM191.273 182.117C190.343 182.117 189.622 181.832 189.111 181.262C188.603 180.688 188.349 179.877 188.349 178.83C188.349 177.756 188.607 176.926 189.122 176.34C189.642 175.754 190.38 175.461 191.337 175.461C191.646 175.461 191.954 175.494 192.263 175.561C192.572 175.627 192.814 175.705 192.99 175.795L192.691 176.621C192.476 176.535 192.242 176.465 191.988 176.41C191.734 176.352 191.509 176.322 191.314 176.322C190.009 176.322 189.357 177.154 189.357 178.818C189.357 179.607 189.515 180.213 189.831 180.635C190.152 181.057 190.624 181.268 191.249 181.268C191.785 181.268 192.333 181.152 192.896 180.922V181.783C192.466 182.006 191.925 182.117 191.273 182.117ZM198.88 182V177.846C198.88 177.322 198.761 176.932 198.522 176.674C198.284 176.416 197.911 176.287 197.403 176.287C196.727 176.287 196.233 176.471 195.921 176.838C195.612 177.205 195.458 177.807 195.458 178.643V182H194.485V172.883H195.458V175.643C195.458 175.975 195.442 176.25 195.411 176.469H195.47C195.661 176.16 195.932 175.918 196.284 175.742C196.639 175.562 197.044 175.473 197.497 175.473C198.282 175.473 198.87 175.66 199.261 176.035C199.655 176.406 199.852 176.998 199.852 177.811V182H198.88ZM207.988 176.334H206.353V182H205.381V176.334H204.232V175.895L205.381 175.543V175.186C205.381 173.607 206.07 172.818 207.449 172.818C207.789 172.818 208.187 172.887 208.644 173.023L208.392 173.803C208.017 173.682 207.697 173.621 207.431 173.621C207.064 173.621 206.793 173.744 206.617 173.99C206.441 174.232 206.353 174.623 206.353 175.162V175.578H207.988V176.334ZM212.15 175.461C212.435 175.461 212.691 175.484 212.917 175.531L212.782 176.434C212.517 176.375 212.282 176.346 212.079 176.346C211.56 176.346 211.114 176.557 210.743 176.979C210.376 177.4 210.193 177.926 210.193 178.555V182H209.22V175.578H210.023L210.134 176.768H210.181C210.419 176.35 210.706 176.027 211.042 175.801C211.378 175.574 211.747 175.461 212.15 175.461ZM219.721 178.783C219.721 179.83 219.458 180.648 218.93 181.238C218.403 181.824 217.674 182.117 216.745 182.117C216.17 182.117 215.661 181.982 215.215 181.713C214.77 181.443 214.426 181.057 214.184 180.553C213.942 180.049 213.821 179.459 213.821 178.783C213.821 177.736 214.083 176.922 214.606 176.34C215.129 175.754 215.856 175.461 216.786 175.461C217.684 175.461 218.397 175.76 218.924 176.357C219.456 176.955 219.721 177.764 219.721 178.783ZM214.829 178.783C214.829 179.604 214.993 180.229 215.321 180.658C215.649 181.088 216.131 181.303 216.768 181.303C217.405 181.303 217.887 181.09 218.215 180.664C218.547 180.234 218.713 179.607 218.713 178.783C218.713 177.967 218.547 177.348 218.215 176.926C217.887 176.5 217.401 176.287 216.756 176.287C216.12 176.287 215.639 176.496 215.315 176.914C214.991 177.332 214.829 177.955 214.829 178.783ZM229.678 182V177.822C229.678 177.311 229.568 176.928 229.35 176.674C229.131 176.416 228.791 176.287 228.33 176.287C227.725 176.287 227.277 176.461 226.988 176.809C226.699 177.156 226.555 177.691 226.555 178.414V182H225.582V177.822C225.582 177.311 225.473 176.928 225.254 176.674C225.035 176.416 224.693 176.287 224.229 176.287C223.619 176.287 223.172 176.471 222.887 176.838C222.605 177.201 222.465 177.799 222.465 178.631V182H221.492V175.578H222.283L222.441 176.457H222.488C222.672 176.145 222.93 175.9 223.262 175.725C223.598 175.549 223.973 175.461 224.387 175.461C225.391 175.461 226.047 175.824 226.355 176.551H226.402C226.594 176.215 226.871 175.949 227.234 175.754C227.598 175.559 228.012 175.461 228.477 175.461C229.203 175.461 229.746 175.648 230.105 176.023C230.469 176.395 230.65 176.99 230.65 177.811V182H229.678ZM237.972 181.314C238.143 181.314 238.309 181.303 238.47 181.279C238.63 181.252 238.757 181.225 238.85 181.197V181.941C238.745 181.992 238.589 182.033 238.382 182.064C238.179 182.1 237.995 182.117 237.831 182.117C236.589 182.117 235.968 181.463 235.968 180.154V176.334H235.048V175.865L235.968 175.461L236.378 174.09H236.94V175.578H238.804V176.334H236.94V180.113C236.94 180.5 237.032 180.797 237.216 181.004C237.399 181.211 237.651 181.314 237.972 181.314ZM244.594 182V177.846C244.594 177.322 244.475 176.932 244.237 176.674C243.998 176.416 243.625 176.287 243.117 176.287C242.442 176.287 241.948 176.471 241.635 176.838C241.326 177.205 241.172 177.807 241.172 178.643V182H240.2V172.883H241.172V175.643C241.172 175.975 241.157 176.25 241.125 176.469H241.184C241.375 176.16 241.647 175.918 241.998 175.742C242.354 175.562 242.758 175.473 243.211 175.473C243.996 175.473 244.584 175.66 244.975 176.035C245.369 176.406 245.567 176.998 245.567 177.811V182H244.594ZM250.344 182.117C249.394 182.117 248.644 181.828 248.094 181.25C247.547 180.672 247.273 179.869 247.273 178.842C247.273 177.807 247.527 176.984 248.035 176.375C248.547 175.766 249.232 175.461 250.092 175.461C250.896 175.461 251.533 175.727 252.002 176.258C252.47 176.785 252.705 177.482 252.705 178.35V178.965H248.281C248.301 179.719 248.49 180.291 248.849 180.682C249.213 181.072 249.722 181.268 250.379 181.268C251.07 181.268 251.754 181.123 252.429 180.834V181.701C252.086 181.85 251.76 181.955 251.451 182.018C251.146 182.084 250.777 182.117 250.344 182.117ZM250.08 176.275C249.564 176.275 249.152 176.443 248.844 176.779C248.539 177.115 248.359 177.58 248.304 178.174H251.662C251.662 177.561 251.525 177.092 251.252 176.768C250.978 176.439 250.588 176.275 250.08 176.275ZM255.402 182H254.429V175.578H255.402V182ZM254.347 173.838C254.347 173.615 254.402 173.453 254.511 173.352C254.62 173.246 254.757 173.193 254.921 173.193C255.077 173.193 255.212 173.246 255.325 173.352C255.439 173.457 255.495 173.619 255.495 173.838C255.495 174.057 255.439 174.221 255.325 174.33C255.212 174.436 255.077 174.488 254.921 174.488C254.757 174.488 254.62 174.436 254.511 174.33C254.402 174.221 254.347 174.057 254.347 173.838ZM260.454 175.461C260.739 175.461 260.995 175.484 261.221 175.531L261.087 176.434C260.821 176.375 260.587 176.346 260.383 176.346C259.864 176.346 259.419 176.557 259.048 176.979C258.68 177.4 258.497 177.926 258.497 178.555V182H257.524V175.578H258.327L258.438 176.768H258.485C258.723 176.35 259.01 176.027 259.346 175.801C259.682 175.574 260.051 175.461 260.454 175.461ZM74.5742 194.783C74.5742 195.83 74.3105 196.648 73.7832 197.238C73.2559 197.824 72.5273 198.117 71.5977 198.117C71.0234 198.117 70.5137 197.982 70.0684 197.713C69.623 197.443 69.2793 197.057 69.0371 196.553C68.7949 196.049 68.6738 195.459 68.6738 194.783C68.6738 193.736 68.9355 192.922 69.459 192.34C69.9824 191.754 70.709 191.461 71.6387 191.461C72.5371 191.461 73.25 191.76 73.7773 192.357C74.3086 192.955 74.5742 193.764 74.5742 194.783ZM69.6816 194.783C69.6816 195.604 69.8457 196.229 70.1738 196.658C70.502 197.088 70.9844 197.303 71.6211 197.303C72.2578 197.303 72.7402 197.09 73.0684 196.664C73.4004 196.234 73.5664 195.607 73.5664 194.783C73.5664 193.967 73.4004 193.348 73.0684 192.926C72.7402 192.5 72.2539 192.287 71.6094 192.287C70.9727 192.287 70.4922 192.496 70.168 192.914C69.8438 193.332 69.6816 193.955 69.6816 194.783ZM81.5893 198L80.4116 194.232C80.3373 194.002 80.1987 193.479 79.9955 192.662H79.9487C79.7924 193.346 79.6557 193.873 79.5385 194.244L78.3256 198H77.2006L75.4487 191.578H76.4682C76.8823 193.191 77.1967 194.42 77.4116 195.264C77.6303 196.107 77.7553 196.676 77.7866 196.969H77.8334C77.8764 196.746 77.9448 196.459 78.0385 196.107C78.1362 195.752 78.2202 195.471 78.2905 195.264L79.4682 191.578H80.5229L81.6713 195.264C81.8901 195.936 82.0385 196.5 82.1166 196.957H82.1635C82.1791 196.816 82.2202 196.6 82.2866 196.307C82.3569 196.014 82.7651 194.438 83.5112 191.578H84.519L82.7436 198H81.5893ZM90.1395 198V193.846C90.1395 193.322 90.0204 192.932 89.7821 192.674C89.5438 192.416 89.1708 192.287 88.663 192.287C87.9911 192.287 87.4989 192.469 87.1864 192.832C86.8739 193.195 86.7177 193.795 86.7177 194.631V198H85.745V191.578H86.536L86.6942 192.457H86.7411C86.9403 192.141 87.2196 191.896 87.579 191.725C87.9384 191.549 88.3388 191.461 88.7802 191.461C89.5536 191.461 90.1356 191.648 90.5263 192.023C90.9169 192.395 91.1122 192.99 91.1122 193.811V198H90.1395ZM100.496 196.248C100.496 196.846 100.273 197.307 99.8279 197.631C99.3826 197.955 98.7576 198.117 97.9529 198.117C97.1013 198.117 96.4373 197.982 95.9607 197.713V196.811C96.2693 196.967 96.5994 197.09 96.9509 197.18C97.3064 197.27 97.6482 197.314 97.9763 197.314C98.4841 197.314 98.8748 197.234 99.1482 197.074C99.4216 196.91 99.5584 196.662 99.5584 196.33C99.5584 196.08 99.449 195.867 99.2302 195.691C99.0154 195.512 98.5935 195.301 97.9646 195.059C97.367 194.836 96.9412 194.643 96.6873 194.479C96.4373 194.311 96.2498 194.121 96.1248 193.91C96.0037 193.699 95.9431 193.447 95.9431 193.154C95.9431 192.631 96.156 192.219 96.5818 191.918C97.0076 191.613 97.5916 191.461 98.3337 191.461C99.0252 191.461 99.7009 191.602 100.361 191.883L100.015 192.674C99.3709 192.408 98.7869 192.275 98.2634 192.275C97.8025 192.275 97.4548 192.348 97.2205 192.492C96.9861 192.637 96.8689 192.836 96.8689 193.09C96.8689 193.262 96.9119 193.408 96.9978 193.529C97.0877 193.65 97.2302 193.766 97.4255 193.875C97.6209 193.984 97.9959 194.143 98.5505 194.35C99.3123 194.627 99.8259 194.906 100.092 195.188C100.361 195.469 100.496 195.822 100.496 196.248ZM107.687 194.783C107.687 195.83 107.423 196.648 106.896 197.238C106.368 197.824 105.64 198.117 104.71 198.117C104.136 198.117 103.626 197.982 103.181 197.713C102.736 197.443 102.392 197.057 102.15 196.553C101.907 196.049 101.786 195.459 101.786 194.783C101.786 193.736 102.048 192.922 102.571 192.34C103.095 191.754 103.821 191.461 104.751 191.461C105.65 191.461 106.362 191.76 106.89 192.357C107.421 192.955 107.687 193.764 107.687 194.783ZM102.794 194.783C102.794 195.604 102.958 196.229 103.286 196.658C103.614 197.088 104.097 197.303 104.734 197.303C105.37 197.303 105.853 197.09 106.181 196.664C106.513 196.234 106.679 195.607 106.679 194.783C106.679 193.967 106.513 193.348 106.181 192.926C105.853 192.5 105.366 192.287 104.722 192.287C104.085 192.287 103.605 192.496 103.28 192.914C102.956 193.332 102.794 193.955 102.794 194.783ZM110.43 198H109.458V188.883H110.43V198ZM113.467 191.578V195.744C113.467 196.268 113.586 196.658 113.824 196.916C114.063 197.174 114.436 197.303 114.943 197.303C115.615 197.303 116.106 197.119 116.414 196.752C116.727 196.385 116.883 195.785 116.883 194.953V191.578H117.856V198H117.053L116.912 197.139H116.859C116.66 197.455 116.383 197.697 116.027 197.865C115.676 198.033 115.274 198.117 114.82 198.117C114.039 198.117 113.453 197.932 113.063 197.561C112.676 197.189 112.482 196.596 112.482 195.779V191.578H113.467ZM122.058 197.314C122.23 197.314 122.396 197.303 122.556 197.279C122.716 197.252 122.843 197.225 122.937 197.197V197.941C122.832 197.992 122.675 198.033 122.468 198.064C122.265 198.1 122.082 198.117 121.917 198.117C120.675 198.117 120.054 197.463 120.054 196.154V192.334H119.134V191.865L120.054 191.461L120.464 190.09H121.027V191.578H122.89V192.334H121.027V196.113C121.027 196.5 121.119 196.797 121.302 197.004C121.486 197.211 121.738 197.314 122.058 197.314ZM125.259 198H124.286V191.578H125.259V198ZM124.204 189.838C124.204 189.615 124.259 189.453 124.368 189.352C124.478 189.246 124.614 189.193 124.778 189.193C124.935 189.193 125.069 189.246 125.183 189.352C125.296 189.457 125.353 189.619 125.353 189.838C125.353 190.057 125.296 190.221 125.183 190.33C125.069 190.436 124.935 190.488 124.778 190.488C124.614 190.488 124.478 190.436 124.368 190.33C124.259 190.221 124.204 190.057 124.204 189.838ZM132.924 194.783C132.924 195.83 132.661 196.648 132.133 197.238C131.606 197.824 130.877 198.117 129.948 198.117C129.373 198.117 128.864 197.982 128.418 197.713C127.973 197.443 127.629 197.057 127.387 196.553C127.145 196.049 127.024 195.459 127.024 194.783C127.024 193.736 127.286 192.922 127.809 192.34C128.332 191.754 129.059 191.461 129.989 191.461C130.887 191.461 131.6 191.76 132.127 192.357C132.659 192.955 132.924 193.764 132.924 194.783ZM128.032 194.783C128.032 195.604 128.196 196.229 128.524 196.658C128.852 197.088 129.334 197.303 129.971 197.303C130.608 197.303 131.09 197.09 131.418 196.664C131.75 196.234 131.916 195.607 131.916 194.783C131.916 193.967 131.75 193.348 131.418 192.926C131.09 192.5 130.604 192.287 129.959 192.287C129.323 192.287 128.842 192.496 128.518 192.914C128.194 193.332 128.032 193.955 128.032 194.783ZM139.09 198V193.846C139.09 193.322 138.971 192.932 138.732 192.674C138.494 192.416 138.121 192.287 137.613 192.287C136.941 192.287 136.449 192.469 136.137 192.832C135.824 193.195 135.668 193.795 135.668 194.631V198H134.695V191.578H135.486L135.644 192.457H135.691C135.89 192.141 136.17 191.896 136.529 191.725C136.889 191.549 137.289 191.461 137.73 191.461C138.504 191.461 139.086 191.648 139.476 192.023C139.867 192.395 140.062 192.99 140.062 193.811V198H139.09Z" fill="#57547D"/>
<circle cx="57.5" cy="177.5" r="2.5" fill="#57547D"/>
<path d="M263.602 117.426H263.566C263.267 117.861 262.819 118.078 262.223 118.078C261.663 118.078 261.227 117.887 260.914 117.504C260.604 117.121 260.449 116.577 260.449 115.871C260.449 115.165 260.605 114.617 260.918 114.227C261.23 113.836 261.665 113.641 262.223 113.641C262.803 113.641 263.249 113.852 263.559 114.273H263.609L263.582 113.965L263.566 113.664V111.922H264.215V118H263.688L263.602 117.426ZM262.305 117.535C262.747 117.535 263.068 117.415 263.266 117.176C263.466 116.934 263.566 116.544 263.566 116.008V115.871C263.566 115.264 263.465 114.832 263.262 114.574C263.061 114.314 262.74 114.184 262.297 114.184C261.917 114.184 261.625 114.332 261.422 114.629C261.221 114.923 261.121 115.34 261.121 115.879C261.121 116.426 261.221 116.839 261.422 117.117C261.622 117.396 261.917 117.535 262.305 117.535ZM267.402 118.078C266.77 118.078 266.27 117.885 265.902 117.5C265.538 117.115 265.355 116.579 265.355 115.895C265.355 115.204 265.525 114.656 265.863 114.25C266.204 113.844 266.661 113.641 267.234 113.641C267.771 113.641 268.195 113.818 268.508 114.172C268.82 114.523 268.977 114.988 268.977 115.566V115.977H266.027C266.04 116.479 266.167 116.861 266.406 117.121C266.648 117.382 266.988 117.512 267.426 117.512C267.887 117.512 268.342 117.415 268.793 117.223V117.801C268.564 117.9 268.346 117.97 268.141 118.012C267.938 118.056 267.691 118.078 267.402 118.078ZM267.227 114.184C266.883 114.184 266.608 114.296 266.402 114.52C266.199 114.743 266.079 115.053 266.043 115.449H268.281C268.281 115.04 268.19 114.728 268.008 114.512C267.826 114.293 267.565 114.184 267.227 114.184ZM272.848 116.832C272.848 117.23 272.699 117.538 272.402 117.754C272.105 117.97 271.689 118.078 271.152 118.078C270.585 118.078 270.142 117.988 269.824 117.809V117.207C270.03 117.311 270.25 117.393 270.484 117.453C270.721 117.513 270.949 117.543 271.168 117.543C271.507 117.543 271.767 117.49 271.949 117.383C272.132 117.273 272.223 117.108 272.223 116.887C272.223 116.72 272.15 116.578 272.004 116.461C271.861 116.341 271.579 116.201 271.16 116.039C270.762 115.891 270.478 115.762 270.309 115.652C270.142 115.54 270.017 115.414 269.934 115.273C269.853 115.133 269.812 114.965 269.812 114.77C269.812 114.421 269.954 114.146 270.238 113.945C270.522 113.742 270.911 113.641 271.406 113.641C271.867 113.641 272.318 113.734 272.758 113.922L272.527 114.449C272.098 114.272 271.708 114.184 271.359 114.184C271.052 114.184 270.82 114.232 270.664 114.328C270.508 114.424 270.43 114.557 270.43 114.727C270.43 114.841 270.458 114.939 270.516 115.02C270.576 115.1 270.671 115.177 270.801 115.25C270.931 115.323 271.181 115.428 271.551 115.566C272.059 115.751 272.401 115.938 272.578 116.125C272.758 116.312 272.848 116.548 272.848 116.832ZM274.555 118H273.906V113.719H274.555V118ZM273.852 112.559C273.852 112.41 273.888 112.302 273.961 112.234C274.034 112.164 274.125 112.129 274.234 112.129C274.339 112.129 274.428 112.164 274.504 112.234C274.579 112.305 274.617 112.413 274.617 112.559C274.617 112.704 274.579 112.814 274.504 112.887C274.428 112.957 274.339 112.992 274.234 112.992C274.125 112.992 274.034 112.957 273.961 112.887C273.888 112.814 273.852 112.704 273.852 112.559ZM279.434 113.719V114.129L278.641 114.223C278.714 114.314 278.779 114.434 278.836 114.582C278.893 114.728 278.922 114.893 278.922 115.078C278.922 115.497 278.779 115.832 278.492 116.082C278.206 116.332 277.812 116.457 277.312 116.457C277.185 116.457 277.065 116.447 276.953 116.426C276.677 116.572 276.539 116.755 276.539 116.977C276.539 117.094 276.587 117.181 276.684 117.238C276.78 117.293 276.945 117.32 277.18 117.32H277.938C278.401 117.32 278.757 117.418 279.004 117.613C279.254 117.809 279.379 118.092 279.379 118.465C279.379 118.939 279.189 119.299 278.809 119.547C278.428 119.797 277.874 119.922 277.145 119.922C276.585 119.922 276.152 119.818 275.848 119.609C275.546 119.401 275.395 119.107 275.395 118.727C275.395 118.466 275.478 118.241 275.645 118.051C275.811 117.861 276.046 117.732 276.348 117.664C276.238 117.615 276.146 117.538 276.07 117.434C275.997 117.329 275.961 117.208 275.961 117.07C275.961 116.914 276.003 116.777 276.086 116.66C276.169 116.543 276.301 116.43 276.48 116.32C276.259 116.229 276.078 116.074 275.938 115.855C275.799 115.637 275.73 115.387 275.73 115.105C275.73 114.637 275.871 114.276 276.152 114.023C276.434 113.768 276.832 113.641 277.348 113.641C277.572 113.641 277.773 113.667 277.953 113.719H279.434ZM276.02 118.719C276.02 118.951 276.117 119.126 276.312 119.246C276.508 119.366 276.788 119.426 277.152 119.426C277.697 119.426 278.099 119.344 278.359 119.18C278.622 119.018 278.754 118.798 278.754 118.52C278.754 118.288 278.682 118.126 278.539 118.035C278.396 117.947 278.126 117.902 277.73 117.902H276.953C276.659 117.902 276.43 117.973 276.266 118.113C276.102 118.254 276.02 118.456 276.02 118.719ZM276.371 115.09C276.371 115.389 276.456 115.616 276.625 115.77C276.794 115.923 277.03 116 277.332 116C277.965 116 278.281 115.693 278.281 115.078C278.281 114.435 277.961 114.113 277.32 114.113C277.016 114.113 276.781 114.195 276.617 114.359C276.453 114.523 276.371 114.767 276.371 115.09ZM283.242 118V115.23C283.242 114.882 283.163 114.621 283.004 114.449C282.845 114.277 282.596 114.191 282.258 114.191C281.81 114.191 281.482 114.312 281.273 114.555C281.065 114.797 280.961 115.197 280.961 115.754V118H280.312V113.719H280.84L280.945 114.305H280.977C281.109 114.094 281.296 113.931 281.535 113.816C281.775 113.699 282.042 113.641 282.336 113.641C282.852 113.641 283.24 113.766 283.5 114.016C283.76 114.263 283.891 114.66 283.891 115.207V118H283.242ZM290.066 116.832C290.066 117.23 289.918 117.538 289.621 117.754C289.324 117.97 288.908 118.078 288.371 118.078C287.803 118.078 287.361 117.988 287.043 117.809V117.207C287.249 117.311 287.469 117.393 287.703 117.453C287.94 117.513 288.168 117.543 288.387 117.543C288.725 117.543 288.986 117.49 289.168 117.383C289.35 117.273 289.441 117.108 289.441 116.887C289.441 116.72 289.368 116.578 289.223 116.461C289.079 116.341 288.798 116.201 288.379 116.039C287.98 115.891 287.697 115.762 287.527 115.652C287.361 115.54 287.236 115.414 287.152 115.273C287.072 115.133 287.031 114.965 287.031 114.77C287.031 114.421 287.173 114.146 287.457 113.945C287.741 113.742 288.13 113.641 288.625 113.641C289.086 113.641 289.536 113.734 289.977 113.922L289.746 114.449C289.316 114.272 288.927 114.184 288.578 114.184C288.271 114.184 288.039 114.232 287.883 114.328C287.727 114.424 287.648 114.557 287.648 114.727C287.648 114.841 287.677 114.939 287.734 115.02C287.794 115.1 287.889 115.177 288.02 115.25C288.15 115.323 288.4 115.428 288.77 115.566C289.277 115.751 289.62 115.938 289.797 116.125C289.977 116.312 290.066 116.548 290.066 116.832ZM293.117 118.078C292.839 118.078 292.583 118.027 292.352 117.926C292.122 117.822 291.93 117.663 291.773 117.449H291.727C291.758 117.699 291.773 117.936 291.773 118.16V119.922H291.125V113.719H291.652L291.742 114.305H291.773C291.94 114.07 292.134 113.901 292.355 113.797C292.577 113.693 292.831 113.641 293.117 113.641C293.685 113.641 294.122 113.835 294.43 114.223C294.74 114.611 294.895 115.155 294.895 115.855C294.895 116.559 294.737 117.105 294.422 117.496C294.109 117.884 293.674 118.078 293.117 118.078ZM293.023 114.191C292.586 114.191 292.27 114.312 292.074 114.555C291.879 114.797 291.779 115.182 291.773 115.711V115.855C291.773 116.457 291.874 116.888 292.074 117.148C292.275 117.406 292.596 117.535 293.039 117.535C293.409 117.535 293.698 117.385 293.906 117.086C294.117 116.786 294.223 116.374 294.223 115.848C294.223 115.314 294.117 114.905 293.906 114.621C293.698 114.335 293.404 114.191 293.023 114.191ZM297.984 113.641C298.174 113.641 298.345 113.656 298.496 113.688L298.406 114.289C298.229 114.25 298.073 114.23 297.938 114.23C297.591 114.23 297.294 114.371 297.047 114.652C296.802 114.934 296.68 115.284 296.68 115.703V118H296.031V113.719H296.566L296.641 114.512H296.672C296.831 114.233 297.022 114.018 297.246 113.867C297.47 113.716 297.716 113.641 297.984 113.641ZM299.945 118H299.297V113.719H299.945V118ZM299.242 112.559C299.242 112.41 299.279 112.302 299.352 112.234C299.424 112.164 299.516 112.129 299.625 112.129C299.729 112.129 299.819 112.164 299.895 112.234C299.97 112.305 300.008 112.413 300.008 112.559C300.008 112.704 299.97 112.814 299.895 112.887C299.819 112.957 299.729 112.992 299.625 112.992C299.516 112.992 299.424 112.957 299.352 112.887C299.279 112.814 299.242 112.704 299.242 112.559ZM304.25 118V115.23C304.25 114.882 304.171 114.621 304.012 114.449C303.853 114.277 303.604 114.191 303.266 114.191C302.818 114.191 302.49 114.312 302.281 114.555C302.073 114.797 301.969 115.197 301.969 115.754V118H301.32V113.719H301.848L301.953 114.305H301.984C302.117 114.094 302.303 113.931 302.543 113.816C302.783 113.699 303.049 113.641 303.344 113.641C303.859 113.641 304.247 113.766 304.508 114.016C304.768 114.263 304.898 114.66 304.898 115.207V118H304.25ZM307.617 117.543C307.732 117.543 307.842 117.535 307.949 117.52C308.056 117.501 308.141 117.483 308.203 117.465V117.961C308.133 117.995 308.029 118.022 307.891 118.043C307.755 118.066 307.633 118.078 307.523 118.078C306.695 118.078 306.281 117.642 306.281 116.77V114.223H305.668V113.91L306.281 113.641L306.555 112.727H306.93V113.719H308.172V114.223H306.93V116.742C306.93 117 306.991 117.198 307.113 117.336C307.236 117.474 307.404 117.543 307.617 117.543ZM311.789 118H311.141V113.719H311.789V118ZM311.086 112.559C311.086 112.41 311.122 112.302 311.195 112.234C311.268 112.164 311.359 112.129 311.469 112.129C311.573 112.129 311.663 112.164 311.738 112.234C311.814 112.305 311.852 112.413 311.852 112.559C311.852 112.704 311.814 112.814 311.738 112.887C311.663 112.957 311.573 112.992 311.469 112.992C311.359 112.992 311.268 112.957 311.195 112.887C311.122 112.814 311.086 112.704 311.086 112.559ZM316.094 118V115.23C316.094 114.882 316.014 114.621 315.855 114.449C315.697 114.277 315.448 114.191 315.109 114.191C314.661 114.191 314.333 114.312 314.125 114.555C313.917 114.797 313.812 115.197 313.812 115.754V118H313.164V113.719H313.691L313.797 114.305H313.828C313.961 114.094 314.147 113.931 314.387 113.816C314.626 113.699 314.893 113.641 315.188 113.641C315.703 113.641 316.091 113.766 316.352 114.016C316.612 114.263 316.742 114.66 316.742 115.207V118H316.094ZM322.789 118L322.66 117.391H322.629C322.415 117.659 322.202 117.841 321.988 117.938C321.777 118.031 321.513 118.078 321.195 118.078C320.771 118.078 320.438 117.969 320.195 117.75C319.956 117.531 319.836 117.22 319.836 116.816C319.836 115.952 320.527 115.499 321.91 115.457L322.637 115.434V115.168C322.637 114.832 322.564 114.585 322.418 114.426C322.275 114.264 322.044 114.184 321.727 114.184C321.37 114.184 320.966 114.293 320.516 114.512L320.316 114.016C320.527 113.901 320.758 113.811 321.008 113.746C321.26 113.681 321.513 113.648 321.766 113.648C322.276 113.648 322.654 113.762 322.898 113.988C323.146 114.215 323.27 114.578 323.27 115.078V118H322.789ZM321.324 117.543C321.728 117.543 322.044 117.432 322.273 117.211C322.505 116.99 322.621 116.68 322.621 116.281V115.895L321.973 115.922C321.457 115.94 321.085 116.021 320.855 116.164C320.629 116.305 320.516 116.525 320.516 116.824C320.516 117.059 320.586 117.237 320.727 117.359C320.87 117.482 321.069 117.543 321.324 117.543ZM329.617 118V115.23C329.617 114.882 329.538 114.621 329.379 114.449C329.22 114.277 328.971 114.191 328.633 114.191C328.185 114.191 327.857 114.312 327.648 114.555C327.44 114.797 327.336 115.197 327.336 115.754V118H326.688V113.719H327.215L327.32 114.305H327.352C327.484 114.094 327.671 113.931 327.91 113.816C328.15 113.699 328.417 113.641 328.711 113.641C329.227 113.641 329.615 113.766 329.875 114.016C330.135 114.263 330.266 114.66 330.266 115.207V118H329.617ZM332.211 113.719V116.496C332.211 116.845 332.29 117.105 332.449 117.277C332.608 117.449 332.857 117.535 333.195 117.535C333.643 117.535 333.97 117.413 334.176 117.168C334.384 116.923 334.488 116.523 334.488 115.969V113.719H335.137V118H334.602L334.508 117.426H334.473C334.34 117.637 334.155 117.798 333.918 117.91C333.684 118.022 333.415 118.078 333.113 118.078C332.592 118.078 332.202 117.954 331.941 117.707C331.684 117.46 331.555 117.064 331.555 116.52V113.719H332.211ZM337.898 117.543C338.013 117.543 338.124 117.535 338.23 117.52C338.337 117.501 338.422 117.483 338.484 117.465V117.961C338.414 117.995 338.31 118.022 338.172 118.043C338.036 118.066 337.914 118.078 337.805 118.078C336.977 118.078 336.562 117.642 336.562 116.77V114.223H335.949V113.91L336.562 113.641L336.836 112.727H337.211V113.719H338.453V114.223H337.211V116.742C337.211 117 337.272 117.198 337.395 117.336C337.517 117.474 337.685 117.543 337.898 117.543ZM342.105 116.832C342.105 117.23 341.957 117.538 341.66 117.754C341.363 117.97 340.947 118.078 340.41 118.078C339.842 118.078 339.4 117.988 339.082 117.809V117.207C339.288 117.311 339.508 117.393 339.742 117.453C339.979 117.513 340.207 117.543 340.426 117.543C340.764 117.543 341.025 117.49 341.207 117.383C341.389 117.273 341.48 117.108 341.48 116.887C341.48 116.72 341.408 116.578 341.262 116.461C341.118 116.341 340.837 116.201 340.418 116.039C340.02 115.891 339.736 115.762 339.566 115.652C339.4 115.54 339.275 115.414 339.191 115.273C339.111 115.133 339.07 114.965 339.07 114.77C339.07 114.421 339.212 114.146 339.496 113.945C339.78 113.742 340.169 113.641 340.664 113.641C341.125 113.641 341.576 113.734 342.016 113.922L341.785 114.449C341.355 114.272 340.966 114.184 340.617 114.184C340.31 114.184 340.078 114.232 339.922 114.328C339.766 114.424 339.688 114.557 339.688 114.727C339.688 114.841 339.716 114.939 339.773 115.02C339.833 115.1 339.928 115.177 340.059 115.25C340.189 115.323 340.439 115.428 340.809 115.566C341.316 115.751 341.659 115.938 341.836 116.125C342.016 116.312 342.105 116.548 342.105 116.832ZM346.094 118V115.23C346.094 114.882 346.014 114.621 345.855 114.449C345.697 114.277 345.448 114.191 345.109 114.191C344.659 114.191 344.329 114.314 344.121 114.559C343.915 114.803 343.812 115.204 343.812 115.762V118H343.164V111.922H343.812V113.762C343.812 113.983 343.802 114.167 343.781 114.312H343.82C343.948 114.107 344.129 113.945 344.363 113.828C344.6 113.708 344.87 113.648 345.172 113.648C345.695 113.648 346.087 113.773 346.348 114.023C346.611 114.271 346.742 114.665 346.742 115.207V118H346.094ZM349.887 118.078C349.254 118.078 348.754 117.885 348.387 117.5C348.022 117.115 347.84 116.579 347.84 115.895C347.84 115.204 348.009 114.656 348.348 114.25C348.689 113.844 349.146 113.641 349.719 113.641C350.255 113.641 350.68 113.818 350.992 114.172C351.305 114.523 351.461 114.988 351.461 115.566V115.977H348.512C348.525 116.479 348.651 116.861 348.891 117.121C349.133 117.382 349.473 117.512 349.91 117.512C350.371 117.512 350.827 117.415 351.277 117.223V117.801C351.048 117.9 350.831 117.97 350.625 118.012C350.422 118.056 350.176 118.078 349.887 118.078ZM349.711 114.184C349.367 114.184 349.092 114.296 348.887 114.52C348.684 114.743 348.564 115.053 348.527 115.449H350.766C350.766 115.04 350.674 114.728 350.492 114.512C350.31 114.293 350.049 114.184 349.711 114.184ZM353.219 118H352.57V111.922H353.219V118ZM355.242 118H354.594V111.922H355.242V118Z" fill="#808285"/>
<path opacity="0.1" d="M10.7861 267.586H371.304V274.907C371.304 275.854 370.928 276.761 370.26 277.431C369.591 278.1 368.684 278.476 367.739 278.476H14.3517C13.4061 278.476 12.4992 278.1 11.8305 277.431C11.1618 276.761 10.7861 275.854 10.7861 274.907V267.586Z" fill="black"/>
<path d="M71.3666 254.221H47.1343C46.4515 254.221 45.8979 254.775 45.8979 255.459V266.349C45.8979 267.032 46.4515 267.586 47.1343 267.586H71.3666C72.0495 267.586 72.603 267.032 72.603 266.349V255.459C72.603 254.775 72.0495 254.221 71.3666 254.221Z" fill="#57547D"/>
<path d="M97.3293 265.606H81.0096C80.4633 265.606 80.0205 266.049 80.0205 266.596C80.0205 267.143 80.4633 267.586 81.0096 267.586H97.3293C97.8756 267.586 98.3184 267.143 98.3184 266.596C98.3184 266.049 97.8756 265.606 97.3293 265.606Z" fill="#57547D"/>
<path opacity="0.2" d="M312 415.814C330.225 415.814 345 413.352 345 410.314C345 407.277 330.225 404.814 312 404.814C293.775 404.814 279 407.277 279 410.314C279 413.352 293.775 415.814 312 415.814Z" fill="#57547D"/>
<path d="M288.412 400.556C287.166 401.338 285.742 401.779 284.456 402.467C283.17 403.155 281.919 404.189 281.553 405.615C281.416 406.057 281.439 406.534 281.617 406.961C281.937 407.478 282.427 407.866 283.002 408.06C285.614 409.221 288.435 409.837 291.293 409.869C294.151 409.902 296.986 409.35 299.623 408.248C300.552 407.802 301.51 407.421 302.492 407.11C303.701 406.863 304.932 406.737 306.166 406.734C307.463 406.658 308.754 406.492 310.028 406.239C310.669 406.167 311.276 405.915 311.779 405.511C312.238 404.982 312.514 404.319 312.565 403.62C313.151 399.764 312.268 395.828 310.093 392.592C309.819 392.138 309.451 391.748 309.015 391.448C308.482 391.173 307.897 391.016 307.299 390.988C304.826 390.686 302.235 390.132 299.737 390.072C297.947 390.033 297.047 390.884 295.781 392.116C293.165 394.735 291.637 398.541 288.412 400.556Z" fill="#323444"/>
<path d="M324.855 400.19C324.855 402.615 325.147 405.184 326.616 407.12C327.288 407.957 328.101 408.669 329.019 409.223C332.125 411.203 336.24 411.931 339.513 410.253C340.042 410.015 340.494 409.635 340.819 409.154C341.313 408.293 341.051 407.219 340.774 406.268L336.037 389.835C332.976 390.305 328.475 390.636 325.755 392.191C323.782 393.314 324.855 398.022 324.855 400.19Z" fill="#323444"/>
<path d="M285.633 298.999C285.346 299.904 284.307 300.325 283.738 301.087C283.071 301.983 283.14 303.226 283.382 304.315C283.682 305.921 284.435 307.407 285.553 308.596C286.121 309.186 286.821 309.631 287.595 309.894C288.369 310.158 289.195 310.232 290.004 310.111C291.597 309.809 292.971 308.398 293.026 306.78C292.997 306.044 292.84 305.318 292.561 304.637L289.188 294.875C289.175 294.806 289.146 294.741 289.105 294.684C289.064 294.627 289.012 294.579 288.951 294.544C288.824 294.515 288.69 294.538 288.58 294.608C287.784 294.984 286.186 295.38 285.722 296.207C285.257 297.033 285.969 298.103 285.633 298.999Z" fill="#FBB3B2"/>
<path d="M284.055 298.509C285.287 298.315 286.365 297.593 287.517 297.118C288.669 296.642 290.113 296.459 291.083 297.251C291.36 297.479 291.627 297.791 291.988 297.786C291.496 295.365 290.754 293.003 289.772 290.737C289.738 290.629 289.67 290.533 289.579 290.465C289.444 290.41 289.294 290.41 289.159 290.465L285.831 291.336C284.599 291.658 284.456 291.559 284.55 292.772C284.574 293.311 284.851 298.509 284.055 298.509Z" fill="#323444"/>
<path d="M283.689 228.022C283.195 228.784 283.195 229.734 283.195 230.63C283.195 235.011 283.239 239.416 283.887 243.753C284.041 244.792 284.233 245.832 284.332 246.881C284.444 248.342 284.468 249.808 284.402 251.272L283.907 270.329C283.848 272.66 283.729 275.165 282.29 276.996C281.854 277.61 281.649 278.359 281.711 279.11C282.087 283.891 282.878 288.633 283.665 293.361C284.931 292.789 286.314 292.526 287.701 292.592C289.089 292.658 290.441 293.052 291.647 293.742C294.142 285.889 295.522 277.724 295.746 269.487C295.86 265.433 295.687 261.354 296.31 257.35C297.354 250.608 296.928 243.693 296.162 236.912C295.919 234.764 295.405 232.551 294.03 230.888C292.729 229.433 290.995 228.433 289.085 228.037C287.255 227.556 285.618 228.051 283.689 228.022Z" fill="#5B5583"/>
<path opacity="0.1" d="M283.689 228.022C283.195 228.784 283.195 229.734 283.195 230.63C283.195 235.011 283.239 239.416 283.887 243.753C284.041 244.792 284.233 245.832 284.332 246.881C284.444 248.342 284.468 249.808 284.402 251.272L283.907 270.329C283.848 272.66 283.729 275.165 282.29 276.996C281.854 277.61 281.649 278.359 281.711 279.11C282.087 283.891 282.878 288.633 283.665 293.361C284.931 292.789 286.314 292.526 287.701 292.592C289.089 292.658 290.441 293.052 291.647 293.742C294.142 285.889 295.522 277.724 295.746 269.487C295.86 265.433 295.687 261.354 296.31 257.35C297.354 250.608 296.928 243.693 296.162 236.912C295.919 234.764 295.405 232.551 294.03 230.888C292.729 229.433 290.995 228.433 289.085 228.037C287.255 227.556 285.618 228.051 283.689 228.022Z" fill="black"/>
<path d="M289.732 283.288C286.415 300.3 288.226 317.915 294.935 333.896C295.514 335.078 295.921 336.339 296.141 337.638C296.413 340.063 295.296 342.395 294.658 344.741C293.174 350.077 294.03 355.759 294.979 361.219C295.375 363.496 295.782 365.771 296.201 368.045C296.611 370.263 297.007 372.673 295.978 374.683C296.863 378.375 297.388 382.033 298.273 385.726C298.367 386.018 298.395 386.327 298.357 386.632C298.179 387.115 297.864 387.536 297.452 387.845C296.792 388.514 296.318 389.344 296.076 390.253C295.834 391.162 295.833 392.118 296.072 393.027C298.332 391.404 301.482 391.973 304.064 393.027C306.645 394.082 309.187 395.502 311.976 395.502C311.571 392.225 311.18 388.785 312.387 385.711C313.089 383.929 314.326 382.246 314.291 380.341C314.256 378.633 313.213 377.108 312.961 375.42C312.867 374.37 312.907 373.312 313.079 372.272C313.742 366.214 312.99 360.095 312.239 354.047C312.154 352.854 311.873 351.683 311.408 350.582C311.057 349.869 310.532 349.186 310.542 348.389C310.542 347.463 311.289 346.711 311.566 345.83C312.061 344.206 311.151 341.999 312.52 340.994C316.131 338.341 314.746 332.005 314.667 327.525C314.604 323.661 314.439 319.8 314.172 315.942C316.445 322.339 317.375 329.137 316.902 335.91C316.744 338.128 316.452 340.459 317.317 342.508C317.98 344.082 319.296 345.379 319.652 347.047C319.874 348.077 319.716 349.141 319.765 350.191C319.815 351.24 320.171 352.383 321.076 352.913C321.145 357.685 321.57 362.788 321.645 367.56C321.597 369.999 321.795 372.437 322.238 374.836C322.46 375.599 322.583 376.388 322.604 377.183C322.493 378.179 322.229 379.152 321.823 380.068C320.961 382.623 320.735 385.349 321.166 388.011C321.597 390.672 322.672 393.188 324.295 395.339C325.462 393.265 327.896 392.166 330.269 391.993C332.643 391.819 334.987 392.418 337.287 393.022C336.935 390.13 337.51 387.201 338.929 384.657C339.309 384.084 339.601 383.456 339.794 382.796C340.061 381.538 339.438 380.286 339.102 379.044C338.553 377.064 338.746 374.93 338.874 372.861C339.306 365.932 338.999 358.976 337.959 352.111C337.799 350.759 337.482 349.43 337.015 348.151C336.837 347.696 336.619 347.26 336.471 346.8C336.237 345.974 336.105 345.123 336.075 344.266L335.507 336.346C335.106 330.797 336.926 325.317 338.197 319.902C338.766 317.477 339.384 315.056 339.765 312.591C340.284 309.235 340.368 305.805 341.129 302.493C341.812 299.523 343.043 296.628 343.3 293.583C343.696 288.866 341.738 284.307 339.839 279.981C339.047 278.199 336.055 278.377 334.132 278.06C320.487 275.818 306.116 275.803 293.248 280.857C291.918 281.409 290.719 282.237 289.732 283.288Z" fill="#3C354C"/>
<path d="M299.569 195.432L301.082 201.322C301.494 202.673 301.721 204.073 301.76 205.485C301.775 206 301.661 206.51 301.428 206.97C301.179 207.347 300.86 207.673 300.489 207.93C299.455 208.717 298.738 210.554 297.556 211.098C298.164 212.157 299.005 211.469 300.103 211.999C302.037 212.939 303.807 214.291 305.904 214.756C307.882 215.192 309.959 214.781 311.922 214.261C314.707 213.504 317.476 212.459 319.716 210.633C321.957 208.806 323.233 207.193 323.223 204.307C320.75 204.599 318.549 202.099 317.456 199.852C317.077 198.998 316.799 198.102 316.626 197.184L315.3 191.348C313.856 191.665 312.679 192.699 311.299 193.239C309.92 193.778 308.288 193.828 306.755 193.897C304.033 194.021 301.327 194.372 298.664 194.946C298.298 195.021 297.838 195.253 297.927 195.61" fill="#FBB3B2"/>
<path opacity="0.1" d="M299.569 195.432L301.082 201.322C301.494 202.673 301.721 204.073 301.76 205.485C301.775 206 301.661 206.51 301.428 206.97C301.179 207.347 300.86 207.673 300.489 207.93C299.455 208.717 298.738 210.554 297.556 211.098C298.164 212.157 299.005 211.469 300.103 211.999C302.037 212.939 303.807 214.291 305.904 214.756C307.882 215.192 309.959 214.781 311.922 214.261C314.707 213.504 317.476 212.459 319.716 210.633C321.957 208.806 323.233 207.193 323.223 204.307C320.75 204.599 318.549 202.099 317.456 199.852C317.077 198.998 316.799 198.102 316.626 197.184L315.3 191.348C313.856 191.665 312.679 192.699 311.299 193.239C309.92 193.778 308.288 193.828 306.755 193.897C304.033 194.021 301.327 194.372 298.664 194.946C298.298 195.021 297.838 195.253 297.927 195.61" fill="black"/>
<path d="M306.068 198.679C313.3 198.679 319.163 192.81 319.163 185.571C319.163 178.332 313.3 172.464 306.068 172.464C298.835 172.464 292.972 178.332 292.972 185.571C292.972 192.81 298.835 198.679 306.068 198.679Z" fill="#FBB3B2"/>
<path d="M309.672 207.178C310.373 205.664 311.384 204.315 312.64 203.218C314.484 201.599 317.006 200.287 317.442 197.872L321.437 202.53C321.655 202.746 321.823 203.006 321.932 203.292C321.982 203.561 321.975 203.837 321.91 204.102C321.845 204.368 321.725 204.616 321.556 204.831C320.567 206.41 319.009 207.539 317.536 208.682C314.158 211.36 310.924 214.216 307.848 217.236C307.712 217.393 307.53 217.504 307.328 217.553C307.137 217.558 306.949 217.504 306.789 217.399C304.135 216.004 301.786 214.093 299.881 211.776C299.737 211.603 299.559 211.405 299.327 211.42C299.187 211.446 299.057 211.513 298.956 211.613C297.625 212.702 296.171 214.004 294.465 213.835C296.676 212.246 297.927 209.593 298.392 206.905C298.484 205.986 298.673 205.078 298.956 204.198C299.102 203.758 299.355 203.36 299.691 203.041C300.028 202.721 300.437 202.49 300.884 202.366C299.806 204.015 300.543 206.351 301.992 207.683C303.4 208.879 305.088 209.698 306.898 210.063C308.579 210.38 309.074 208.475 309.672 207.178Z" fill="#323444"/>
<path d="M292.636 284.634C294.5 285.094 296.266 285.876 298.076 286.456C301.375 287.49 304.846 287.855 308.288 287.53C309.347 287.506 310.377 287.178 311.255 286.584C311.488 286.396 311.7 286.173 311.947 286C312.361 285.752 312.809 285.567 313.278 285.451C317.813 284.03 321.611 280.966 325.295 277.966C325.414 277.867 325.547 277.744 325.537 277.585C325.52 277.477 325.468 277.378 325.389 277.303L323.45 275.076C318.367 275.942 313.159 275.615 308.001 275.487C306.942 275.439 305.881 275.468 304.826 275.571C303.807 275.689 302.803 275.947 301.8 276.165C297.987 276.996 294.09 277.313 290.227 277.858C289.957 277.877 289.695 277.959 289.461 278.095C289.298 278.221 289.159 278.375 289.05 278.551L287.695 280.456C287.169 281.097 286.782 281.841 286.558 282.639C286.241 284.124 286.904 284.619 288.165 284.426C289.655 284.208 291.173 284.278 292.636 284.634Z" fill="#323444"/>
<path d="M307.793 214.969C306.28 213.417 304.565 212.077 302.694 210.984C301.938 210.504 301.1 210.168 300.221 209.994C299.779 209.907 299.324 209.917 298.886 210.025C298.449 210.133 298.04 210.335 297.689 210.618C297.249 211.009 296.972 211.553 296.547 211.964C296.012 212.414 295.398 212.762 294.737 212.989C292.486 213.952 290.352 215.169 288.377 216.617C287.301 217.371 286.331 218.267 285.494 219.28C283.254 222.151 282.918 226.057 282.977 229.7C283.021 232.234 285.45 234.115 287.121 236.011C288.689 237.877 290.108 239.863 291.364 241.951C292.264 243.376 293.204 244.921 293.09 246.619C292.996 248.01 292.185 249.316 292.314 250.702C292.358 251.197 292.516 251.653 292.561 252.133C292.65 253.123 292.259 254.113 292.16 255.103C292.027 256.504 292.482 257.895 292.507 259.305C292.488 260.271 292.366 261.232 292.141 262.171C291.191 266.696 289.999 271.244 290.242 275.863L287.502 276.358C287.761 276.612 287.957 276.925 288.074 277.269C288.191 277.614 288.224 277.981 288.173 278.341C288.121 278.701 287.986 279.044 287.777 279.341C287.569 279.639 287.293 279.884 286.973 280.055C291.25 281.486 295.874 280.763 300.409 280.758C304.163 280.758 307.902 281.253 311.65 281.184C315.399 281.115 319.266 280.436 322.357 278.313C323.198 277.739 323.969 277.066 324.854 276.566C326.04 275.951 327.318 275.533 328.638 275.328C331.082 274.862 333.567 274.639 336.056 274.665C337.272 274.665 338.598 274.714 339.567 273.982C340.635 273.17 340.907 271.7 341.05 270.368C341.194 268.963 341.283 267.552 341.308 266.141C341.349 265.043 341.291 263.942 341.134 262.854C340.986 262.059 340.793 261.272 340.556 260.498L338.691 253.925C337.92 251.212 338.993 248.237 339.221 245.426C339.275 244.762 339.285 243.99 338.776 243.565C338.593 243.411 338.34 243.307 338.281 243.07C338.254 242.957 338.251 242.84 338.272 242.726C338.292 242.611 338.336 242.503 338.4 242.406C339.389 240.426 340.872 238.679 342.227 236.892C344.503 233.758 346.616 230.508 348.558 227.156C347.95 220.141 344.998 213.535 340.18 208.405C339.191 207.331 338.058 206.302 336.674 205.816C335.769 205.54 334.83 205.388 333.885 205.366C330.007 205.104 325.972 204.871 322.594 202.921C322.352 202.753 322.077 202.636 321.788 202.579C321.041 202.495 320.497 203.233 320.013 203.817C318.767 205.302 316.932 206.153 315.32 207.247C312.313 209.291 309.964 212.103 307.793 214.969Z" fill="#5B5583"/>
<path d="M348.894 229.18C349.665 231.625 349.591 234.239 349.843 236.788C349.993 238.326 350.262 239.851 350.65 241.347C350.826 242.169 351.144 242.955 351.589 243.668C352.034 244.322 352.672 244.851 352.954 245.589C353.108 246.089 353.177 246.611 353.157 247.133L353.216 250.549C353.343 252.359 353.068 254.174 352.41 255.865L350.279 262.354C349.126 265.869 347.944 269.438 345.867 272.497C345.575 273.014 345.131 273.431 344.596 273.69C344.178 273.8 343.748 273.867 343.316 273.888C342.562 274.022 341.878 274.416 341.383 275C340.887 275.585 340.61 276.324 340.601 277.09C340.106 276.366 339.488 275.735 338.776 275.224L334.439 271.759C332.955 270.551 331.407 269.324 329.607 268.626C332.028 267.869 334.178 266.425 335.795 264.469C337.412 262.513 338.427 260.13 338.716 257.607C338.715 256.857 338.884 256.115 339.211 255.439C339.572 254.855 340.24 254.41 340.289 253.722C340.348 252.855 339.369 252.202 339.369 251.336C339.369 250.762 339.794 250.286 339.982 249.747C340.158 249.08 340.158 248.379 339.982 247.713L339.384 244.386C339.349 244.053 339.248 243.73 339.087 243.436C338.863 243.154 338.615 242.892 338.345 242.654C337.317 241.5 337.772 239.684 338.345 238.263C339.663 235.11 341.36 232.129 343.4 229.388C344.126 228.467 344.798 227.505 345.412 226.507C345.937 225.596 346.055 224.334 346.609 223.537C347.321 225.408 348.286 227.254 348.894 229.18Z" fill="#5B5583"/>
<path d="M329.453 268.829C329.233 268.993 329.042 269.194 328.89 269.423C328.307 270.155 327.531 270.709 326.649 271.022C327.144 271.378 327.594 271.73 328.059 272.091C331.498 274.75 334.648 277.764 337.455 281.085C337.767 279.971 339.631 280.05 340.086 278.986C340.193 278.682 340.227 278.356 340.185 278.036C340.09 276.368 339.852 274.712 339.473 273.086C339.323 272.249 338.985 271.456 338.484 270.769C337.791 269.933 336.713 269.532 335.685 269.185C334.127 268.641 331.036 267.874 329.453 268.829Z" fill="#323444"/>
<path d="M323.272 272.72C321.788 273.818 320.488 275.194 318.821 275.947C317.644 276.481 316.304 276.714 315.275 277.511C315.834 278.744 317.288 279.382 318.638 279.333C319.99 279.2 321.285 278.724 322.402 277.952C323.287 277.407 324.325 276.774 325.29 277.155C325.438 277.907 324.795 278.615 324.795 279.377C324.795 280.139 325.428 280.694 326.051 281.095C329.019 283.01 332.836 282.852 336.372 282.629C336.575 282.637 336.775 282.578 336.941 282.461C337.018 282.371 337.076 282.268 337.113 282.155C337.149 282.043 337.163 281.925 337.154 281.808C337.198 281.025 337.218 280.248 337.223 279.466C337.323 278.836 337.241 278.19 336.987 277.604C336.733 277.018 336.317 276.517 335.789 276.16C333.87 274.509 331.8 273.042 329.607 271.779C327.431 270.517 325.225 271.264 323.272 272.72Z" fill="#FBB3B2"/>
<path d="M310.666 180.092C308.471 180.354 306.873 182.072 307.096 183.938C307.318 185.804 309.277 187.091 311.473 186.824C313.668 186.556 315.266 184.844 315.043 182.982C314.821 181.121 312.862 179.829 310.666 180.092ZM311.413 186.309C309.554 186.532 307.897 185.438 307.704 183.864C307.511 182.289 308.871 180.834 310.726 180.611C312.58 180.389 314.242 181.483 314.435 183.057C314.628 184.631 313.268 186.086 311.413 186.309Z" fill="#3C354C"/>
<path d="M299.965 181.379C297.769 181.641 296.172 183.359 296.394 185.22C296.617 187.081 298.575 188.373 300.771 188.111C302.967 187.848 304.564 186.131 304.341 184.265C304.119 182.398 302.161 181.116 299.965 181.379ZM300.712 187.591C298.852 187.814 297.195 186.72 297.007 185.151C296.82 183.581 298.17 182.121 300.029 181.893C301.889 181.666 303.545 182.765 303.733 184.339C303.921 185.913 302.566 187.368 300.712 187.591Z" fill="#3C354C"/>
<path d="M292.017 182.334L296.789 183.354L296.32 184.611L291.819 183.289L292.017 182.334Z" fill="#3C354C"/>
<path d="M318.619 179.136L314.217 181.26L314.974 182.369L319.034 180.018L318.619 179.136Z" fill="#3C354C"/>
<path d="M303.901 183.037L307.249 182.636L307.076 183.468L304.203 183.661L303.901 183.037Z" fill="#3C354C"/>
<path d="M297.408 181.913C297.723 181.235 297.891 180.498 297.902 179.75C297.914 179.303 297.991 178.859 298.13 178.433C298.373 177.893 298.743 177.419 299.208 177.052C300.751 175.746 302.961 175.072 305.142 174.978C307.52 174.869 309.886 175.381 312.007 176.463C312.654 176.767 313.234 177.198 313.713 177.731C314.405 178.577 314.553 179.671 315.251 180.507C315.727 181.015 316.325 181.391 316.989 181.599C317.653 181.807 318.359 181.84 319.039 181.695C319.281 180.834 318.965 179.923 319.088 179.042C319.283 178.287 319.546 177.552 319.875 176.845C320.641 174.582 319.523 171.959 317.219 170.608C316.413 170.113 315.458 169.791 314.855 169.123C314.252 168.454 314.108 167.761 313.693 167.093C312.59 165.326 309.737 164.499 307.566 165.316C306.883 165.574 306.28 165.965 305.587 166.242C304.302 166.771 302.838 166.865 301.423 167.044C300.029 167.173 298.666 167.531 297.388 168.103C296.166 168.707 295.143 169.677 294.861 170.835C294.727 171.37 294.757 171.924 294.624 172.454C293.941 175.142 289.535 176.449 289.287 179.191C289.198 180.181 289.737 181.131 290.41 181.938C290.875 182.487 291.988 183.958 292.774 184.17C293.56 184.383 294.159 183.636 294.91 183.378C296.097 183.007 296.814 182.928 297.408 181.913Z" fill="#3C354C"/>
<path opacity="0.2" d="M312 415.814C330.225 415.814 345 413.352 345 410.314C345 407.277 330.225 404.814 312 404.814C293.775 404.814 279 407.277 279 410.314C279 413.352 293.775 415.814 312 415.814Z" fill="#57547D"/>
<path d="M288.412 400.556C287.166 401.338 285.742 401.779 284.456 402.467C283.17 403.155 281.919 404.189 281.553 405.615C281.416 406.057 281.439 406.534 281.617 406.961C281.937 407.478 282.427 407.866 283.002 408.06C285.614 409.221 288.435 409.837 291.293 409.869C294.151 409.902 296.986 409.35 299.623 408.248C300.552 407.802 301.51 407.421 302.492 407.11C303.701 406.863 304.932 406.737 306.166 406.734C307.463 406.658 308.754 406.492 310.028 406.239C310.669 406.167 311.276 405.915 311.779 405.511C312.238 404.982 312.514 404.319 312.565 403.62C313.151 399.764 312.268 395.828 310.093 392.592C309.819 392.138 309.451 391.748 309.015 391.448C308.482 391.173 307.897 391.016 307.299 390.988C304.826 390.686 302.235 390.132 299.737 390.072C297.947 390.033 297.047 390.884 295.781 392.116C293.165 394.735 291.637 398.541 288.412 400.556Z" fill="#323444"/>
<path d="M324.855 400.19C324.855 402.615 325.147 405.184 326.616 407.12C327.288 407.957 328.101 408.669 329.019 409.223C332.125 411.203 336.24 411.931 339.513 410.253C340.042 410.015 340.494 409.635 340.819 409.154C341.313 408.293 341.051 407.219 340.774 406.268L336.037 389.835C332.976 390.305 328.475 390.636 325.755 392.191C323.782 393.314 324.855 398.022 324.855 400.19Z" fill="#323444"/>
<path d="M285.633 298.999C285.346 299.904 284.307 300.325 283.738 301.087C283.071 301.983 283.14 303.226 283.382 304.315C283.682 305.921 284.435 307.407 285.553 308.596C286.121 309.186 286.821 309.631 287.595 309.894C288.369 310.158 289.195 310.232 290.004 310.111C291.597 309.809 292.971 308.398 293.026 306.78C292.997 306.044 292.84 305.318 292.561 304.637L289.188 294.875C289.175 294.806 289.146 294.741 289.105 294.684C289.064 294.627 289.012 294.579 288.951 294.544C288.824 294.515 288.69 294.538 288.58 294.608C287.784 294.984 286.186 295.38 285.722 296.207C285.257 297.033 285.969 298.103 285.633 298.999Z" fill="#FBB3B2"/>
<path d="M284.055 298.509C285.287 298.315 286.365 297.593 287.517 297.118C288.669 296.642 290.113 296.459 291.083 297.251C291.36 297.479 291.627 297.791 291.988 297.786C291.496 295.365 290.754 293.003 289.772 290.737C289.738 290.629 289.67 290.533 289.579 290.465C289.444 290.41 289.294 290.41 289.159 290.465L285.831 291.336C284.599 291.658 284.456 291.559 284.55 292.772C284.574 293.311 284.851 298.509 284.055 298.509Z" fill="#323444"/>
<path d="M283.689 228.022C283.195 228.784 283.195 229.734 283.195 230.63C283.195 235.011 283.239 239.416 283.887 243.753C284.041 244.792 284.233 245.832 284.332 246.881C284.444 248.342 284.468 249.808 284.402 251.272L283.907 270.329C283.848 272.66 283.729 275.165 282.29 276.996C281.854 277.61 281.649 278.359 281.711 279.11C282.087 283.891 282.878 288.633 283.665 293.361C284.931 292.789 286.314 292.526 287.701 292.592C289.089 292.658 290.441 293.052 291.647 293.742C294.142 285.889 295.522 277.724 295.746 269.487C295.86 265.433 295.687 261.354 296.31 257.35C297.354 250.608 296.928 243.693 296.162 236.912C295.919 234.764 295.405 232.551 294.03 230.888C292.729 229.433 290.995 228.433 289.085 228.037C287.255 227.556 285.618 228.051 283.689 228.022Z" fill="#FF8E01"/>
<path opacity="0.1" d="M283.689 228.022C283.195 228.784 283.195 229.734 283.195 230.63C283.195 235.011 283.239 239.416 283.887 243.753C284.041 244.792 284.233 245.832 284.332 246.881C284.444 248.342 284.468 249.808 284.402 251.272L283.907 270.329C283.848 272.66 283.729 275.165 282.29 276.996C281.854 277.61 281.649 278.359 281.711 279.11C282.087 283.891 282.878 288.633 283.665 293.361C284.931 292.789 286.314 292.526 287.701 292.592C289.089 292.658 290.441 293.052 291.647 293.742C294.142 285.889 295.522 277.724 295.746 269.487C295.86 265.433 295.687 261.354 296.31 257.35C297.354 250.608 296.928 243.693 296.162 236.912C295.919 234.764 295.405 232.551 294.03 230.888C292.729 229.433 290.995 228.433 289.085 228.037C287.255 227.556 285.618 228.051 283.689 228.022Z" fill="black"/>
<path d="M289.732 283.288C286.415 300.3 288.226 317.915 294.935 333.896C295.514 335.078 295.921 336.339 296.141 337.638C296.413 340.063 295.296 342.395 294.658 344.741C293.174 350.077 294.03 355.759 294.979 361.219C295.375 363.496 295.782 365.771 296.201 368.045C296.611 370.263 297.007 372.673 295.978 374.683C296.863 378.375 297.388 382.033 298.273 385.726C298.367 386.018 298.395 386.327 298.357 386.632C298.179 387.115 297.864 387.536 297.452 387.845C296.792 388.514 296.318 389.344 296.076 390.253C295.834 391.162 295.833 392.118 296.072 393.027C298.332 391.404 301.482 391.973 304.064 393.027C306.645 394.082 309.187 395.502 311.976 395.502C311.571 392.225 311.18 388.785 312.387 385.711C313.089 383.929 314.326 382.246 314.291 380.341C314.256 378.633 313.213 377.108 312.961 375.42C312.867 374.37 312.907 373.312 313.079 372.272C313.742 366.214 312.99 360.095 312.239 354.047C312.154 352.854 311.873 351.683 311.408 350.582C311.057 349.869 310.532 349.186 310.542 348.389C310.542 347.463 311.289 346.711 311.566 345.83C312.061 344.206 311.151 341.999 312.52 340.994C316.131 338.341 314.746 332.005 314.667 327.525C314.604 323.661 314.439 319.8 314.172 315.942C316.445 322.339 317.375 329.137 316.902 335.91C316.744 338.128 316.452 340.459 317.317 342.508C317.98 344.082 319.296 345.379 319.652 347.047C319.874 348.077 319.716 349.141 319.765 350.191C319.815 351.24 320.171 352.383 321.076 352.913C321.145 357.685 321.57 362.788 321.645 367.56C321.597 369.999 321.795 372.437 322.238 374.836C322.46 375.599 322.583 376.388 322.604 377.183C322.493 378.179 322.229 379.152 321.823 380.068C320.961 382.623 320.735 385.349 321.166 388.011C321.597 390.672 322.672 393.188 324.295 395.339C325.462 393.265 327.896 392.166 330.269 391.993C332.643 391.819 334.987 392.418 337.287 393.022C336.935 390.13 337.51 387.201 338.929 384.657C339.309 384.084 339.601 383.456 339.794 382.796C340.061 381.538 339.438 380.286 339.102 379.044C338.553 377.064 338.746 374.93 338.874 372.861C339.306 365.932 338.999 358.976 337.959 352.111C337.799 350.759 337.482 349.43 337.015 348.151C336.837 347.696 336.619 347.26 336.471 346.8C336.237 345.974 336.105 345.123 336.075 344.266L335.507 336.346C335.106 330.797 336.926 325.317 338.197 319.902C338.766 317.477 339.384 315.056 339.765 312.591C340.284 309.235 340.368 305.805 341.129 302.493C341.812 299.523 343.043 296.628 343.3 293.583C343.696 288.866 341.738 284.307 339.839 279.981C339.047 278.199 336.055 278.377 334.132 278.06C320.487 275.818 306.116 275.803 293.248 280.857C291.918 281.409 290.719 282.237 289.732 283.288Z" fill="#444B97"/>
<path d="M299.569 195.432L301.082 201.322C301.494 202.673 301.721 204.073 301.76 205.485C301.775 206 301.661 206.51 301.428 206.97C301.179 207.347 300.86 207.673 300.489 207.93C299.455 208.717 298.738 210.554 297.556 211.098C298.164 212.157 299.005 211.469 300.103 211.999C302.037 212.939 303.807 214.291 305.904 214.756C307.882 215.192 309.959 214.781 311.922 214.261C314.707 213.504 317.476 212.459 319.716 210.633C321.957 208.806 323.233 207.193 323.223 204.307C320.75 204.599 318.549 202.099 317.456 199.852C317.077 198.998 316.799 198.102 316.626 197.184L315.3 191.348C313.856 191.665 312.679 192.699 311.299 193.239C309.92 193.778 308.288 193.828 306.755 193.897C304.033 194.021 301.327 194.372 298.664 194.946C298.298 195.021 297.838 195.253 297.927 195.61" fill="#FBB3B2"/>
<path opacity="0.1" d="M299.569 195.432L301.082 201.322C301.494 202.673 301.721 204.073 301.76 205.485C301.775 206 301.661 206.51 301.428 206.97C301.179 207.347 300.86 207.673 300.489 207.93C299.455 208.717 298.738 210.554 297.556 211.098C298.164 212.157 299.005 211.469 300.103 211.999C302.037 212.939 303.807 214.291 305.904 214.756C307.882 215.192 309.959 214.781 311.922 214.261C314.707 213.504 317.476 212.459 319.716 210.633C321.957 208.806 323.233 207.193 323.223 204.307C320.75 204.599 318.549 202.099 317.456 199.852C317.077 198.998 316.799 198.102 316.626 197.184L315.3 191.348C313.856 191.665 312.679 192.699 311.299 193.239C309.92 193.778 308.288 193.828 306.755 193.897C304.033 194.021 301.327 194.372 298.664 194.946C298.298 195.021 297.838 195.253 297.927 195.61" fill="black"/>
<path d="M306.068 198.679C313.3 198.679 319.163 192.81 319.163 185.571C319.163 178.332 313.3 172.464 306.068 172.464C298.835 172.464 292.972 178.332 292.972 185.571C292.972 192.81 298.835 198.679 306.068 198.679Z" fill="#FBB3B2"/>
<path d="M309.672 207.178C310.373 205.664 311.384 204.315 312.64 203.218C314.484 201.599 317.006 200.287 317.442 197.872L321.437 202.53C321.655 202.746 321.823 203.006 321.932 203.292C321.982 203.561 321.975 203.837 321.91 204.102C321.845 204.368 321.725 204.616 321.556 204.831C320.567 206.41 319.009 207.539 317.536 208.682C314.158 211.36 310.924 214.216 307.848 217.236C307.712 217.393 307.53 217.504 307.328 217.553C307.137 217.558 306.949 217.504 306.789 217.399C304.135 216.004 301.786 214.093 299.881 211.776C299.737 211.603 299.559 211.405 299.327 211.42C299.187 211.446 299.057 211.513 298.956 211.613C297.625 212.702 296.171 214.004 294.465 213.835C296.676 212.246 297.927 209.593 298.392 206.905C298.484 205.986 298.673 205.078 298.956 204.198C299.102 203.758 299.355 203.36 299.691 203.041C300.028 202.721 300.437 202.49 300.884 202.366C299.806 204.015 300.543 206.351 301.992 207.683C303.4 208.879 305.088 209.698 306.898 210.063C308.579 210.38 309.074 208.475 309.672 207.178Z" fill="#323444"/>
<path d="M292.636 284.634C294.5 285.094 296.266 285.876 298.076 286.456C301.375 287.49 304.846 287.855 308.288 287.53C309.347 287.506 310.377 287.178 311.255 286.584C311.488 286.396 311.7 286.173 311.947 286C312.361 285.752 312.809 285.567 313.278 285.451C317.813 284.03 321.611 280.966 325.295 277.966C325.414 277.867 325.547 277.744 325.537 277.585C325.52 277.477 325.468 277.378 325.389 277.303L323.45 275.076C318.367 275.942 313.159 275.615 308.001 275.487C306.942 275.439 305.881 275.468 304.826 275.571C303.807 275.689 302.803 275.947 301.8 276.165C297.987 276.996 294.09 277.313 290.227 277.858C289.957 277.877 289.695 277.959 289.461 278.095C289.298 278.221 289.159 278.375 289.05 278.551L287.695 280.456C287.169 281.097 286.782 281.841 286.558 282.639C286.241 284.124 286.904 284.619 288.165 284.426C289.655 284.208 291.173 284.278 292.636 284.634Z" fill="#323444"/>
<path d="M307.793 214.969C306.28 213.417 304.565 212.077 302.694 210.984C301.938 210.504 301.1 210.168 300.221 209.994C299.779 209.907 299.324 209.917 298.886 210.025C298.449 210.133 298.04 210.335 297.689 210.618C297.249 211.009 296.972 211.553 296.547 211.964C296.012 212.414 295.398 212.762 294.737 212.989C292.486 213.952 290.352 215.169 288.377 216.617C287.301 217.371 286.331 218.267 285.494 219.28C283.254 222.151 282.918 226.057 282.977 229.7C283.021 232.234 285.45 234.115 287.121 236.011C288.689 237.877 290.108 239.863 291.364 241.951C292.264 243.376 293.204 244.921 293.09 246.619C292.996 248.01 292.185 249.316 292.314 250.702C292.358 251.197 292.516 251.653 292.561 252.133C292.65 253.123 292.259 254.113 292.16 255.103C292.027 256.504 292.482 257.895 292.507 259.305C292.488 260.271 292.366 261.232 292.141 262.171C291.191 266.696 289.999 271.244 290.242 275.863L287.502 276.358C287.761 276.612 287.957 276.925 288.074 277.269C288.191 277.614 288.224 277.981 288.173 278.341C288.121 278.701 287.986 279.044 287.777 279.341C287.569 279.639 287.293 279.884 286.973 280.055C291.25 281.486 295.874 280.763 300.409 280.758C304.163 280.758 307.902 281.253 311.65 281.184C315.399 281.115 319.266 280.436 322.357 278.313C323.198 277.739 323.969 277.066 324.854 276.566C326.04 275.951 327.318 275.533 328.638 275.328C331.082 274.862 333.567 274.639 336.056 274.665C337.272 274.665 338.598 274.714 339.567 273.982C340.635 273.17 340.907 271.7 341.05 270.368C341.194 268.963 341.283 267.552 341.308 266.141C341.349 265.043 341.291 263.942 341.134 262.854C340.986 262.059 340.793 261.272 340.556 260.498L338.691 253.925C337.92 251.212 338.993 248.237 339.221 245.426C339.275 244.762 339.285 243.99 338.776 243.565C338.593 243.411 338.34 243.307 338.281 243.07C338.254 242.957 338.251 242.84 338.272 242.726C338.292 242.611 338.336 242.503 338.4 242.406C339.389 240.426 340.872 238.679 342.227 236.892C344.503 233.758 346.616 230.508 348.558 227.156C347.95 220.141 344.998 213.535 340.18 208.405C339.191 207.331 338.058 206.302 336.674 205.816C335.769 205.54 334.83 205.388 333.885 205.366C330.007 205.104 325.972 204.871 322.594 202.921C322.352 202.753 322.077 202.636 321.788 202.579C321.041 202.495 320.497 203.233 320.013 203.817C318.767 205.302 316.932 206.153 315.32 207.247C312.313 209.291 309.964 212.103 307.793 214.969Z" fill="#FF8E01"/>
<path d="M348.894 229.18C349.665 231.625 349.591 234.239 349.843 236.788C349.993 238.326 350.262 239.851 350.65 241.347C350.826 242.169 351.144 242.955 351.589 243.668C352.034 244.322 352.672 244.851 352.954 245.589C353.108 246.089 353.177 246.611 353.157 247.133L353.216 250.549C353.343 252.359 353.068 254.174 352.41 255.865L350.279 262.354C349.126 265.869 347.944 269.438 345.867 272.497C345.575 273.014 345.131 273.431 344.596 273.69C344.178 273.8 343.748 273.867 343.316 273.888C342.562 274.022 341.878 274.416 341.383 275C340.887 275.585 340.61 276.324 340.601 277.09C340.106 276.366 339.488 275.735 338.776 275.224L334.439 271.759C332.955 270.551 331.407 269.324 329.607 268.626C332.028 267.869 334.178 266.425 335.795 264.469C337.412 262.513 338.427 260.13 338.716 257.607C338.715 256.857 338.884 256.115 339.211 255.439C339.572 254.855 340.24 254.41 340.289 253.722C340.348 252.855 339.369 252.202 339.369 251.336C339.369 250.762 339.794 250.286 339.982 249.747C340.158 249.08 340.158 248.379 339.982 247.713L339.384 244.386C339.349 244.053 339.248 243.73 339.087 243.436C338.863 243.154 338.615 242.892 338.345 242.654C337.317 241.5 337.772 239.684 338.345 238.263C339.663 235.11 341.36 232.129 343.4 229.388C344.126 228.467 344.798 227.505 345.412 226.507C345.937 225.596 346.055 224.334 346.609 223.537C347.321 225.408 348.286 227.254 348.894 229.18Z" fill="#FF8E01"/>
<path d="M329.453 268.829C329.233 268.993 329.042 269.194 328.89 269.423C328.307 270.155 327.531 270.709 326.649 271.022C327.144 271.378 327.594 271.73 328.059 272.091C331.498 274.75 334.648 277.764 337.455 281.085C337.767 279.971 339.631 280.05 340.086 278.986C340.193 278.682 340.227 278.356 340.185 278.036C340.09 276.368 339.852 274.712 339.473 273.086C339.323 272.249 338.985 271.456 338.484 270.769C337.791 269.933 336.713 269.532 335.685 269.185C334.127 268.641 331.036 267.874 329.453 268.829Z" fill="#323444"/>
<path d="M323.272 272.72C321.788 273.818 320.488 275.194 318.821 275.947C317.644 276.481 316.304 276.714 315.275 277.511C315.834 278.744 317.288 279.382 318.638 279.333C319.99 279.2 321.285 278.724 322.402 277.952C323.287 277.407 324.325 276.774 325.29 277.155C325.438 277.907 324.795 278.615 324.795 279.377C324.795 280.139 325.428 280.694 326.051 281.095C329.019 283.01 332.836 282.852 336.372 282.629C336.575 282.637 336.775 282.578 336.941 282.461C337.018 282.371 337.076 282.268 337.113 282.155C337.149 282.043 337.163 281.925 337.154 281.808C337.198 281.025 337.218 280.248 337.223 279.466C337.323 278.836 337.241 278.19 336.987 277.604C336.733 277.018 336.317 276.517 335.789 276.16C333.87 274.509 331.8 273.042 329.607 271.779C327.431 270.517 325.225 271.264 323.272 272.72Z" fill="#FBB3B2"/>
<path d="M310.666 180.092C308.471 180.354 306.873 182.072 307.096 183.938C307.318 185.804 309.277 187.091 311.473 186.824C313.668 186.556 315.266 184.844 315.043 182.982C314.821 181.121 312.862 179.829 310.666 180.092ZM311.413 186.309C309.554 186.532 307.897 185.438 307.704 183.864C307.511 182.289 308.871 180.834 310.726 180.611C312.58 180.389 314.242 181.483 314.435 183.057C314.628 184.631 313.268 186.086 311.413 186.309Z" fill="#444B97"/>
<path d="M299.965 181.379C297.769 181.641 296.172 183.359 296.394 185.22C296.617 187.081 298.575 188.373 300.771 188.111C302.967 187.848 304.564 186.131 304.341 184.265C304.119 182.398 302.161 181.116 299.965 181.379ZM300.712 187.591C298.852 187.814 297.195 186.72 297.007 185.151C296.82 183.581 298.17 182.121 300.029 181.893C301.889 181.666 303.545 182.765 303.733 184.339C303.921 185.913 302.566 187.368 300.712 187.591Z" fill="#444B97"/>
<path d="M292.017 182.334L296.789 183.354L296.32 184.611L291.819 183.289L292.017 182.334Z" fill="#444B97"/>
<path d="M318.619 179.136L314.217 181.26L314.974 182.369L319.034 180.018L318.619 179.136Z" fill="#444B97"/>
<path d="M303.901 183.037L307.249 182.636L307.076 183.468L304.203 183.661L303.901 183.037Z" fill="#444B97"/>
<path d="M297.408 181.913C297.723 181.235 297.891 180.498 297.902 179.75C297.914 179.303 297.991 178.859 298.13 178.433C298.373 177.893 298.743 177.419 299.208 177.052C300.751 175.746 302.961 175.072 305.142 174.978C307.52 174.869 309.886 175.381 312.007 176.463C312.654 176.767 313.234 177.198 313.713 177.731C314.405 178.577 314.553 179.671 315.251 180.507C315.727 181.015 316.325 181.391 316.989 181.599C317.653 181.807 318.359 181.84 319.039 181.695C319.281 180.834 318.965 179.923 319.088 179.042C319.283 178.287 319.546 177.552 319.875 176.845C320.641 174.582 319.523 171.959 317.219 170.608C316.413 170.113 315.458 169.791 314.855 169.123C314.252 168.454 314.108 167.761 313.693 167.093C312.59 165.326 309.737 164.499 307.566 165.316C306.883 165.574 306.28 165.965 305.587 166.242C304.302 166.771 302.838 166.865 301.423 167.044C300.029 167.173 298.666 167.531 297.388 168.103C296.166 168.707 295.143 169.677 294.861 170.835C294.727 171.37 294.757 171.924 294.624 172.454C293.941 175.142 289.535 176.449 289.287 179.191C289.198 180.181 289.737 181.131 290.41 181.938C290.875 182.487 291.988 183.958 292.774 184.17C293.56 184.383 294.159 183.636 294.91 183.378C296.097 183.007 296.814 182.928 297.408 181.913Z" fill="#323444"/>
</svg>
