<svg width="420" height="416" viewBox="0 0 420 416" fill="none" xmlns="http://www.w3.org/2000/svg">
<path opacity="0.6" d="M41.8626 121.464C62.3118 130.335 74.062 148.689 74.062 148.689C74.062 148.689 52.6534 152.649 32.1993 143.784C11.7453 134.918 0 116.559 0 116.559C0 116.559 21.4085 112.594 41.8626 121.464Z" fill="#FF8E01"/>
<path d="M58.1227 98.5315C62.6478 114.698 75.12 125.34 75.12 125.34C75.12 125.34 80.2582 109.763 75.7332 93.5915C71.2082 77.4201 58.731 66.7827 58.731 66.7827C58.731 66.7827 53.5928 82.3601 58.1227 98.5315Z" fill="#FF8E01"/>
<path opacity="0.6" d="M104.62 87.4091C110.945 77.0142 121.716 72.0643 121.716 72.0643C121.716 72.0643 122.21 83.9144 115.905 94.2796C109.6 104.645 98.804 109.59 98.804 109.59C98.804 109.59 98.2897 97.7445 104.62 87.4091Z" fill="#FF8E01"/>
<path d="M415.739 97.8038H62.3517C60.3825 97.8038 58.7861 99.4017 58.7861 101.373V274.907C58.7861 276.878 60.3825 278.476 62.3517 278.476H415.739C417.708 278.476 419.304 276.878 419.304 274.907V101.373C419.304 99.4017 417.708 97.8038 415.739 97.8038Z" fill="#F2F2F2"/>
<path d="M85.994 123.032H89.844C90.936 123.032 91.874 123.228 92.658 123.62C93.442 124.012 94.0393 124.581 94.45 125.328C94.87 126.075 95.08 126.966 95.08 128.002C95.08 129.047 94.8747 129.943 94.464 130.69C94.0533 131.437 93.456 132.011 92.672 132.412C91.888 132.804 90.9453 133 89.844 133H85.994V123.032ZM89.704 131.236C91.832 131.236 92.896 130.158 92.896 128.002C92.896 125.865 91.832 124.796 89.704 124.796H88.178V131.236H89.704ZM104.467 125.902V133H102.381V131.95C102.166 132.314 101.863 132.599 101.471 132.804C101.079 133.009 100.635 133.112 100.141 133.112C99.5248 133.112 98.9788 132.963 98.5028 132.664C98.0361 132.365 97.6674 131.941 97.3968 131.39C97.1354 130.83 97.0048 130.186 97.0048 129.458C97.0048 128.73 97.1354 128.081 97.3968 127.512C97.6674 126.943 98.0408 126.504 98.5168 126.196C98.9928 125.879 99.5341 125.72 100.141 125.72C100.635 125.72 101.079 125.827 101.471 126.042C101.863 126.257 102.166 126.546 102.381 126.91V125.902H104.467ZM100.757 131.502C101.279 131.502 101.681 131.325 101.961 130.97C102.241 130.615 102.381 130.102 102.381 129.43C102.381 128.758 102.241 128.245 101.961 127.89C101.681 127.526 101.279 127.344 100.757 127.344C100.234 127.344 99.8281 127.531 99.5388 127.904C99.2494 128.277 99.1048 128.795 99.1048 129.458C99.1048 130.121 99.2448 130.629 99.5248 130.984C99.8141 131.329 100.225 131.502 100.757 131.502ZM113.873 125.902L110.597 133.378C110.196 134.283 109.687 134.946 109.071 135.366C108.464 135.795 107.718 136.071 106.831 136.192L106.341 134.568C106.994 134.428 107.484 134.251 107.811 134.036C108.147 133.821 108.408 133.509 108.595 133.098L108.805 132.636L105.879 125.902H108.091L109.911 130.508L111.787 125.902H113.873ZM123.856 126.546C124.472 126.546 125.018 126.681 125.494 126.952C125.979 127.213 126.353 127.587 126.614 128.072C126.885 128.557 127.02 129.117 127.02 129.752C127.02 130.424 126.861 131.017 126.544 131.53C126.236 132.034 125.788 132.426 125.2 132.706C124.621 132.977 123.945 133.112 123.17 133.112C122.535 133.112 121.905 133.009 121.28 132.804C120.664 132.599 120.165 132.328 119.782 131.992L120.482 130.424C121.369 131.068 122.274 131.39 123.198 131.39C124.365 131.39 124.948 130.872 124.948 129.836C124.948 129.341 124.794 128.954 124.486 128.674C124.187 128.385 123.777 128.24 123.254 128.24C122.927 128.24 122.596 128.301 122.26 128.422C121.933 128.543 121.639 128.711 121.378 128.926H120.132V123.032H126.53V124.712H122.26V126.938C122.699 126.677 123.231 126.546 123.856 126.546ZM133.724 128.38H138.078V130.046H133.724V128.38ZM147.886 124.236H144.512V123.032H152.716V124.236H149.342V133H147.886V124.236ZM159.551 129.5H154.511C154.558 131.152 155.309 131.978 156.765 131.978C157.577 131.978 158.319 131.712 158.991 131.18L159.425 132.188C159.108 132.468 158.702 132.692 158.207 132.86C157.722 133.019 157.232 133.098 156.737 133.098C155.608 133.098 154.721 132.776 154.077 132.132C153.433 131.479 153.111 130.587 153.111 129.458C153.111 128.739 153.251 128.1 153.531 127.54C153.821 126.98 154.222 126.546 154.735 126.238C155.249 125.93 155.832 125.776 156.485 125.776C157.437 125.776 158.184 126.084 158.725 126.7C159.276 127.316 159.551 128.17 159.551 129.262V129.5ZM156.513 126.826C155.981 126.826 155.547 126.985 155.211 127.302C154.875 127.619 154.661 128.072 154.567 128.66H158.305C158.249 128.063 158.067 127.61 157.759 127.302C157.451 126.985 157.036 126.826 156.513 126.826ZM164.338 133.098C163.106 133.098 162.135 132.799 161.426 132.202L161.846 131.18C162.583 131.74 163.428 132.02 164.38 132.02C164.865 132.02 165.234 131.941 165.486 131.782C165.738 131.614 165.864 131.381 165.864 131.082C165.864 130.83 165.775 130.634 165.598 130.494C165.43 130.345 165.141 130.219 164.73 130.116L163.554 129.836C162.938 129.705 162.467 129.477 162.14 129.15C161.823 128.814 161.664 128.399 161.664 127.904C161.664 127.269 161.916 126.756 162.42 126.364C162.933 125.972 163.61 125.776 164.45 125.776C164.954 125.776 165.43 125.855 165.878 126.014C166.335 126.173 166.723 126.397 167.04 126.686L166.606 127.68C165.925 127.139 165.206 126.868 164.45 126.868C163.993 126.868 163.638 126.957 163.386 127.134C163.134 127.302 163.008 127.54 163.008 127.848C163.008 128.091 163.087 128.287 163.246 128.436C163.405 128.585 163.657 128.702 164.002 128.786L165.206 129.08C165.878 129.229 166.373 129.467 166.69 129.794C167.017 130.111 167.18 130.527 167.18 131.04C167.18 131.675 166.923 132.179 166.41 132.552C165.906 132.916 165.215 133.098 164.338 133.098ZM171.312 127.036V130.578C171.312 131.063 171.415 131.409 171.62 131.614C171.835 131.81 172.129 131.908 172.502 131.908C172.745 131.908 172.992 131.871 173.244 131.796V132.944C172.936 133.047 172.586 133.098 172.194 133.098C171.466 133.098 170.902 132.893 170.5 132.482C170.099 132.071 169.898 131.474 169.898 130.69V127.036H168.526V125.944H169.898V124.18L171.312 123.69V125.944H173.258V127.036H171.312Z" fill="#46455B"/>
<path d="M119.814 161H118.818V153.318H116.105V152.434H122.527V153.318H119.814V161ZM126.449 161.117C125.499 161.117 124.749 160.828 124.199 160.25C123.652 159.672 123.378 158.869 123.378 157.842C123.378 156.807 123.632 155.984 124.14 155.375C124.652 154.766 125.337 154.461 126.197 154.461C127.001 154.461 127.638 154.727 128.107 155.258C128.576 155.785 128.81 156.482 128.81 157.35V157.965H124.386C124.406 158.719 124.595 159.291 124.955 159.682C125.318 160.072 125.828 160.268 126.484 160.268C127.175 160.268 127.859 160.123 128.535 159.834V160.701C128.191 160.85 127.865 160.955 127.556 161.018C127.251 161.084 126.882 161.117 126.449 161.117ZM126.185 155.275C125.669 155.275 125.257 155.443 124.949 155.779C124.644 156.115 124.464 156.58 124.41 157.174H127.767C127.767 156.561 127.63 156.092 127.357 155.768C127.083 155.439 126.693 155.275 126.185 155.275ZM134.677 159.248C134.677 159.846 134.454 160.307 134.009 160.631C133.563 160.955 132.938 161.117 132.134 161.117C131.282 161.117 130.618 160.982 130.141 160.713V159.811C130.45 159.967 130.78 160.09 131.132 160.18C131.487 160.27 131.829 160.314 132.157 160.314C132.665 160.314 133.056 160.234 133.329 160.074C133.602 159.91 133.739 159.662 133.739 159.33C133.739 159.08 133.63 158.867 133.411 158.691C133.196 158.512 132.774 158.301 132.145 158.059C131.548 157.836 131.122 157.643 130.868 157.479C130.618 157.311 130.431 157.121 130.306 156.91C130.184 156.699 130.124 156.447 130.124 156.154C130.124 155.631 130.337 155.219 130.763 154.918C131.188 154.613 131.772 154.461 132.515 154.461C133.206 154.461 133.882 154.602 134.542 154.883L134.196 155.674C133.552 155.408 132.968 155.275 132.444 155.275C131.983 155.275 131.636 155.348 131.401 155.492C131.167 155.637 131.05 155.836 131.05 156.09C131.05 156.262 131.093 156.408 131.179 156.529C131.268 156.65 131.411 156.766 131.606 156.875C131.802 156.984 132.177 157.143 132.731 157.35C133.493 157.627 134.007 157.906 134.272 158.188C134.542 158.469 134.677 158.822 134.677 159.248ZM138.399 160.314C138.571 160.314 138.737 160.303 138.897 160.279C139.057 160.252 139.184 160.225 139.278 160.197V160.941C139.172 160.992 139.016 161.033 138.809 161.064C138.606 161.1 138.422 161.117 138.258 161.117C137.016 161.117 136.395 160.463 136.395 159.154V155.334H135.475V154.865L136.395 154.461L136.805 153.09H137.368V154.578H139.231V155.334H137.368V159.113C137.368 159.5 137.459 159.797 137.643 160.004C137.826 160.211 138.078 160.314 138.399 160.314ZM141.599 161H140.627V154.578H141.599V161ZM140.545 152.838C140.545 152.615 140.599 152.453 140.709 152.352C140.818 152.246 140.955 152.193 141.119 152.193C141.275 152.193 141.41 152.246 141.523 152.352C141.636 152.457 141.693 152.619 141.693 152.838C141.693 153.057 141.636 153.221 141.523 153.33C141.41 153.436 141.275 153.488 141.119 153.488C140.955 153.488 140.818 153.436 140.709 153.33C140.599 153.221 140.545 153.057 140.545 152.838ZM148.116 161V156.846C148.116 156.322 147.997 155.932 147.759 155.674C147.521 155.416 147.148 155.287 146.64 155.287C145.968 155.287 145.476 155.469 145.163 155.832C144.851 156.195 144.695 156.795 144.695 157.631V161H143.722V154.578H144.513L144.671 155.457H144.718C144.917 155.141 145.196 154.896 145.556 154.725C145.915 154.549 146.316 154.461 146.757 154.461C147.53 154.461 148.112 154.648 148.503 155.023C148.894 155.395 149.089 155.99 149.089 156.811V161H148.116ZM156.409 154.578V155.193L155.219 155.334C155.329 155.471 155.426 155.65 155.512 155.873C155.598 156.092 155.641 156.34 155.641 156.617C155.641 157.246 155.426 157.748 154.997 158.123C154.567 158.498 153.977 158.686 153.227 158.686C153.036 158.686 152.856 158.67 152.688 158.639C152.274 158.857 152.067 159.133 152.067 159.465C152.067 159.641 152.139 159.771 152.284 159.857C152.428 159.939 152.676 159.98 153.028 159.98H154.165C154.86 159.98 155.393 160.127 155.764 160.42C156.139 160.713 156.327 161.139 156.327 161.697C156.327 162.408 156.042 162.949 155.471 163.32C154.901 163.695 154.069 163.883 152.975 163.883C152.135 163.883 151.487 163.727 151.03 163.414C150.577 163.102 150.35 162.66 150.35 162.09C150.35 161.699 150.475 161.361 150.725 161.076C150.975 160.791 151.327 160.598 151.78 160.496C151.616 160.422 151.477 160.307 151.364 160.15C151.255 159.994 151.2 159.812 151.2 159.605C151.2 159.371 151.262 159.166 151.387 158.99C151.512 158.814 151.71 158.645 151.979 158.48C151.647 158.344 151.376 158.111 151.165 157.783C150.958 157.455 150.854 157.08 150.854 156.658C150.854 155.955 151.065 155.414 151.487 155.035C151.909 154.652 152.506 154.461 153.28 154.461C153.616 154.461 153.919 154.5 154.188 154.578H156.409ZM151.288 162.078C151.288 162.426 151.434 162.689 151.727 162.869C152.02 163.049 152.44 163.139 152.987 163.139C153.803 163.139 154.407 163.016 154.798 162.77C155.192 162.527 155.389 162.197 155.389 161.779C155.389 161.432 155.282 161.189 155.067 161.053C154.852 160.92 154.448 160.854 153.854 160.854H152.688C152.247 160.854 151.903 160.959 151.657 161.17C151.411 161.381 151.288 161.684 151.288 162.078ZM151.815 156.635C151.815 157.084 151.942 157.424 152.196 157.654C152.45 157.885 152.803 158 153.256 158C154.206 158 154.68 157.539 154.68 156.617C154.68 155.652 154.2 155.17 153.239 155.17C152.782 155.17 152.43 155.293 152.184 155.539C151.938 155.785 151.815 156.15 151.815 156.635ZM165.107 159.248C165.107 159.846 164.884 160.307 164.439 160.631C163.994 160.955 163.369 161.117 162.564 161.117C161.712 161.117 161.048 160.982 160.572 160.713V159.811C160.88 159.967 161.21 160.09 161.562 160.18C161.917 160.27 162.259 160.314 162.587 160.314C163.095 160.314 163.486 160.234 163.759 160.074C164.033 159.91 164.169 159.662 164.169 159.33C164.169 159.08 164.06 158.867 163.841 158.691C163.626 158.512 163.205 158.301 162.576 158.059C161.978 157.836 161.552 157.643 161.298 157.479C161.048 157.311 160.861 157.121 160.736 156.91C160.615 156.699 160.554 156.447 160.554 156.154C160.554 155.631 160.767 155.219 161.193 154.918C161.619 154.613 162.203 154.461 162.945 154.461C163.636 154.461 164.312 154.602 164.972 154.883L164.626 155.674C163.982 155.408 163.398 155.275 162.875 155.275C162.414 155.275 162.066 155.348 161.832 155.492C161.597 155.637 161.48 155.836 161.48 156.09C161.48 156.262 161.523 156.408 161.609 156.529C161.699 156.65 161.841 156.766 162.037 156.875C162.232 156.984 162.607 157.143 163.162 157.35C163.923 157.627 164.437 157.906 164.703 158.188C164.972 158.469 165.107 158.822 165.107 159.248ZM169.468 161.117C168.519 161.117 167.769 160.828 167.218 160.25C166.671 159.672 166.397 158.869 166.397 157.842C166.397 156.807 166.651 155.984 167.159 155.375C167.671 154.766 168.356 154.461 169.216 154.461C170.02 154.461 170.657 154.727 171.126 155.258C171.595 155.785 171.829 156.482 171.829 157.35V157.965H167.405C167.425 158.719 167.614 159.291 167.974 159.682C168.337 160.072 168.847 160.268 169.503 160.268C170.194 160.268 170.878 160.123 171.554 159.834V160.701C171.21 160.85 170.884 160.955 170.575 161.018C170.27 161.084 169.901 161.117 169.468 161.117ZM169.204 155.275C168.688 155.275 168.276 155.443 167.968 155.779C167.663 156.115 167.483 156.58 167.429 157.174H170.786C170.786 156.561 170.649 156.092 170.376 155.768C170.103 155.439 169.712 155.275 169.204 155.275ZM176.12 161.117C175.19 161.117 174.469 160.832 173.957 160.262C173.45 159.688 173.196 158.877 173.196 157.83C173.196 156.756 173.454 155.926 173.969 155.34C174.489 154.754 175.227 154.461 176.184 154.461C176.493 154.461 176.801 154.494 177.11 154.561C177.418 154.627 177.661 154.705 177.836 154.795L177.537 155.621C177.323 155.535 177.088 155.465 176.834 155.41C176.58 155.352 176.356 155.322 176.161 155.322C174.856 155.322 174.204 156.154 174.204 157.818C174.204 158.607 174.362 159.213 174.678 159.635C174.998 160.057 175.471 160.268 176.096 160.268C176.631 160.268 177.18 160.152 177.743 159.922V160.783C177.313 161.006 176.772 161.117 176.12 161.117ZM181.406 160.314C181.578 160.314 181.744 160.303 181.904 160.279C182.064 160.252 182.191 160.225 182.285 160.197V160.941C182.18 160.992 182.023 161.033 181.816 161.064C181.613 161.1 181.43 161.117 181.265 161.117C180.023 161.117 179.402 160.463 179.402 159.154V155.334H178.482V154.865L179.402 154.461L179.812 153.09H180.375V154.578H182.238V155.334H180.375V159.113C180.375 159.5 180.467 159.797 180.65 160.004C180.834 160.211 181.086 160.314 181.406 160.314ZM184.607 161H183.634V154.578H184.607V161ZM183.552 152.838C183.552 152.615 183.607 152.453 183.716 152.352C183.825 152.246 183.962 152.193 184.126 152.193C184.283 152.193 184.417 152.246 184.531 152.352C184.644 152.457 184.7 152.619 184.7 152.838C184.7 153.057 184.644 153.221 184.531 153.33C184.417 153.436 184.283 153.488 184.126 153.488C183.962 153.488 183.825 153.436 183.716 153.33C183.607 153.221 183.552 153.057 183.552 152.838ZM192.272 157.783C192.272 158.83 192.009 159.648 191.481 160.238C190.954 160.824 190.225 161.117 189.296 161.117C188.721 161.117 188.212 160.982 187.766 160.713C187.321 160.443 186.977 160.057 186.735 159.553C186.493 159.049 186.372 158.459 186.372 157.783C186.372 156.736 186.634 155.922 187.157 155.34C187.68 154.754 188.407 154.461 189.337 154.461C190.235 154.461 190.948 154.76 191.475 155.357C192.007 155.955 192.272 156.764 192.272 157.783ZM187.38 157.783C187.38 158.604 187.544 159.229 187.872 159.658C188.2 160.088 188.682 160.303 189.319 160.303C189.956 160.303 190.438 160.09 190.766 159.664C191.098 159.234 191.264 158.607 191.264 157.783C191.264 156.967 191.098 156.348 190.766 155.926C190.438 155.5 189.952 155.287 189.307 155.287C188.671 155.287 188.19 155.496 187.866 155.914C187.542 156.332 187.38 156.955 187.38 157.783ZM198.438 161V156.846C198.438 156.322 198.319 155.932 198.08 155.674C197.842 155.416 197.469 155.287 196.961 155.287C196.289 155.287 195.797 155.469 195.485 155.832C195.172 156.195 195.016 156.795 195.016 157.631V161H194.043V154.578H194.834L194.992 155.457H195.039C195.238 155.141 195.518 154.896 195.877 154.725C196.236 154.549 196.637 154.461 197.078 154.461C197.852 154.461 198.434 154.648 198.824 155.023C199.215 155.395 199.41 155.99 199.41 156.811V161H198.438ZM201.334 160.379C201.334 160.117 201.392 159.92 201.509 159.787C201.63 159.65 201.802 159.582 202.025 159.582C202.252 159.582 202.427 159.65 202.552 159.787C202.681 159.92 202.746 160.117 202.746 160.379C202.746 160.633 202.681 160.828 202.552 160.965C202.423 161.102 202.248 161.17 202.025 161.17C201.826 161.17 201.66 161.109 201.527 160.988C201.398 160.863 201.334 160.66 201.334 160.379ZM201.334 155.205C201.334 154.678 201.564 154.414 202.025 154.414C202.505 154.414 202.746 154.678 202.746 155.205C202.746 155.459 202.681 155.654 202.552 155.791C202.423 155.928 202.248 155.996 202.025 155.996C201.826 155.996 201.66 155.936 201.527 155.814C201.398 155.689 201.334 155.486 201.334 155.205ZM208.057 161V152.434H209.053V161H208.057ZM215.717 161V156.846C215.717 156.322 215.598 155.932 215.359 155.674C215.121 155.416 214.748 155.287 214.24 155.287C213.568 155.287 213.076 155.469 212.764 155.832C212.451 156.195 212.295 156.795 212.295 157.631V161H211.322V154.578H212.113L212.271 155.457H212.318C212.518 155.141 212.797 154.896 213.156 154.725C213.516 154.549 213.916 154.461 214.357 154.461C215.131 154.461 215.713 154.648 216.103 155.023C216.494 155.395 216.689 155.99 216.689 156.811V161H215.717ZM220.827 160.314C220.999 160.314 221.165 160.303 221.326 160.279C221.486 160.252 221.613 160.225 221.706 160.197V160.941C221.601 160.992 221.445 161.033 221.238 161.064C221.035 161.1 220.851 161.117 220.687 161.117C219.445 161.117 218.824 160.463 218.824 159.154V155.334H217.904V154.865L218.824 154.461L219.234 153.09H219.796V154.578H221.66V155.334H219.796V159.113C219.796 159.5 219.888 159.797 220.072 160.004C220.255 160.211 220.507 160.314 220.827 160.314ZM225.768 161.117C224.819 161.117 224.069 160.828 223.518 160.25C222.971 159.672 222.698 158.869 222.698 157.842C222.698 156.807 222.952 155.984 223.46 155.375C223.971 154.766 224.657 154.461 225.516 154.461C226.321 154.461 226.958 154.727 227.427 155.258C227.895 155.785 228.13 156.482 228.13 157.35V157.965H223.706C223.725 158.719 223.915 159.291 224.274 159.682C224.637 160.072 225.147 160.268 225.804 160.268C226.495 160.268 227.179 160.123 227.854 159.834V160.701C227.511 160.85 227.184 160.955 226.876 161.018C226.571 161.084 226.202 161.117 225.768 161.117ZM225.505 155.275C224.989 155.275 224.577 155.443 224.268 155.779C223.964 156.115 223.784 156.58 223.729 157.174H227.087C227.087 156.561 226.95 156.092 226.677 155.768C226.403 155.439 226.012 155.275 225.505 155.275ZM232.783 154.461C233.069 154.461 233.324 154.484 233.551 154.531L233.416 155.434C233.151 155.375 232.916 155.346 232.713 155.346C232.194 155.346 231.748 155.557 231.377 155.979C231.01 156.4 230.826 156.926 230.826 157.555V161H229.854V154.578H230.656L230.768 155.768H230.815C231.053 155.35 231.34 155.027 231.676 154.801C232.012 154.574 232.381 154.461 232.783 154.461ZM236.218 161L233.781 154.578H234.824L236.207 158.387C236.519 159.277 236.703 159.855 236.757 160.121H236.804C236.847 159.914 236.982 159.486 237.209 158.838C237.439 158.186 237.953 156.766 238.75 154.578H239.793L237.355 161H236.218ZM241.857 161H240.884V154.578H241.857V161ZM240.802 152.838C240.802 152.615 240.857 152.453 240.966 152.352C241.075 152.246 241.212 152.193 241.376 152.193C241.532 152.193 241.667 152.246 241.78 152.352C241.894 152.457 241.95 152.619 241.95 152.838C241.95 153.057 241.894 153.221 241.78 153.33C241.667 153.436 241.532 153.488 241.376 153.488C241.212 153.488 241.075 153.436 240.966 153.33C240.857 153.221 240.802 153.057 240.802 152.838ZM246.692 161.117C245.743 161.117 244.993 160.828 244.442 160.25C243.895 159.672 243.622 158.869 243.622 157.842C243.622 156.807 243.876 155.984 244.383 155.375C244.895 154.766 245.581 154.461 246.44 154.461C247.245 154.461 247.881 154.727 248.35 155.258C248.819 155.785 249.053 156.482 249.053 157.35V157.965H244.629C244.649 158.719 244.838 159.291 245.198 159.682C245.561 160.072 246.071 160.268 246.727 160.268C247.419 160.268 248.102 160.123 248.778 159.834V160.701C248.434 160.85 248.108 160.955 247.799 161.018C247.495 161.084 247.126 161.117 246.692 161.117ZM246.428 155.275C245.913 155.275 245.501 155.443 245.192 155.779C244.887 156.115 244.708 156.58 244.653 157.174H248.01C248.01 156.561 247.874 156.092 247.6 155.768C247.327 155.439 246.936 155.275 246.428 155.275ZM256.021 161L254.844 157.232C254.77 157.002 254.631 156.479 254.428 155.662H254.381C254.225 156.346 254.088 156.873 253.971 157.244L252.758 161H251.633L249.881 154.578H250.9C251.314 156.191 251.629 157.42 251.844 158.264C252.062 159.107 252.188 159.676 252.219 159.969H252.266C252.309 159.746 252.377 159.459 252.471 159.107C252.568 158.752 252.652 158.471 252.723 158.264L253.9 154.578H254.955L256.104 158.264C256.322 158.936 256.471 159.5 256.549 159.957H256.596C256.611 159.816 256.652 159.6 256.719 159.307C256.789 159.014 257.197 157.438 257.943 154.578H258.951L257.176 161H256.021Z" fill="#57547D"/>
<circle cx="105.5" cy="156.5" r="2.5" fill="#57547D"/>
<path d="M119.814 182H118.818V174.318H116.105V173.434H122.527V174.318H119.814V182ZM126.449 182.117C125.499 182.117 124.749 181.828 124.199 181.25C123.652 180.672 123.378 179.869 123.378 178.842C123.378 177.807 123.632 176.984 124.14 176.375C124.652 175.766 125.337 175.461 126.197 175.461C127.001 175.461 127.638 175.727 128.107 176.258C128.576 176.785 128.81 177.482 128.81 178.35V178.965H124.386C124.406 179.719 124.595 180.291 124.955 180.682C125.318 181.072 125.828 181.268 126.484 181.268C127.175 181.268 127.859 181.123 128.535 180.834V181.701C128.191 181.85 127.865 181.955 127.556 182.018C127.251 182.084 126.882 182.117 126.449 182.117ZM126.185 176.275C125.669 176.275 125.257 176.443 124.949 176.779C124.644 177.115 124.464 177.58 124.41 178.174H127.767C127.767 177.561 127.63 177.092 127.357 176.768C127.083 176.439 126.693 176.275 126.185 176.275ZM134.677 180.248C134.677 180.846 134.454 181.307 134.009 181.631C133.563 181.955 132.938 182.117 132.134 182.117C131.282 182.117 130.618 181.982 130.141 181.713V180.811C130.45 180.967 130.78 181.09 131.132 181.18C131.487 181.27 131.829 181.314 132.157 181.314C132.665 181.314 133.056 181.234 133.329 181.074C133.602 180.91 133.739 180.662 133.739 180.33C133.739 180.08 133.63 179.867 133.411 179.691C133.196 179.512 132.774 179.301 132.145 179.059C131.548 178.836 131.122 178.643 130.868 178.479C130.618 178.311 130.431 178.121 130.306 177.91C130.184 177.699 130.124 177.447 130.124 177.154C130.124 176.631 130.337 176.219 130.763 175.918C131.188 175.613 131.772 175.461 132.515 175.461C133.206 175.461 133.882 175.602 134.542 175.883L134.196 176.674C133.552 176.408 132.968 176.275 132.444 176.275C131.983 176.275 131.636 176.348 131.401 176.492C131.167 176.637 131.05 176.836 131.05 177.09C131.05 177.262 131.093 177.408 131.179 177.529C131.268 177.65 131.411 177.766 131.606 177.875C131.802 177.984 132.177 178.143 132.731 178.35C133.493 178.627 134.007 178.906 134.272 179.188C134.542 179.469 134.677 179.822 134.677 180.248ZM138.399 181.314C138.571 181.314 138.737 181.303 138.897 181.279C139.057 181.252 139.184 181.225 139.278 181.197V181.941C139.172 181.992 139.016 182.033 138.809 182.064C138.606 182.1 138.422 182.117 138.258 182.117C137.016 182.117 136.395 181.463 136.395 180.154V176.334H135.475V175.865L136.395 175.461L136.805 174.09H137.368V175.578H139.231V176.334H137.368V180.113C137.368 180.5 137.459 180.797 137.643 181.004C137.826 181.211 138.078 181.314 138.399 181.314ZM141.599 182H140.627V175.578H141.599V182ZM140.545 173.838C140.545 173.615 140.599 173.453 140.709 173.352C140.818 173.246 140.955 173.193 141.119 173.193C141.275 173.193 141.41 173.246 141.523 173.352C141.636 173.457 141.693 173.619 141.693 173.838C141.693 174.057 141.636 174.221 141.523 174.33C141.41 174.436 141.275 174.488 141.119 174.488C140.955 174.488 140.818 174.436 140.709 174.33C140.599 174.221 140.545 174.057 140.545 173.838ZM148.116 182V177.846C148.116 177.322 147.997 176.932 147.759 176.674C147.521 176.416 147.148 176.287 146.64 176.287C145.968 176.287 145.476 176.469 145.163 176.832C144.851 177.195 144.695 177.795 144.695 178.631V182H143.722V175.578H144.513L144.671 176.457H144.718C144.917 176.141 145.196 175.896 145.556 175.725C145.915 175.549 146.316 175.461 146.757 175.461C147.53 175.461 148.112 175.648 148.503 176.023C148.894 176.395 149.089 176.99 149.089 177.811V182H148.116ZM156.409 175.578V176.193L155.219 176.334C155.329 176.471 155.426 176.65 155.512 176.873C155.598 177.092 155.641 177.34 155.641 177.617C155.641 178.246 155.426 178.748 154.997 179.123C154.567 179.498 153.977 179.686 153.227 179.686C153.036 179.686 152.856 179.67 152.688 179.639C152.274 179.857 152.067 180.133 152.067 180.465C152.067 180.641 152.139 180.771 152.284 180.857C152.428 180.939 152.676 180.98 153.028 180.98H154.165C154.86 180.98 155.393 181.127 155.764 181.42C156.139 181.713 156.327 182.139 156.327 182.697C156.327 183.408 156.042 183.949 155.471 184.32C154.901 184.695 154.069 184.883 152.975 184.883C152.135 184.883 151.487 184.727 151.03 184.414C150.577 184.102 150.35 183.66 150.35 183.09C150.35 182.699 150.475 182.361 150.725 182.076C150.975 181.791 151.327 181.598 151.78 181.496C151.616 181.422 151.477 181.307 151.364 181.15C151.255 180.994 151.2 180.812 151.2 180.605C151.2 180.371 151.262 180.166 151.387 179.99C151.512 179.814 151.71 179.645 151.979 179.48C151.647 179.344 151.376 179.111 151.165 178.783C150.958 178.455 150.854 178.08 150.854 177.658C150.854 176.955 151.065 176.414 151.487 176.035C151.909 175.652 152.506 175.461 153.28 175.461C153.616 175.461 153.919 175.5 154.188 175.578H156.409ZM151.288 183.078C151.288 183.426 151.434 183.689 151.727 183.869C152.02 184.049 152.44 184.139 152.987 184.139C153.803 184.139 154.407 184.016 154.798 183.77C155.192 183.527 155.389 183.197 155.389 182.779C155.389 182.432 155.282 182.189 155.067 182.053C154.852 181.92 154.448 181.854 153.854 181.854H152.688C152.247 181.854 151.903 181.959 151.657 182.17C151.411 182.381 151.288 182.684 151.288 183.078ZM151.815 177.635C151.815 178.084 151.942 178.424 152.196 178.654C152.45 178.885 152.803 179 153.256 179C154.206 179 154.68 178.539 154.68 177.617C154.68 176.652 154.2 176.17 153.239 176.17C152.782 176.17 152.43 176.293 152.184 176.539C151.938 176.785 151.815 177.15 151.815 177.635ZM165.107 180.248C165.107 180.846 164.884 181.307 164.439 181.631C163.994 181.955 163.369 182.117 162.564 182.117C161.712 182.117 161.048 181.982 160.572 181.713V180.811C160.88 180.967 161.21 181.09 161.562 181.18C161.917 181.27 162.259 181.314 162.587 181.314C163.095 181.314 163.486 181.234 163.759 181.074C164.033 180.91 164.169 180.662 164.169 180.33C164.169 180.08 164.06 179.867 163.841 179.691C163.626 179.512 163.205 179.301 162.576 179.059C161.978 178.836 161.552 178.643 161.298 178.479C161.048 178.311 160.861 178.121 160.736 177.91C160.615 177.699 160.554 177.447 160.554 177.154C160.554 176.631 160.767 176.219 161.193 175.918C161.619 175.613 162.203 175.461 162.945 175.461C163.636 175.461 164.312 175.602 164.972 175.883L164.626 176.674C163.982 176.408 163.398 176.275 162.875 176.275C162.414 176.275 162.066 176.348 161.832 176.492C161.597 176.637 161.48 176.836 161.48 177.09C161.48 177.262 161.523 177.408 161.609 177.529C161.699 177.65 161.841 177.766 162.037 177.875C162.232 177.984 162.607 178.143 163.162 178.35C163.923 178.627 164.437 178.906 164.703 179.188C164.972 179.469 165.107 179.822 165.107 180.248ZM169.468 182.117C168.519 182.117 167.769 181.828 167.218 181.25C166.671 180.672 166.397 179.869 166.397 178.842C166.397 177.807 166.651 176.984 167.159 176.375C167.671 175.766 168.356 175.461 169.216 175.461C170.02 175.461 170.657 175.727 171.126 176.258C171.595 176.785 171.829 177.482 171.829 178.35V178.965H167.405C167.425 179.719 167.614 180.291 167.974 180.682C168.337 181.072 168.847 181.268 169.503 181.268C170.194 181.268 170.878 181.123 171.554 180.834V181.701C171.21 181.85 170.884 181.955 170.575 182.018C170.27 182.084 169.901 182.117 169.468 182.117ZM169.204 176.275C168.688 176.275 168.276 176.443 167.968 176.779C167.663 177.115 167.483 177.58 167.429 178.174H170.786C170.786 177.561 170.649 177.092 170.376 176.768C170.103 176.439 169.712 176.275 169.204 176.275ZM176.12 182.117C175.19 182.117 174.469 181.832 173.957 181.262C173.45 180.688 173.196 179.877 173.196 178.83C173.196 177.756 173.454 176.926 173.969 176.34C174.489 175.754 175.227 175.461 176.184 175.461C176.493 175.461 176.801 175.494 177.11 175.561C177.418 175.627 177.661 175.705 177.836 175.795L177.537 176.621C177.323 176.535 177.088 176.465 176.834 176.41C176.58 176.352 176.356 176.322 176.161 176.322C174.856 176.322 174.204 177.154 174.204 178.818C174.204 179.607 174.362 180.213 174.678 180.635C174.998 181.057 175.471 181.268 176.096 181.268C176.631 181.268 177.18 181.152 177.743 180.922V181.783C177.313 182.006 176.772 182.117 176.12 182.117ZM181.406 181.314C181.578 181.314 181.744 181.303 181.904 181.279C182.064 181.252 182.191 181.225 182.285 181.197V181.941C182.18 181.992 182.023 182.033 181.816 182.064C181.613 182.1 181.43 182.117 181.265 182.117C180.023 182.117 179.402 181.463 179.402 180.154V176.334H178.482V175.865L179.402 175.461L179.812 174.09H180.375V175.578H182.238V176.334H180.375V180.113C180.375 180.5 180.467 180.797 180.65 181.004C180.834 181.211 181.086 181.314 181.406 181.314ZM184.607 182H183.634V175.578H184.607V182ZM183.552 173.838C183.552 173.615 183.607 173.453 183.716 173.352C183.825 173.246 183.962 173.193 184.126 173.193C184.283 173.193 184.417 173.246 184.531 173.352C184.644 173.457 184.7 173.619 184.7 173.838C184.7 174.057 184.644 174.221 184.531 174.33C184.417 174.436 184.283 174.488 184.126 174.488C183.962 174.488 183.825 174.436 183.716 174.33C183.607 174.221 183.552 174.057 183.552 173.838ZM192.272 178.783C192.272 179.83 192.009 180.648 191.481 181.238C190.954 181.824 190.225 182.117 189.296 182.117C188.721 182.117 188.212 181.982 187.766 181.713C187.321 181.443 186.977 181.057 186.735 180.553C186.493 180.049 186.372 179.459 186.372 178.783C186.372 177.736 186.634 176.922 187.157 176.34C187.68 175.754 188.407 175.461 189.337 175.461C190.235 175.461 190.948 175.76 191.475 176.357C192.007 176.955 192.272 177.764 192.272 178.783ZM187.38 178.783C187.38 179.604 187.544 180.229 187.872 180.658C188.2 181.088 188.682 181.303 189.319 181.303C189.956 181.303 190.438 181.09 190.766 180.664C191.098 180.234 191.264 179.607 191.264 178.783C191.264 177.967 191.098 177.348 190.766 176.926C190.438 176.5 189.952 176.287 189.307 176.287C188.671 176.287 188.19 176.496 187.866 176.914C187.542 177.332 187.38 177.955 187.38 178.783ZM198.438 182V177.846C198.438 177.322 198.319 176.932 198.08 176.674C197.842 176.416 197.469 176.287 196.961 176.287C196.289 176.287 195.797 176.469 195.485 176.832C195.172 177.195 195.016 177.795 195.016 178.631V182H194.043V175.578H194.834L194.992 176.457H195.039C195.238 176.141 195.518 175.896 195.877 175.725C196.236 175.549 196.637 175.461 197.078 175.461C197.852 175.461 198.434 175.648 198.824 176.023C199.215 176.395 199.41 176.99 199.41 177.811V182H198.438ZM201.334 181.379C201.334 181.117 201.392 180.92 201.509 180.787C201.63 180.65 201.802 180.582 202.025 180.582C202.252 180.582 202.427 180.65 202.552 180.787C202.681 180.92 202.746 181.117 202.746 181.379C202.746 181.633 202.681 181.828 202.552 181.965C202.423 182.102 202.248 182.17 202.025 182.17C201.826 182.17 201.66 182.109 201.527 181.988C201.398 181.863 201.334 181.66 201.334 181.379ZM201.334 176.205C201.334 175.678 201.564 175.414 202.025 175.414C202.505 175.414 202.746 175.678 202.746 176.205C202.746 176.459 202.681 176.654 202.552 176.791C202.423 176.928 202.248 176.996 202.025 176.996C201.826 176.996 201.66 176.936 201.527 176.814C201.398 176.689 201.334 176.486 201.334 176.205ZM213.489 175.93C213.489 176.797 213.192 177.465 212.598 177.934C212.008 178.398 211.163 178.631 210.061 178.631H209.053V182H208.057V173.434H210.278C212.418 173.434 213.489 174.266 213.489 175.93ZM209.053 177.775H209.95C210.832 177.775 211.471 177.633 211.866 177.348C212.26 177.062 212.457 176.605 212.457 175.977C212.457 175.41 212.272 174.988 211.901 174.711C211.53 174.434 210.952 174.295 210.166 174.295H209.053V177.775ZM218.131 175.461C218.416 175.461 218.672 175.484 218.898 175.531L218.764 176.434C218.498 176.375 218.264 176.346 218.06 176.346C217.541 176.346 217.096 176.557 216.725 176.979C216.357 177.4 216.174 177.926 216.174 178.555V182H215.201V175.578H216.004L216.115 176.768H216.162C216.4 176.35 216.687 176.027 217.023 175.801C217.359 175.574 217.728 175.461 218.131 175.461ZM225.702 178.783C225.702 179.83 225.439 180.648 224.911 181.238C224.384 181.824 223.656 182.117 222.726 182.117C222.152 182.117 221.642 181.982 221.197 181.713C220.751 181.443 220.408 181.057 220.165 180.553C219.923 180.049 219.802 179.459 219.802 178.783C219.802 177.736 220.064 176.922 220.587 176.34C221.111 175.754 221.837 175.461 222.767 175.461C223.665 175.461 224.378 175.76 224.906 176.357C225.437 176.955 225.702 177.764 225.702 178.783ZM220.81 178.783C220.81 179.604 220.974 180.229 221.302 180.658C221.63 181.088 222.113 181.303 222.749 181.303C223.386 181.303 223.869 181.09 224.197 180.664C224.529 180.234 224.695 179.607 224.695 178.783C224.695 177.967 224.529 177.348 224.197 176.926C223.869 176.5 223.382 176.287 222.738 176.287C222.101 176.287 221.62 176.496 221.296 176.914C220.972 177.332 220.81 177.955 220.81 178.783ZM231.845 181.139H231.792C231.343 181.791 230.671 182.117 229.776 182.117C228.936 182.117 228.282 181.83 227.813 181.256C227.348 180.682 227.116 179.865 227.116 178.807C227.116 177.748 227.35 176.926 227.819 176.34C228.288 175.754 228.94 175.461 229.776 175.461C230.647 175.461 231.315 175.777 231.78 176.41H231.856L231.815 175.947L231.792 175.496V172.883H232.764V182H231.973L231.845 181.139ZM229.899 181.303C230.563 181.303 231.044 181.123 231.341 180.764C231.641 180.4 231.792 179.816 231.792 179.012V178.807C231.792 177.896 231.639 177.248 231.335 176.861C231.034 176.471 230.552 176.275 229.887 176.275C229.317 176.275 228.88 176.498 228.575 176.943C228.274 177.385 228.124 178.01 228.124 178.818C228.124 179.639 228.274 180.258 228.575 180.676C228.876 181.094 229.317 181.303 229.899 181.303ZM235.807 175.578V179.744C235.807 180.268 235.926 180.658 236.164 180.916C236.403 181.174 236.776 181.303 237.283 181.303C237.955 181.303 238.446 181.119 238.754 180.752C239.067 180.385 239.223 179.785 239.223 178.953V175.578H240.196V182H239.393L239.252 181.139H239.199C239 181.455 238.723 181.697 238.367 181.865C238.016 182.033 237.614 182.117 237.16 182.117C236.379 182.117 235.793 181.932 235.403 181.561C235.016 181.189 234.823 180.596 234.823 179.779V175.578H235.807ZM244.89 182.117C243.961 182.117 243.24 181.832 242.728 181.262C242.22 180.688 241.966 179.877 241.966 178.83C241.966 177.756 242.224 176.926 242.74 176.34C243.259 175.754 243.998 175.461 244.955 175.461C245.263 175.461 245.572 175.494 245.881 175.561C246.189 175.627 246.431 175.705 246.607 175.795L246.308 176.621C246.093 176.535 245.859 176.465 245.605 176.41C245.351 176.352 245.127 176.322 244.931 176.322C243.627 176.322 242.974 177.154 242.974 178.818C242.974 179.607 243.132 180.213 243.449 180.635C243.769 181.057 244.242 181.268 244.867 181.268C245.402 181.268 245.951 181.152 246.513 180.922V181.783C246.084 182.006 245.543 182.117 244.89 182.117ZM250.177 181.314C250.349 181.314 250.515 181.303 250.675 181.279C250.835 181.252 250.962 181.225 251.056 181.197V181.941C250.95 181.992 250.794 182.033 250.587 182.064C250.384 182.1 250.2 182.117 250.036 182.117C248.794 182.117 248.173 181.463 248.173 180.154V176.334H247.253V175.865L248.173 175.461L248.583 174.09H249.146V175.578H251.009V176.334H249.146V180.113C249.146 180.5 249.237 180.797 249.421 181.004C249.605 181.211 249.857 181.314 250.177 181.314ZM257.656 181.314C257.828 181.314 257.994 181.303 258.154 181.279C258.314 181.252 258.441 181.225 258.535 181.197V181.941C258.43 181.992 258.273 182.033 258.066 182.064C257.863 182.1 257.68 182.117 257.516 182.117C256.273 182.117 255.652 181.463 255.652 180.154V176.334H254.732V175.865L255.652 175.461L256.062 174.09H256.625V175.578H258.488V176.334H256.625V180.113C256.625 180.5 256.717 180.797 256.9 181.004C257.084 181.211 257.336 181.314 257.656 181.314ZM262.597 182.117C261.648 182.117 260.898 181.828 260.347 181.25C259.8 180.672 259.527 179.869 259.527 178.842C259.527 177.807 259.781 176.984 260.289 176.375C260.8 175.766 261.486 175.461 262.345 175.461C263.15 175.461 263.787 175.727 264.255 176.258C264.724 176.785 264.958 177.482 264.958 178.35V178.965H260.535C260.554 179.719 260.744 180.291 261.103 180.682C261.466 181.072 261.976 181.268 262.632 181.268C263.324 181.268 264.007 181.123 264.683 180.834V181.701C264.339 181.85 264.013 181.955 263.705 182.018C263.4 182.084 263.031 182.117 262.597 182.117ZM262.333 176.275C261.818 176.275 261.406 176.443 261.097 176.779C260.792 177.115 260.613 177.58 260.558 178.174H263.915C263.915 177.561 263.779 177.092 263.505 176.768C263.232 176.439 262.841 176.275 262.333 176.275ZM270.825 180.248C270.825 180.846 270.602 181.307 270.157 181.631C269.712 181.955 269.087 182.117 268.282 182.117C267.431 182.117 266.766 181.982 266.29 181.713V180.811C266.599 180.967 266.929 181.09 267.28 181.18C267.636 181.27 267.977 181.314 268.306 181.314C268.813 181.314 269.204 181.234 269.477 181.074C269.751 180.91 269.888 180.662 269.888 180.33C269.888 180.08 269.778 179.867 269.559 179.691C269.345 179.512 268.923 179.301 268.294 179.059C267.696 178.836 267.27 178.643 267.016 178.479C266.766 178.311 266.579 178.121 266.454 177.91C266.333 177.699 266.272 177.447 266.272 177.154C266.272 176.631 266.485 176.219 266.911 175.918C267.337 175.613 267.921 175.461 268.663 175.461C269.354 175.461 270.03 175.602 270.69 175.883L270.345 176.674C269.7 176.408 269.116 176.275 268.593 176.275C268.132 176.275 267.784 176.348 267.55 176.492C267.315 176.637 267.198 176.836 267.198 177.09C267.198 177.262 267.241 177.408 267.327 177.529C267.417 177.65 267.559 177.766 267.755 177.875C267.95 177.984 268.325 178.143 268.88 178.35C269.641 178.627 270.155 178.906 270.421 179.188C270.69 179.469 270.825 179.822 270.825 180.248ZM274.547 181.314C274.719 181.314 274.885 181.303 275.045 181.279C275.205 181.252 275.332 181.225 275.426 181.197V181.941C275.321 181.992 275.164 182.033 274.957 182.064C274.754 182.1 274.571 182.117 274.407 182.117C273.164 182.117 272.543 181.463 272.543 180.154V176.334H271.623V175.865L272.543 175.461L272.953 174.09H273.516V175.578H275.379V176.334H273.516V180.113C273.516 180.5 273.608 180.797 273.791 181.004C273.975 181.211 274.227 181.314 274.547 181.314Z" fill="#57547D"/>
<circle cx="105.5" cy="177.5" r="2.5" fill="#57547D"/>
<path d="M311.602 117.426H311.566C311.267 117.861 310.819 118.078 310.223 118.078C309.663 118.078 309.227 117.887 308.914 117.504C308.604 117.121 308.449 116.577 308.449 115.871C308.449 115.165 308.605 114.617 308.918 114.227C309.23 113.836 309.665 113.641 310.223 113.641C310.803 113.641 311.249 113.852 311.559 114.273H311.609L311.582 113.965L311.566 113.664V111.922H312.215V118H311.688L311.602 117.426ZM310.305 117.535C310.747 117.535 311.068 117.415 311.266 117.176C311.466 116.934 311.566 116.544 311.566 116.008V115.871C311.566 115.264 311.465 114.832 311.262 114.574C311.061 114.314 310.74 114.184 310.297 114.184C309.917 114.184 309.625 114.332 309.422 114.629C309.221 114.923 309.121 115.34 309.121 115.879C309.121 116.426 309.221 116.839 309.422 117.117C309.622 117.396 309.917 117.535 310.305 117.535ZM315.402 118.078C314.77 118.078 314.27 117.885 313.902 117.5C313.538 117.115 313.355 116.579 313.355 115.895C313.355 115.204 313.525 114.656 313.863 114.25C314.204 113.844 314.661 113.641 315.234 113.641C315.771 113.641 316.195 113.818 316.508 114.172C316.82 114.523 316.977 114.988 316.977 115.566V115.977H314.027C314.04 116.479 314.167 116.861 314.406 117.121C314.648 117.382 314.988 117.512 315.426 117.512C315.887 117.512 316.342 117.415 316.793 117.223V117.801C316.564 117.9 316.346 117.97 316.141 118.012C315.938 118.056 315.691 118.078 315.402 118.078ZM315.227 114.184C314.883 114.184 314.608 114.296 314.402 114.52C314.199 114.743 314.079 115.053 314.043 115.449H316.281C316.281 115.04 316.19 114.728 316.008 114.512C315.826 114.293 315.565 114.184 315.227 114.184ZM320.848 116.832C320.848 117.23 320.699 117.538 320.402 117.754C320.105 117.97 319.689 118.078 319.152 118.078C318.585 118.078 318.142 117.988 317.824 117.809V117.207C318.03 117.311 318.25 117.393 318.484 117.453C318.721 117.513 318.949 117.543 319.168 117.543C319.507 117.543 319.767 117.49 319.949 117.383C320.132 117.273 320.223 117.108 320.223 116.887C320.223 116.72 320.15 116.578 320.004 116.461C319.861 116.341 319.579 116.201 319.16 116.039C318.762 115.891 318.478 115.762 318.309 115.652C318.142 115.54 318.017 115.414 317.934 115.273C317.853 115.133 317.812 114.965 317.812 114.77C317.812 114.421 317.954 114.146 318.238 113.945C318.522 113.742 318.911 113.641 319.406 113.641C319.867 113.641 320.318 113.734 320.758 113.922L320.527 114.449C320.098 114.272 319.708 114.184 319.359 114.184C319.052 114.184 318.82 114.232 318.664 114.328C318.508 114.424 318.43 114.557 318.43 114.727C318.43 114.841 318.458 114.939 318.516 115.02C318.576 115.1 318.671 115.177 318.801 115.25C318.931 115.323 319.181 115.428 319.551 115.566C320.059 115.751 320.401 115.938 320.578 116.125C320.758 116.312 320.848 116.548 320.848 116.832ZM322.555 118H321.906V113.719H322.555V118ZM321.852 112.559C321.852 112.41 321.888 112.302 321.961 112.234C322.034 112.164 322.125 112.129 322.234 112.129C322.339 112.129 322.428 112.164 322.504 112.234C322.579 112.305 322.617 112.413 322.617 112.559C322.617 112.704 322.579 112.814 322.504 112.887C322.428 112.957 322.339 112.992 322.234 112.992C322.125 112.992 322.034 112.957 321.961 112.887C321.888 112.814 321.852 112.704 321.852 112.559ZM327.434 113.719V114.129L326.641 114.223C326.714 114.314 326.779 114.434 326.836 114.582C326.893 114.728 326.922 114.893 326.922 115.078C326.922 115.497 326.779 115.832 326.492 116.082C326.206 116.332 325.812 116.457 325.312 116.457C325.185 116.457 325.065 116.447 324.953 116.426C324.677 116.572 324.539 116.755 324.539 116.977C324.539 117.094 324.587 117.181 324.684 117.238C324.78 117.293 324.945 117.32 325.18 117.32H325.938C326.401 117.32 326.757 117.418 327.004 117.613C327.254 117.809 327.379 118.092 327.379 118.465C327.379 118.939 327.189 119.299 326.809 119.547C326.428 119.797 325.874 119.922 325.145 119.922C324.585 119.922 324.152 119.818 323.848 119.609C323.546 119.401 323.395 119.107 323.395 118.727C323.395 118.466 323.478 118.241 323.645 118.051C323.811 117.861 324.046 117.732 324.348 117.664C324.238 117.615 324.146 117.538 324.07 117.434C323.997 117.329 323.961 117.208 323.961 117.07C323.961 116.914 324.003 116.777 324.086 116.66C324.169 116.543 324.301 116.43 324.48 116.32C324.259 116.229 324.078 116.074 323.938 115.855C323.799 115.637 323.73 115.387 323.73 115.105C323.73 114.637 323.871 114.276 324.152 114.023C324.434 113.768 324.832 113.641 325.348 113.641C325.572 113.641 325.773 113.667 325.953 113.719H327.434ZM324.02 118.719C324.02 118.951 324.117 119.126 324.312 119.246C324.508 119.366 324.788 119.426 325.152 119.426C325.697 119.426 326.099 119.344 326.359 119.18C326.622 119.018 326.754 118.798 326.754 118.52C326.754 118.288 326.682 118.126 326.539 118.035C326.396 117.947 326.126 117.902 325.73 117.902H324.953C324.659 117.902 324.43 117.973 324.266 118.113C324.102 118.254 324.02 118.456 324.02 118.719ZM324.371 115.09C324.371 115.389 324.456 115.616 324.625 115.77C324.794 115.923 325.03 116 325.332 116C325.965 116 326.281 115.693 326.281 115.078C326.281 114.435 325.961 114.113 325.32 114.113C325.016 114.113 324.781 114.195 324.617 114.359C324.453 114.523 324.371 114.767 324.371 115.09ZM331.242 118V115.23C331.242 114.882 331.163 114.621 331.004 114.449C330.845 114.277 330.596 114.191 330.258 114.191C329.81 114.191 329.482 114.312 329.273 114.555C329.065 114.797 328.961 115.197 328.961 115.754V118H328.312V113.719H328.84L328.945 114.305H328.977C329.109 114.094 329.296 113.931 329.535 113.816C329.775 113.699 330.042 113.641 330.336 113.641C330.852 113.641 331.24 113.766 331.5 114.016C331.76 114.263 331.891 114.66 331.891 115.207V118H331.242ZM338.066 116.832C338.066 117.23 337.918 117.538 337.621 117.754C337.324 117.97 336.908 118.078 336.371 118.078C335.803 118.078 335.361 117.988 335.043 117.809V117.207C335.249 117.311 335.469 117.393 335.703 117.453C335.94 117.513 336.168 117.543 336.387 117.543C336.725 117.543 336.986 117.49 337.168 117.383C337.35 117.273 337.441 117.108 337.441 116.887C337.441 116.72 337.368 116.578 337.223 116.461C337.079 116.341 336.798 116.201 336.379 116.039C335.98 115.891 335.697 115.762 335.527 115.652C335.361 115.54 335.236 115.414 335.152 115.273C335.072 115.133 335.031 114.965 335.031 114.77C335.031 114.421 335.173 114.146 335.457 113.945C335.741 113.742 336.13 113.641 336.625 113.641C337.086 113.641 337.536 113.734 337.977 113.922L337.746 114.449C337.316 114.272 336.927 114.184 336.578 114.184C336.271 114.184 336.039 114.232 335.883 114.328C335.727 114.424 335.648 114.557 335.648 114.727C335.648 114.841 335.677 114.939 335.734 115.02C335.794 115.1 335.889 115.177 336.02 115.25C336.15 115.323 336.4 115.428 336.77 115.566C337.277 115.751 337.62 115.938 337.797 116.125C337.977 116.312 338.066 116.548 338.066 116.832ZM341.117 118.078C340.839 118.078 340.583 118.027 340.352 117.926C340.122 117.822 339.93 117.663 339.773 117.449H339.727C339.758 117.699 339.773 117.936 339.773 118.16V119.922H339.125V113.719H339.652L339.742 114.305H339.773C339.94 114.07 340.134 113.901 340.355 113.797C340.577 113.693 340.831 113.641 341.117 113.641C341.685 113.641 342.122 113.835 342.43 114.223C342.74 114.611 342.895 115.155 342.895 115.855C342.895 116.559 342.737 117.105 342.422 117.496C342.109 117.884 341.674 118.078 341.117 118.078ZM341.023 114.191C340.586 114.191 340.27 114.312 340.074 114.555C339.879 114.797 339.779 115.182 339.773 115.711V115.855C339.773 116.457 339.874 116.888 340.074 117.148C340.275 117.406 340.596 117.535 341.039 117.535C341.409 117.535 341.698 117.385 341.906 117.086C342.117 116.786 342.223 116.374 342.223 115.848C342.223 115.314 342.117 114.905 341.906 114.621C341.698 114.335 341.404 114.191 341.023 114.191ZM345.984 113.641C346.174 113.641 346.345 113.656 346.496 113.688L346.406 114.289C346.229 114.25 346.073 114.23 345.938 114.23C345.591 114.23 345.294 114.371 345.047 114.652C344.802 114.934 344.68 115.284 344.68 115.703V118H344.031V113.719H344.566L344.641 114.512H344.672C344.831 114.233 345.022 114.018 345.246 113.867C345.47 113.716 345.716 113.641 345.984 113.641ZM347.945 118H347.297V113.719H347.945V118ZM347.242 112.559C347.242 112.41 347.279 112.302 347.352 112.234C347.424 112.164 347.516 112.129 347.625 112.129C347.729 112.129 347.819 112.164 347.895 112.234C347.97 112.305 348.008 112.413 348.008 112.559C348.008 112.704 347.97 112.814 347.895 112.887C347.819 112.957 347.729 112.992 347.625 112.992C347.516 112.992 347.424 112.957 347.352 112.887C347.279 112.814 347.242 112.704 347.242 112.559ZM352.25 118V115.23C352.25 114.882 352.171 114.621 352.012 114.449C351.853 114.277 351.604 114.191 351.266 114.191C350.818 114.191 350.49 114.312 350.281 114.555C350.073 114.797 349.969 115.197 349.969 115.754V118H349.32V113.719H349.848L349.953 114.305H349.984C350.117 114.094 350.303 113.931 350.543 113.816C350.783 113.699 351.049 113.641 351.344 113.641C351.859 113.641 352.247 113.766 352.508 114.016C352.768 114.263 352.898 114.66 352.898 115.207V118H352.25ZM355.617 117.543C355.732 117.543 355.842 117.535 355.949 117.52C356.056 117.501 356.141 117.483 356.203 117.465V117.961C356.133 117.995 356.029 118.022 355.891 118.043C355.755 118.066 355.633 118.078 355.523 118.078C354.695 118.078 354.281 117.642 354.281 116.77V114.223H353.668V113.91L354.281 113.641L354.555 112.727H354.93V113.719H356.172V114.223H354.93V116.742C354.93 117 354.991 117.198 355.113 117.336C355.236 117.474 355.404 117.543 355.617 117.543ZM359.789 118H359.141V113.719H359.789V118ZM359.086 112.559C359.086 112.41 359.122 112.302 359.195 112.234C359.268 112.164 359.359 112.129 359.469 112.129C359.573 112.129 359.663 112.164 359.738 112.234C359.814 112.305 359.852 112.413 359.852 112.559C359.852 112.704 359.814 112.814 359.738 112.887C359.663 112.957 359.573 112.992 359.469 112.992C359.359 112.992 359.268 112.957 359.195 112.887C359.122 112.814 359.086 112.704 359.086 112.559ZM364.094 118V115.23C364.094 114.882 364.014 114.621 363.855 114.449C363.697 114.277 363.448 114.191 363.109 114.191C362.661 114.191 362.333 114.312 362.125 114.555C361.917 114.797 361.812 115.197 361.812 115.754V118H361.164V113.719H361.691L361.797 114.305H361.828C361.961 114.094 362.147 113.931 362.387 113.816C362.626 113.699 362.893 113.641 363.188 113.641C363.703 113.641 364.091 113.766 364.352 114.016C364.612 114.263 364.742 114.66 364.742 115.207V118H364.094ZM370.789 118L370.66 117.391H370.629C370.415 117.659 370.202 117.841 369.988 117.938C369.777 118.031 369.513 118.078 369.195 118.078C368.771 118.078 368.438 117.969 368.195 117.75C367.956 117.531 367.836 117.22 367.836 116.816C367.836 115.952 368.527 115.499 369.91 115.457L370.637 115.434V115.168C370.637 114.832 370.564 114.585 370.418 114.426C370.275 114.264 370.044 114.184 369.727 114.184C369.37 114.184 368.966 114.293 368.516 114.512L368.316 114.016C368.527 113.901 368.758 113.811 369.008 113.746C369.26 113.681 369.513 113.648 369.766 113.648C370.276 113.648 370.654 113.762 370.898 113.988C371.146 114.215 371.27 114.578 371.27 115.078V118H370.789ZM369.324 117.543C369.728 117.543 370.044 117.432 370.273 117.211C370.505 116.99 370.621 116.68 370.621 116.281V115.895L369.973 115.922C369.457 115.94 369.085 116.021 368.855 116.164C368.629 116.305 368.516 116.525 368.516 116.824C368.516 117.059 368.586 117.237 368.727 117.359C368.87 117.482 369.069 117.543 369.324 117.543ZM377.617 118V115.23C377.617 114.882 377.538 114.621 377.379 114.449C377.22 114.277 376.971 114.191 376.633 114.191C376.185 114.191 375.857 114.312 375.648 114.555C375.44 114.797 375.336 115.197 375.336 115.754V118H374.688V113.719H375.215L375.32 114.305H375.352C375.484 114.094 375.671 113.931 375.91 113.816C376.15 113.699 376.417 113.641 376.711 113.641C377.227 113.641 377.615 113.766 377.875 114.016C378.135 114.263 378.266 114.66 378.266 115.207V118H377.617ZM380.211 113.719V116.496C380.211 116.845 380.29 117.105 380.449 117.277C380.608 117.449 380.857 117.535 381.195 117.535C381.643 117.535 381.97 117.413 382.176 117.168C382.384 116.923 382.488 116.523 382.488 115.969V113.719H383.137V118H382.602L382.508 117.426H382.473C382.34 117.637 382.155 117.798 381.918 117.91C381.684 118.022 381.415 118.078 381.113 118.078C380.592 118.078 380.202 117.954 379.941 117.707C379.684 117.46 379.555 117.064 379.555 116.52V113.719H380.211ZM385.898 117.543C386.013 117.543 386.124 117.535 386.23 117.52C386.337 117.501 386.422 117.483 386.484 117.465V117.961C386.414 117.995 386.31 118.022 386.172 118.043C386.036 118.066 385.914 118.078 385.805 118.078C384.977 118.078 384.562 117.642 384.562 116.77V114.223H383.949V113.91L384.562 113.641L384.836 112.727H385.211V113.719H386.453V114.223H385.211V116.742C385.211 117 385.272 117.198 385.395 117.336C385.517 117.474 385.685 117.543 385.898 117.543ZM390.105 116.832C390.105 117.23 389.957 117.538 389.66 117.754C389.363 117.97 388.947 118.078 388.41 118.078C387.842 118.078 387.4 117.988 387.082 117.809V117.207C387.288 117.311 387.508 117.393 387.742 117.453C387.979 117.513 388.207 117.543 388.426 117.543C388.764 117.543 389.025 117.49 389.207 117.383C389.389 117.273 389.48 117.108 389.48 116.887C389.48 116.72 389.408 116.578 389.262 116.461C389.118 116.341 388.837 116.201 388.418 116.039C388.02 115.891 387.736 115.762 387.566 115.652C387.4 115.54 387.275 115.414 387.191 115.273C387.111 115.133 387.07 114.965 387.07 114.77C387.07 114.421 387.212 114.146 387.496 113.945C387.78 113.742 388.169 113.641 388.664 113.641C389.125 113.641 389.576 113.734 390.016 113.922L389.785 114.449C389.355 114.272 388.966 114.184 388.617 114.184C388.31 114.184 388.078 114.232 387.922 114.328C387.766 114.424 387.688 114.557 387.688 114.727C387.688 114.841 387.716 114.939 387.773 115.02C387.833 115.1 387.928 115.177 388.059 115.25C388.189 115.323 388.439 115.428 388.809 115.566C389.316 115.751 389.659 115.938 389.836 116.125C390.016 116.312 390.105 116.548 390.105 116.832ZM394.094 118V115.23C394.094 114.882 394.014 114.621 393.855 114.449C393.697 114.277 393.448 114.191 393.109 114.191C392.659 114.191 392.329 114.314 392.121 114.559C391.915 114.803 391.812 115.204 391.812 115.762V118H391.164V111.922H391.812V113.762C391.812 113.983 391.802 114.167 391.781 114.312H391.82C391.948 114.107 392.129 113.945 392.363 113.828C392.6 113.708 392.87 113.648 393.172 113.648C393.695 113.648 394.087 113.773 394.348 114.023C394.611 114.271 394.742 114.665 394.742 115.207V118H394.094ZM397.887 118.078C397.254 118.078 396.754 117.885 396.387 117.5C396.022 117.115 395.84 116.579 395.84 115.895C395.84 115.204 396.009 114.656 396.348 114.25C396.689 113.844 397.146 113.641 397.719 113.641C398.255 113.641 398.68 113.818 398.992 114.172C399.305 114.523 399.461 114.988 399.461 115.566V115.977H396.512C396.525 116.479 396.651 116.861 396.891 117.121C397.133 117.382 397.473 117.512 397.91 117.512C398.371 117.512 398.827 117.415 399.277 117.223V117.801C399.048 117.9 398.831 117.97 398.625 118.012C398.422 118.056 398.176 118.078 397.887 118.078ZM397.711 114.184C397.367 114.184 397.092 114.296 396.887 114.52C396.684 114.743 396.564 115.053 396.527 115.449H398.766C398.766 115.04 398.674 114.728 398.492 114.512C398.31 114.293 398.049 114.184 397.711 114.184ZM401.219 118H400.57V111.922H401.219V118ZM403.242 118H402.594V111.922H403.242V118Z" fill="#808285"/>
<path opacity="0.1" d="M58.7861 267.586H419.304V274.907C419.304 275.854 418.928 276.761 418.26 277.431C417.591 278.1 416.684 278.476 415.739 278.476H62.3517C61.4061 278.476 60.4992 278.1 59.8305 277.431C59.1618 276.761 58.7861 275.854 58.7861 274.907V267.586Z" fill="black"/>
<path d="M119.366 254.221H95.1338C94.451 254.221 93.8975 254.775 93.8975 255.459V266.349C93.8975 267.032 94.451 267.586 95.1338 267.586H119.366C120.049 267.586 120.602 267.032 120.602 266.349V255.459C120.602 254.775 120.049 254.221 119.366 254.221Z" fill="#57547D"/>
<path d="M145.329 265.606H129.01C128.463 265.606 128.021 266.049 128.021 266.596C128.021 267.143 128.463 267.586 129.01 267.586H145.329C145.876 267.586 146.318 267.143 146.318 266.596C146.318 266.049 145.876 265.606 145.329 265.606Z" fill="#57547D"/>
<path opacity="0.2" d="M360 415.814C378.225 415.814 393 413.352 393 410.314C393 407.277 378.225 404.814 360 404.814C341.775 404.814 327 407.277 327 410.314C327 413.352 341.775 415.814 360 415.814Z" fill="#57547D"/>
<path d="M336.412 400.556C335.166 401.338 333.742 401.779 332.456 402.467C331.17 403.155 329.919 404.189 329.553 405.615C329.416 406.057 329.439 406.534 329.617 406.961C329.937 407.478 330.427 407.866 331.002 408.06C333.614 409.221 336.435 409.837 339.293 409.869C342.151 409.902 344.986 409.35 347.623 408.248C348.552 407.802 349.51 407.421 350.492 407.11C351.701 406.863 352.932 406.737 354.166 406.734C355.463 406.658 356.754 406.492 358.028 406.239C358.669 406.167 359.276 405.915 359.779 405.511C360.238 404.982 360.514 404.319 360.565 403.62C361.151 399.764 360.268 395.828 358.093 392.592C357.819 392.138 357.451 391.748 357.015 391.448C356.482 391.173 355.897 391.016 355.299 390.988C352.826 390.686 350.235 390.132 347.737 390.072C345.947 390.033 345.047 390.884 343.781 392.116C341.165 394.735 339.637 398.541 336.412 400.556Z" fill="#323444"/>
<path d="M372.856 400.19C372.856 402.615 373.148 405.184 374.616 407.12C375.288 407.957 376.102 408.669 377.02 409.223C380.125 411.203 384.24 411.931 387.514 410.253C388.043 410.015 388.495 409.635 388.819 409.154C389.314 408.293 389.052 407.219 388.775 406.268L384.037 389.835C380.976 390.305 376.476 390.636 373.756 392.191C371.783 393.314 372.856 398.022 372.856 400.19Z" fill="#323444"/>
<path d="M333.633 298.999C333.346 299.904 332.308 300.325 331.739 301.087C331.071 301.983 331.141 303.226 331.383 304.315C331.682 305.921 332.436 307.407 333.554 308.596C334.121 309.186 334.821 309.631 335.596 309.894C336.37 310.158 337.196 310.232 338.005 310.111C339.597 309.809 340.972 308.398 341.026 306.78C340.998 306.044 340.84 305.318 340.561 304.637L337.189 294.875C337.175 294.806 337.147 294.741 337.106 294.684C337.065 294.627 337.012 294.579 336.951 294.544C336.824 294.515 336.691 294.538 336.58 294.608C335.784 294.984 334.187 295.38 333.722 296.207C333.257 297.033 333.969 298.103 333.633 298.999Z" fill="#FBB3B2"/>
<path d="M332.056 298.509C333.287 298.315 334.365 297.593 335.517 297.118C336.67 296.642 338.114 296.459 339.083 297.251C339.36 297.479 339.627 297.791 339.988 297.786C339.497 295.365 338.754 293.003 337.773 290.737C337.738 290.629 337.671 290.533 337.58 290.465C337.445 290.41 337.294 290.41 337.159 290.465L333.831 291.336C332.6 291.658 332.456 291.559 332.55 292.772C332.575 293.311 332.852 298.509 332.056 298.509Z" fill="#323444"/>
<path d="M331.689 228.022C331.195 228.784 331.195 229.734 331.195 230.63C331.195 235.011 331.239 239.416 331.887 243.753C332.041 244.792 332.233 245.832 332.332 246.881C332.444 248.342 332.468 249.808 332.402 251.272L331.907 270.329C331.848 272.66 331.729 275.165 330.29 276.996C329.854 277.61 329.649 278.359 329.711 279.11C330.087 283.891 330.878 288.633 331.665 293.361C332.931 292.789 334.314 292.526 335.701 292.592C337.089 292.658 338.441 293.052 339.647 293.742C342.142 285.889 343.522 277.724 343.746 269.487C343.86 265.433 343.687 261.354 344.31 257.35C345.354 250.608 344.928 243.693 344.162 236.912C343.919 234.764 343.405 232.551 342.03 230.888C340.729 229.433 338.995 228.433 337.085 228.037C335.255 227.556 333.618 228.051 331.689 228.022Z" fill="#5B5583"/>
<path opacity="0.1" d="M331.689 228.022C331.195 228.784 331.195 229.734 331.195 230.63C331.195 235.011 331.239 239.416 331.887 243.753C332.041 244.792 332.233 245.832 332.332 246.881C332.444 248.342 332.468 249.808 332.402 251.272L331.907 270.329C331.848 272.66 331.729 275.165 330.29 276.996C329.854 277.61 329.649 278.359 329.711 279.11C330.087 283.891 330.878 288.633 331.665 293.361C332.931 292.789 334.314 292.526 335.701 292.592C337.089 292.658 338.441 293.052 339.647 293.742C342.142 285.889 343.522 277.724 343.746 269.487C343.86 265.433 343.687 261.354 344.31 257.35C345.354 250.608 344.928 243.693 344.162 236.912C343.919 234.764 343.405 232.551 342.03 230.888C340.729 229.433 338.995 228.433 337.085 228.037C335.255 227.556 333.618 228.051 331.689 228.022Z" fill="black"/>
<path d="M337.732 283.288C334.415 300.3 336.226 317.915 342.935 333.896C343.514 335.078 343.921 336.339 344.141 337.638C344.413 340.063 343.296 342.395 342.658 344.741C341.174 350.077 342.03 355.759 342.979 361.219C343.375 363.496 343.782 365.771 344.201 368.045C344.611 370.263 345.007 372.673 343.978 374.683C344.863 378.375 345.388 382.033 346.273 385.726C346.367 386.018 346.395 386.327 346.357 386.632C346.179 387.115 345.864 387.536 345.452 387.845C344.792 388.514 344.318 389.344 344.076 390.253C343.834 391.162 343.833 392.118 344.072 393.027C346.332 391.404 349.482 391.973 352.064 393.027C354.645 394.082 357.187 395.502 359.976 395.502C359.571 392.225 359.18 388.785 360.387 385.711C361.089 383.929 362.326 382.246 362.291 380.341C362.256 378.633 361.213 377.108 360.961 375.42C360.867 374.37 360.907 373.312 361.079 372.272C361.742 366.214 360.99 360.095 360.239 354.047C360.154 352.854 359.873 351.683 359.408 350.582C359.057 349.869 358.532 349.186 358.542 348.389C358.542 347.463 359.289 346.711 359.566 345.83C360.061 344.206 359.151 341.999 360.52 340.994C364.131 338.341 362.746 332.005 362.667 327.525C362.604 323.661 362.439 319.8 362.172 315.942C364.445 322.339 365.375 329.137 364.902 335.91C364.744 338.128 364.452 340.459 365.317 342.508C365.98 344.082 367.296 345.379 367.652 347.047C367.874 348.077 367.716 349.141 367.765 350.191C367.815 351.24 368.171 352.383 369.076 352.913C369.145 357.685 369.57 362.788 369.645 367.56C369.597 369.999 369.795 372.437 370.238 374.836C370.46 375.599 370.583 376.388 370.604 377.183C370.493 378.179 370.229 379.152 369.823 380.068C368.961 382.623 368.735 385.349 369.166 388.011C369.597 390.672 370.672 393.188 372.295 395.339C373.462 393.265 375.896 392.166 378.269 391.993C380.643 391.819 382.987 392.418 385.287 393.022C384.935 390.13 385.51 387.201 386.929 384.657C387.309 384.084 387.601 383.456 387.794 382.796C388.061 381.538 387.438 380.286 387.102 379.044C386.553 377.064 386.746 374.93 386.874 372.861C387.306 365.932 386.999 358.976 385.959 352.111C385.799 350.759 385.482 349.43 385.015 348.151C384.837 347.696 384.619 347.26 384.471 346.8C384.237 345.974 384.105 345.123 384.075 344.266L383.507 336.346C383.106 330.797 384.926 325.317 386.197 319.902C386.766 317.477 387.384 315.056 387.765 312.591C388.284 309.235 388.368 305.805 389.129 302.493C389.812 299.523 391.043 296.628 391.3 293.583C391.696 288.866 389.738 284.307 387.839 279.981C387.047 278.199 384.055 278.377 382.132 278.06C368.487 275.818 354.116 275.803 341.248 280.857C339.918 281.409 338.719 282.237 337.732 283.288Z" fill="#3C354C"/>
<path d="M347.568 195.432L349.082 201.322C349.493 202.673 349.721 204.073 349.759 205.485C349.775 206 349.661 206.51 349.428 206.97C349.179 207.347 348.86 207.673 348.488 207.93C347.455 208.717 346.738 210.554 345.556 211.098C346.164 212.157 347.005 211.469 348.103 211.999C350.036 212.939 351.807 214.291 353.903 214.756C355.882 215.192 357.959 214.781 359.922 214.261C362.706 213.504 365.476 212.459 367.716 210.633C369.956 208.806 371.232 207.193 371.222 204.307C368.749 204.599 366.549 202.099 365.456 199.852C365.077 198.998 364.798 198.102 364.625 197.184L363.3 191.348C361.856 191.665 360.679 192.699 359.299 193.239C357.919 193.778 356.287 193.828 354.754 193.897C352.033 194.021 349.326 194.372 346.663 194.946C346.297 195.021 345.838 195.253 345.927 195.61" fill="#FBB3B2"/>
<path opacity="0.1" d="M347.568 195.432L349.082 201.322C349.493 202.673 349.721 204.073 349.759 205.485C349.775 206 349.661 206.51 349.428 206.97C349.179 207.347 348.86 207.673 348.488 207.93C347.455 208.717 346.738 210.554 345.556 211.098C346.164 212.157 347.005 211.469 348.103 211.999C350.036 212.939 351.807 214.291 353.903 214.756C355.882 215.192 357.959 214.781 359.922 214.261C362.706 213.504 365.476 212.459 367.716 210.633C369.956 208.806 371.232 207.193 371.222 204.307C368.749 204.599 366.549 202.099 365.456 199.852C365.077 198.998 364.798 198.102 364.625 197.184L363.3 191.348C361.856 191.665 360.679 192.699 359.299 193.239C357.919 193.778 356.287 193.828 354.754 193.897C352.033 194.021 349.326 194.372 346.663 194.946C346.297 195.021 345.838 195.253 345.927 195.61" fill="black"/>
<path d="M354.067 198.679C361.299 198.679 367.162 192.81 367.162 185.571C367.162 178.332 361.299 172.464 354.067 172.464C346.835 172.464 340.972 178.332 340.972 185.571C340.972 192.81 346.835 198.679 354.067 198.679Z" fill="#FBB3B2"/>
<path d="M357.673 207.178C358.373 205.664 359.384 204.315 360.64 203.218C362.485 201.599 365.007 200.287 365.442 197.872L369.438 202.53C369.655 202.746 369.824 203.006 369.932 203.292C369.983 203.561 369.975 203.837 369.911 204.102C369.846 204.368 369.725 204.616 369.557 204.831C368.568 206.41 367.01 207.539 365.536 208.682C362.158 211.36 358.924 214.216 355.848 217.236C355.712 217.393 355.531 217.504 355.329 217.553C355.138 217.558 354.949 217.504 354.79 217.399C352.135 216.004 349.787 214.093 347.881 211.776C347.738 211.603 347.56 211.405 347.327 211.42C347.187 211.446 347.058 211.513 346.956 211.613C345.626 212.702 344.172 214.004 342.466 213.835C344.676 212.246 345.928 209.593 346.392 206.905C346.484 205.986 346.673 205.078 346.956 204.198C347.103 203.758 347.355 203.36 347.692 203.041C348.028 202.721 348.438 202.49 348.885 202.366C347.807 204.015 348.544 206.351 349.993 207.683C351.401 208.879 353.088 209.698 354.899 210.063C356.58 210.38 357.074 208.475 357.673 207.178Z" fill="#323444"/>
<path d="M340.636 284.634C342.5 285.094 344.266 285.876 346.076 286.456C349.375 287.49 352.846 287.855 356.288 287.53C357.347 287.506 358.377 287.178 359.255 286.584C359.488 286.396 359.7 286.173 359.947 286C360.361 285.752 360.809 285.567 361.278 285.451C365.813 284.03 369.611 280.966 373.295 277.966C373.414 277.867 373.547 277.744 373.537 277.585C373.52 277.477 373.468 277.378 373.389 277.303L371.45 275.076C366.367 275.942 361.159 275.615 356.001 275.487C354.942 275.439 353.881 275.468 352.826 275.571C351.807 275.689 350.803 275.947 349.8 276.165C345.987 276.996 342.09 277.313 338.227 277.858C337.957 277.877 337.695 277.959 337.461 278.095C337.298 278.221 337.159 278.375 337.05 278.551L335.695 280.456C335.169 281.097 334.782 281.841 334.558 282.639C334.241 284.124 334.904 284.619 336.165 284.426C337.655 284.208 339.173 284.278 340.636 284.634Z" fill="#323444"/>
<path d="M355.793 214.969C354.28 213.417 352.565 212.077 350.694 210.984C349.938 210.504 349.1 210.168 348.221 209.994C347.779 209.907 347.324 209.917 346.886 210.025C346.449 210.133 346.04 210.335 345.689 210.618C345.249 211.009 344.972 211.553 344.547 211.964C344.012 212.414 343.398 212.762 342.737 212.989C340.486 213.952 338.352 215.169 336.377 216.617C335.301 217.371 334.331 218.267 333.494 219.28C331.254 222.151 330.918 226.057 330.977 229.7C331.021 232.234 333.45 234.115 335.121 236.011C336.689 237.877 338.108 239.863 339.364 241.951C340.264 243.376 341.204 244.921 341.09 246.619C340.996 248.01 340.185 249.316 340.314 250.702C340.358 251.197 340.516 251.653 340.561 252.133C340.65 253.123 340.259 254.113 340.16 255.103C340.027 256.504 340.482 257.895 340.507 259.305C340.488 260.271 340.366 261.232 340.141 262.171C339.191 266.696 337.999 271.244 338.242 275.863L335.502 276.358C335.761 276.612 335.957 276.925 336.074 277.269C336.191 277.614 336.224 277.981 336.173 278.341C336.121 278.701 335.986 279.044 335.777 279.341C335.569 279.639 335.293 279.884 334.973 280.055C339.25 281.486 343.874 280.763 348.409 280.758C352.163 280.758 355.902 281.253 359.65 281.184C363.399 281.115 367.266 280.436 370.357 278.313C371.198 277.739 371.969 277.066 372.854 276.566C374.04 275.951 375.318 275.533 376.638 275.328C379.082 274.862 381.567 274.639 384.056 274.665C385.272 274.665 386.598 274.714 387.567 273.982C388.635 273.17 388.907 271.7 389.05 270.368C389.194 268.963 389.283 267.552 389.308 266.141C389.349 265.043 389.291 263.942 389.134 262.854C388.986 262.059 388.793 261.272 388.556 260.498L386.691 253.925C385.92 251.212 386.993 248.237 387.221 245.426C387.275 244.762 387.285 243.99 386.776 243.565C386.593 243.411 386.34 243.307 386.281 243.07C386.254 242.957 386.251 242.84 386.272 242.726C386.292 242.611 386.336 242.503 386.4 242.406C387.389 240.426 388.872 238.679 390.227 236.892C392.503 233.758 394.616 230.508 396.558 227.156C395.95 220.141 392.998 213.535 388.18 208.405C387.191 207.331 386.058 206.302 384.674 205.816C383.769 205.54 382.83 205.388 381.885 205.366C378.007 205.104 373.972 204.871 370.594 202.921C370.352 202.753 370.077 202.636 369.788 202.579C369.041 202.495 368.497 203.233 368.013 203.817C366.767 205.302 364.932 206.153 363.32 207.247C360.313 209.291 357.964 212.103 355.793 214.969Z" fill="#5B5583"/>
<path d="M396.893 229.18C397.665 231.625 397.591 234.239 397.843 236.788C397.992 238.326 398.262 239.851 398.649 241.347C398.826 242.169 399.144 242.955 399.589 243.668C400.034 244.322 400.672 244.851 400.954 245.589C401.108 246.089 401.176 246.611 401.156 247.133L401.216 250.549C401.343 252.359 401.067 254.174 400.41 255.865L398.278 262.354C397.126 265.869 395.944 269.438 393.867 272.497C393.574 273.014 393.131 273.431 392.596 273.69C392.177 273.8 391.748 273.867 391.315 273.888C390.561 274.022 389.878 274.416 389.382 275C388.887 275.585 388.61 276.324 388.6 277.09C388.105 276.366 387.488 275.735 386.775 275.224L382.438 271.759C380.954 270.551 379.407 269.324 377.606 268.626C380.028 267.869 382.177 266.425 383.794 264.469C385.411 262.513 386.426 260.13 386.716 257.607C386.714 256.857 386.883 256.115 387.21 255.439C387.571 254.855 388.239 254.41 388.288 253.722C388.348 252.855 387.369 252.202 387.369 251.336C387.369 250.762 387.794 250.286 387.982 249.747C388.158 249.08 388.158 248.379 387.982 247.713L387.383 244.386C387.348 244.053 387.247 243.73 387.087 243.436C386.863 243.154 386.615 242.892 386.345 242.654C385.316 241.5 385.771 239.684 386.345 238.263C387.662 235.11 389.36 232.129 391.399 229.388C392.125 228.467 392.797 227.505 393.412 226.507C393.936 225.596 394.055 224.334 394.609 223.537C395.321 225.408 396.285 227.254 396.893 229.18Z" fill="#5B5583"/>
<path d="M377.453 268.829C377.233 268.993 377.042 269.194 376.89 269.423C376.307 270.155 375.531 270.709 374.649 271.022C375.144 271.378 375.594 271.73 376.059 272.091C379.498 274.75 382.648 277.764 385.455 281.085C385.767 279.971 387.631 280.05 388.086 278.986C388.193 278.682 388.227 278.356 388.185 278.036C388.09 276.368 387.852 274.712 387.473 273.086C387.323 272.249 386.985 271.456 386.484 270.769C385.791 269.933 384.713 269.532 383.685 269.185C382.127 268.641 379.036 267.874 377.453 268.829Z" fill="#323444"/>
<path d="M371.272 272.72C369.788 273.818 368.488 275.194 366.821 275.947C365.644 276.481 364.304 276.714 363.275 277.511C363.834 278.744 365.288 279.382 366.638 279.333C367.99 279.2 369.285 278.724 370.402 277.952C371.287 277.407 372.325 276.774 373.29 277.155C373.438 277.907 372.795 278.615 372.795 279.377C372.795 280.139 373.428 280.694 374.051 281.095C377.019 283.01 380.836 282.852 384.372 282.629C384.575 282.637 384.775 282.578 384.941 282.461C385.018 282.371 385.076 282.268 385.113 282.155C385.149 282.043 385.163 281.925 385.154 281.808C385.198 281.025 385.218 280.248 385.223 279.466C385.323 278.836 385.241 278.19 384.987 277.604C384.733 277.018 384.317 276.517 383.789 276.16C381.87 274.509 379.8 273.042 377.607 271.779C375.431 270.517 373.225 271.264 371.272 272.72Z" fill="#FBB3B2"/>
<path d="M358.666 180.092C356.471 180.354 354.873 182.072 355.096 183.938C355.318 185.804 357.277 187.091 359.473 186.824C361.668 186.556 363.266 184.844 363.043 182.982C362.821 181.121 360.862 179.829 358.666 180.092ZM359.413 186.309C357.554 186.532 355.897 185.438 355.704 183.864C355.511 182.289 356.871 180.834 358.726 180.611C360.58 180.389 362.242 181.483 362.435 183.057C362.628 184.631 361.268 186.086 359.413 186.309Z" fill="#3C354C"/>
<path d="M347.964 181.379C345.769 181.641 344.171 183.359 344.394 185.22C344.616 187.081 346.575 188.373 348.77 188.111C350.966 187.848 352.564 186.131 352.341 184.265C352.118 182.398 350.16 181.116 347.964 181.379ZM348.711 187.591C346.852 187.814 345.195 186.72 345.007 185.151C344.819 183.581 346.169 182.121 348.029 181.893C349.888 181.666 351.545 182.765 351.733 184.339C351.921 185.913 350.566 187.368 348.711 187.591Z" fill="#3C354C"/>
<path d="M340.017 182.334L344.789 183.354L344.32 184.611L339.819 183.289L340.017 182.334Z" fill="#3C354C"/>
<path d="M366.618 179.136L362.217 181.26L362.973 182.369L367.034 180.018L366.618 179.136Z" fill="#3C354C"/>
<path d="M351.901 183.037L355.249 182.636L355.076 183.468L352.203 183.661L351.901 183.037Z" fill="#3C354C"/>
<path d="M345.407 181.913C345.722 181.235 345.891 180.498 345.902 179.75C345.914 179.303 345.99 178.859 346.129 178.433C346.372 177.893 346.742 177.419 347.207 177.052C348.75 175.746 350.961 175.072 353.142 174.978C355.52 174.869 357.885 175.381 360.006 176.463C360.654 176.767 361.234 177.198 361.712 177.731C362.405 178.577 362.553 179.671 363.25 180.507C363.726 181.015 364.325 181.391 364.988 181.599C365.652 181.807 366.358 181.84 367.038 181.695C367.281 180.834 366.964 179.923 367.088 179.042C367.283 178.287 367.546 177.552 367.874 176.845C368.641 174.582 367.523 171.959 365.218 170.608C364.412 170.113 363.458 169.791 362.855 169.123C362.251 168.454 362.108 167.761 361.692 167.093C360.59 165.326 357.736 164.499 355.565 165.316C354.883 165.574 354.279 165.965 353.587 166.242C352.301 166.771 350.837 166.865 349.423 167.044C348.029 167.173 346.665 167.531 345.388 168.103C344.166 168.707 343.142 169.677 342.86 170.835C342.727 171.37 342.757 171.924 342.623 172.454C341.941 175.142 337.534 176.449 337.287 179.191C337.198 180.181 337.737 181.131 338.41 181.938C338.874 182.487 339.987 183.958 340.773 184.17C341.56 184.383 342.158 183.636 342.91 183.378C344.097 183.007 344.814 182.928 345.407 181.913Z" fill="#3C354C"/>
<path opacity="0.2" d="M360 415.814C378.225 415.814 393 413.352 393 410.314C393 407.277 378.225 404.814 360 404.814C341.775 404.814 327 407.277 327 410.314C327 413.352 341.775 415.814 360 415.814Z" fill="#57547D"/>
<path d="M336.412 400.556C335.166 401.338 333.742 401.779 332.456 402.467C331.17 403.155 329.919 404.189 329.553 405.615C329.416 406.057 329.439 406.534 329.617 406.961C329.937 407.478 330.427 407.866 331.002 408.06C333.614 409.221 336.435 409.837 339.293 409.869C342.151 409.902 344.986 409.35 347.623 408.248C348.552 407.802 349.51 407.421 350.492 407.11C351.701 406.863 352.932 406.737 354.166 406.734C355.463 406.658 356.754 406.492 358.028 406.239C358.669 406.167 359.276 405.915 359.779 405.511C360.238 404.982 360.514 404.319 360.565 403.62C361.151 399.764 360.268 395.828 358.093 392.592C357.819 392.138 357.451 391.748 357.015 391.448C356.482 391.173 355.897 391.016 355.299 390.988C352.826 390.686 350.235 390.132 347.737 390.072C345.947 390.033 345.047 390.884 343.781 392.116C341.165 394.735 339.637 398.541 336.412 400.556Z" fill="#323444"/>
<path d="M372.856 400.19C372.856 402.615 373.148 405.184 374.616 407.12C375.288 407.957 376.102 408.669 377.02 409.223C380.125 411.203 384.24 411.931 387.514 410.253C388.043 410.015 388.495 409.635 388.819 409.154C389.314 408.293 389.052 407.219 388.775 406.268L384.037 389.835C380.976 390.305 376.476 390.636 373.756 392.191C371.783 393.314 372.856 398.022 372.856 400.19Z" fill="#323444"/>
<path d="M333.633 298.999C333.346 299.904 332.308 300.325 331.739 301.087C331.071 301.983 331.141 303.226 331.383 304.315C331.682 305.921 332.436 307.407 333.554 308.596C334.121 309.186 334.821 309.631 335.596 309.894C336.37 310.158 337.196 310.232 338.005 310.111C339.597 309.809 340.972 308.398 341.026 306.78C340.998 306.044 340.84 305.318 340.561 304.637L337.189 294.875C337.175 294.806 337.147 294.741 337.106 294.684C337.065 294.627 337.012 294.579 336.951 294.544C336.824 294.515 336.691 294.538 336.58 294.608C335.784 294.984 334.187 295.38 333.722 296.207C333.257 297.033 333.969 298.103 333.633 298.999Z" fill="#FBB3B2"/>
<path d="M332.056 298.509C333.287 298.315 334.365 297.593 335.517 297.118C336.67 296.642 338.114 296.459 339.083 297.251C339.36 297.479 339.627 297.791 339.988 297.786C339.497 295.365 338.754 293.003 337.773 290.737C337.738 290.629 337.671 290.533 337.58 290.465C337.445 290.41 337.294 290.41 337.159 290.465L333.831 291.336C332.6 291.658 332.456 291.559 332.55 292.772C332.575 293.311 332.852 298.509 332.056 298.509Z" fill="#323444"/>
<path d="M331.689 228.022C331.195 228.784 331.195 229.734 331.195 230.63C331.195 235.011 331.239 239.416 331.887 243.753C332.041 244.792 332.233 245.832 332.332 246.881C332.444 248.342 332.468 249.808 332.402 251.272L331.907 270.329C331.848 272.66 331.729 275.165 330.29 276.996C329.854 277.61 329.649 278.359 329.711 279.11C330.087 283.891 330.878 288.633 331.665 293.361C332.931 292.789 334.314 292.526 335.701 292.592C337.089 292.658 338.441 293.052 339.647 293.742C342.142 285.889 343.522 277.724 343.746 269.487C343.86 265.433 343.687 261.354 344.31 257.35C345.354 250.608 344.928 243.693 344.162 236.912C343.919 234.764 343.405 232.551 342.03 230.888C340.729 229.433 338.995 228.433 337.085 228.037C335.255 227.556 333.618 228.051 331.689 228.022Z" fill="#FF8E01"/>
<path opacity="0.1" d="M331.689 228.022C331.195 228.784 331.195 229.734 331.195 230.63C331.195 235.011 331.239 239.416 331.887 243.753C332.041 244.792 332.233 245.832 332.332 246.881C332.444 248.342 332.468 249.808 332.402 251.272L331.907 270.329C331.848 272.66 331.729 275.165 330.29 276.996C329.854 277.61 329.649 278.359 329.711 279.11C330.087 283.891 330.878 288.633 331.665 293.361C332.931 292.789 334.314 292.526 335.701 292.592C337.089 292.658 338.441 293.052 339.647 293.742C342.142 285.889 343.522 277.724 343.746 269.487C343.86 265.433 343.687 261.354 344.31 257.35C345.354 250.608 344.928 243.693 344.162 236.912C343.919 234.764 343.405 232.551 342.03 230.888C340.729 229.433 338.995 228.433 337.085 228.037C335.255 227.556 333.618 228.051 331.689 228.022Z" fill="black"/>
<path d="M337.732 283.288C334.415 300.3 336.226 317.915 342.935 333.896C343.514 335.078 343.921 336.339 344.141 337.638C344.413 340.063 343.296 342.395 342.658 344.741C341.174 350.077 342.03 355.759 342.979 361.219C343.375 363.496 343.782 365.771 344.201 368.045C344.611 370.263 345.007 372.673 343.978 374.683C344.863 378.375 345.388 382.033 346.273 385.726C346.367 386.018 346.395 386.327 346.357 386.632C346.179 387.115 345.864 387.536 345.452 387.845C344.792 388.514 344.318 389.344 344.076 390.253C343.834 391.162 343.833 392.118 344.072 393.027C346.332 391.404 349.482 391.973 352.064 393.027C354.645 394.082 357.187 395.502 359.976 395.502C359.571 392.225 359.18 388.785 360.387 385.711C361.089 383.929 362.326 382.246 362.291 380.341C362.256 378.633 361.213 377.108 360.961 375.42C360.867 374.37 360.907 373.312 361.079 372.272C361.742 366.214 360.99 360.095 360.239 354.047C360.154 352.854 359.873 351.683 359.408 350.582C359.057 349.869 358.532 349.186 358.542 348.389C358.542 347.463 359.289 346.711 359.566 345.83C360.061 344.206 359.151 341.999 360.52 340.994C364.131 338.341 362.746 332.005 362.667 327.525C362.604 323.661 362.439 319.8 362.172 315.942C364.445 322.339 365.375 329.137 364.902 335.91C364.744 338.128 364.452 340.459 365.317 342.508C365.98 344.082 367.296 345.379 367.652 347.047C367.874 348.077 367.716 349.141 367.765 350.191C367.815 351.24 368.171 352.383 369.076 352.913C369.145 357.685 369.57 362.788 369.645 367.56C369.597 369.999 369.795 372.437 370.238 374.836C370.46 375.599 370.583 376.388 370.604 377.183C370.493 378.179 370.229 379.152 369.823 380.068C368.961 382.623 368.735 385.349 369.166 388.011C369.597 390.672 370.672 393.188 372.295 395.339C373.462 393.265 375.896 392.166 378.269 391.993C380.643 391.819 382.987 392.418 385.287 393.022C384.935 390.13 385.51 387.201 386.929 384.657C387.309 384.084 387.601 383.456 387.794 382.796C388.061 381.538 387.438 380.286 387.102 379.044C386.553 377.064 386.746 374.93 386.874 372.861C387.306 365.932 386.999 358.976 385.959 352.111C385.799 350.759 385.482 349.43 385.015 348.151C384.837 347.696 384.619 347.26 384.471 346.8C384.237 345.974 384.105 345.123 384.075 344.266L383.507 336.346C383.106 330.797 384.926 325.317 386.197 319.902C386.766 317.477 387.384 315.056 387.765 312.591C388.284 309.235 388.368 305.805 389.129 302.493C389.812 299.523 391.043 296.628 391.3 293.583C391.696 288.866 389.738 284.307 387.839 279.981C387.047 278.199 384.055 278.377 382.132 278.06C368.487 275.818 354.116 275.803 341.248 280.857C339.918 281.409 338.719 282.237 337.732 283.288Z" fill="#444B97"/>
<path d="M347.568 195.432L349.082 201.322C349.493 202.673 349.721 204.073 349.759 205.485C349.775 206 349.661 206.51 349.428 206.97C349.179 207.347 348.86 207.673 348.488 207.93C347.455 208.717 346.738 210.554 345.556 211.098C346.164 212.157 347.005 211.469 348.103 211.999C350.036 212.939 351.807 214.291 353.903 214.756C355.882 215.192 357.959 214.781 359.922 214.261C362.706 213.504 365.476 212.459 367.716 210.633C369.956 208.806 371.232 207.193 371.222 204.307C368.749 204.599 366.549 202.099 365.456 199.852C365.077 198.998 364.798 198.102 364.625 197.184L363.3 191.348C361.856 191.665 360.679 192.699 359.299 193.239C357.919 193.778 356.287 193.828 354.754 193.897C352.033 194.021 349.326 194.372 346.663 194.946C346.297 195.021 345.838 195.253 345.927 195.61" fill="#FBB3B2"/>
<path opacity="0.1" d="M347.568 195.432L349.082 201.322C349.493 202.673 349.721 204.073 349.759 205.485C349.775 206 349.661 206.51 349.428 206.97C349.179 207.347 348.86 207.673 348.488 207.93C347.455 208.717 346.738 210.554 345.556 211.098C346.164 212.157 347.005 211.469 348.103 211.999C350.036 212.939 351.807 214.291 353.903 214.756C355.882 215.192 357.959 214.781 359.922 214.261C362.706 213.504 365.476 212.459 367.716 210.633C369.956 208.806 371.232 207.193 371.222 204.307C368.749 204.599 366.549 202.099 365.456 199.852C365.077 198.998 364.798 198.102 364.625 197.184L363.3 191.348C361.856 191.665 360.679 192.699 359.299 193.239C357.919 193.778 356.287 193.828 354.754 193.897C352.033 194.021 349.326 194.372 346.663 194.946C346.297 195.021 345.838 195.253 345.927 195.61" fill="black"/>
<path d="M354.067 198.679C361.299 198.679 367.162 192.81 367.162 185.571C367.162 178.332 361.299 172.464 354.067 172.464C346.835 172.464 340.972 178.332 340.972 185.571C340.972 192.81 346.835 198.679 354.067 198.679Z" fill="#FBB3B2"/>
<path d="M357.673 207.178C358.373 205.664 359.384 204.315 360.64 203.218C362.485 201.599 365.007 200.287 365.442 197.872L369.438 202.53C369.655 202.746 369.824 203.006 369.932 203.292C369.983 203.561 369.975 203.837 369.911 204.102C369.846 204.368 369.725 204.616 369.557 204.831C368.568 206.41 367.01 207.539 365.536 208.682C362.158 211.36 358.924 214.216 355.848 217.236C355.712 217.393 355.531 217.504 355.329 217.553C355.138 217.558 354.949 217.504 354.79 217.399C352.135 216.004 349.787 214.093 347.881 211.776C347.738 211.603 347.56 211.405 347.327 211.42C347.187 211.446 347.058 211.513 346.956 211.613C345.626 212.702 344.172 214.004 342.466 213.835C344.676 212.246 345.928 209.593 346.392 206.905C346.484 205.986 346.673 205.078 346.956 204.198C347.103 203.758 347.355 203.36 347.692 203.041C348.028 202.721 348.438 202.49 348.885 202.366C347.807 204.015 348.544 206.351 349.993 207.683C351.401 208.879 353.088 209.698 354.899 210.063C356.58 210.38 357.074 208.475 357.673 207.178Z" fill="#323444"/>
<path d="M340.636 284.634C342.5 285.094 344.266 285.876 346.076 286.456C349.375 287.49 352.846 287.855 356.288 287.53C357.347 287.506 358.377 287.178 359.255 286.584C359.488 286.396 359.7 286.173 359.947 286C360.361 285.752 360.809 285.567 361.278 285.451C365.813 284.03 369.611 280.966 373.295 277.966C373.414 277.867 373.547 277.744 373.537 277.585C373.52 277.477 373.468 277.378 373.389 277.303L371.45 275.076C366.367 275.942 361.159 275.615 356.001 275.487C354.942 275.439 353.881 275.468 352.826 275.571C351.807 275.689 350.803 275.947 349.8 276.165C345.987 276.996 342.09 277.313 338.227 277.858C337.957 277.877 337.695 277.959 337.461 278.095C337.298 278.221 337.159 278.375 337.05 278.551L335.695 280.456C335.169 281.097 334.782 281.841 334.558 282.639C334.241 284.124 334.904 284.619 336.165 284.426C337.655 284.208 339.173 284.278 340.636 284.634Z" fill="#323444"/>
<path d="M355.793 214.969C354.28 213.417 352.565 212.077 350.694 210.984C349.938 210.504 349.1 210.168 348.221 209.994C347.779 209.907 347.324 209.917 346.886 210.025C346.449 210.133 346.04 210.335 345.689 210.618C345.249 211.009 344.972 211.553 344.547 211.964C344.012 212.414 343.398 212.762 342.737 212.989C340.486 213.952 338.352 215.169 336.377 216.617C335.301 217.371 334.331 218.267 333.494 219.28C331.254 222.151 330.918 226.057 330.977 229.7C331.021 232.234 333.45 234.115 335.121 236.011C336.689 237.877 338.108 239.863 339.364 241.951C340.264 243.376 341.204 244.921 341.09 246.619C340.996 248.01 340.185 249.316 340.314 250.702C340.358 251.197 340.516 251.653 340.561 252.133C340.65 253.123 340.259 254.113 340.16 255.103C340.027 256.504 340.482 257.895 340.507 259.305C340.488 260.271 340.366 261.232 340.141 262.171C339.191 266.696 337.999 271.244 338.242 275.863L335.502 276.358C335.761 276.612 335.957 276.925 336.074 277.269C336.191 277.614 336.224 277.981 336.173 278.341C336.121 278.701 335.986 279.044 335.777 279.341C335.569 279.639 335.293 279.884 334.973 280.055C339.25 281.486 343.874 280.763 348.409 280.758C352.163 280.758 355.902 281.253 359.65 281.184C363.399 281.115 367.266 280.436 370.357 278.313C371.198 277.739 371.969 277.066 372.854 276.566C374.04 275.951 375.318 275.533 376.638 275.328C379.082 274.862 381.567 274.639 384.056 274.665C385.272 274.665 386.598 274.714 387.567 273.982C388.635 273.17 388.907 271.7 389.05 270.368C389.194 268.963 389.283 267.552 389.308 266.141C389.349 265.043 389.291 263.942 389.134 262.854C388.986 262.059 388.793 261.272 388.556 260.498L386.691 253.925C385.92 251.212 386.993 248.237 387.221 245.426C387.275 244.762 387.285 243.99 386.776 243.565C386.593 243.411 386.34 243.307 386.281 243.07C386.254 242.957 386.251 242.84 386.272 242.726C386.292 242.611 386.336 242.503 386.4 242.406C387.389 240.426 388.872 238.679 390.227 236.892C392.503 233.758 394.616 230.508 396.558 227.156C395.95 220.141 392.998 213.535 388.18 208.405C387.191 207.331 386.058 206.302 384.674 205.816C383.769 205.54 382.83 205.388 381.885 205.366C378.007 205.104 373.972 204.871 370.594 202.921C370.352 202.753 370.077 202.636 369.788 202.579C369.041 202.495 368.497 203.233 368.013 203.817C366.767 205.302 364.932 206.153 363.32 207.247C360.313 209.291 357.964 212.103 355.793 214.969Z" fill="#FF8E01"/>
<path d="M396.893 229.18C397.665 231.625 397.591 234.239 397.843 236.788C397.992 238.326 398.262 239.851 398.649 241.347C398.826 242.169 399.144 242.955 399.589 243.668C400.034 244.322 400.672 244.851 400.954 245.589C401.108 246.089 401.176 246.611 401.156 247.133L401.216 250.549C401.343 252.359 401.067 254.174 400.41 255.865L398.278 262.354C397.126 265.869 395.944 269.438 393.867 272.497C393.574 273.014 393.131 273.431 392.596 273.69C392.177 273.8 391.748 273.867 391.315 273.888C390.561 274.022 389.878 274.416 389.382 275C388.887 275.585 388.61 276.324 388.6 277.09C388.105 276.366 387.488 275.735 386.775 275.224L382.438 271.759C380.954 270.551 379.407 269.324 377.606 268.626C380.028 267.869 382.177 266.425 383.794 264.469C385.411 262.513 386.426 260.13 386.716 257.607C386.714 256.857 386.883 256.115 387.21 255.439C387.571 254.855 388.239 254.41 388.288 253.722C388.348 252.855 387.369 252.202 387.369 251.336C387.369 250.762 387.794 250.286 387.982 249.747C388.158 249.08 388.158 248.379 387.982 247.713L387.383 244.386C387.348 244.053 387.247 243.73 387.087 243.436C386.863 243.154 386.615 242.892 386.345 242.654C385.316 241.5 385.771 239.684 386.345 238.263C387.662 235.11 389.36 232.129 391.399 229.388C392.125 228.467 392.797 227.505 393.412 226.507C393.936 225.596 394.055 224.334 394.609 223.537C395.321 225.408 396.285 227.254 396.893 229.18Z" fill="#FF8E01"/>
<path d="M377.453 268.829C377.233 268.993 377.042 269.194 376.89 269.423C376.307 270.155 375.531 270.709 374.649 271.022C375.144 271.378 375.594 271.73 376.059 272.091C379.498 274.75 382.648 277.764 385.455 281.085C385.767 279.971 387.631 280.05 388.086 278.986C388.193 278.682 388.227 278.356 388.185 278.036C388.09 276.368 387.852 274.712 387.473 273.086C387.323 272.249 386.985 271.456 386.484 270.769C385.791 269.933 384.713 269.532 383.685 269.185C382.127 268.641 379.036 267.874 377.453 268.829Z" fill="#323444"/>
<path d="M371.272 272.72C369.788 273.818 368.488 275.194 366.821 275.947C365.644 276.481 364.304 276.714 363.275 277.511C363.834 278.744 365.288 279.382 366.638 279.333C367.99 279.2 369.285 278.724 370.402 277.952C371.287 277.407 372.325 276.774 373.29 277.155C373.438 277.907 372.795 278.615 372.795 279.377C372.795 280.139 373.428 280.694 374.051 281.095C377.019 283.01 380.836 282.852 384.372 282.629C384.575 282.637 384.775 282.578 384.941 282.461C385.018 282.371 385.076 282.268 385.113 282.155C385.149 282.043 385.163 281.925 385.154 281.808C385.198 281.025 385.218 280.248 385.223 279.466C385.323 278.836 385.241 278.19 384.987 277.604C384.733 277.018 384.317 276.517 383.789 276.16C381.87 274.509 379.8 273.042 377.607 271.779C375.431 270.517 373.225 271.264 371.272 272.72Z" fill="#FBB3B2"/>
<path d="M358.666 180.092C356.471 180.354 354.873 182.072 355.096 183.938C355.318 185.804 357.277 187.091 359.473 186.824C361.668 186.556 363.266 184.844 363.043 182.982C362.821 181.121 360.862 179.829 358.666 180.092ZM359.413 186.309C357.554 186.532 355.897 185.438 355.704 183.864C355.511 182.289 356.871 180.834 358.726 180.611C360.58 180.389 362.242 181.483 362.435 183.057C362.628 184.631 361.268 186.086 359.413 186.309Z" fill="#444B97"/>
<path d="M347.964 181.379C345.769 181.641 344.171 183.359 344.394 185.22C344.616 187.081 346.575 188.373 348.77 188.111C350.966 187.848 352.564 186.131 352.341 184.265C352.118 182.398 350.16 181.116 347.964 181.379ZM348.711 187.591C346.852 187.814 345.195 186.72 345.007 185.151C344.819 183.581 346.169 182.121 348.029 181.893C349.888 181.666 351.545 182.765 351.733 184.339C351.921 185.913 350.566 187.368 348.711 187.591Z" fill="#444B97"/>
<path d="M340.017 182.334L344.789 183.354L344.32 184.611L339.819 183.289L340.017 182.334Z" fill="#444B97"/>
<path d="M366.618 179.136L362.217 181.26L362.973 182.369L367.034 180.018L366.618 179.136Z" fill="#444B97"/>
<path d="M351.901 183.037L355.249 182.636L355.076 183.468L352.203 183.661L351.901 183.037Z" fill="#444B97"/>
<path d="M345.407 181.913C345.722 181.235 345.891 180.498 345.902 179.75C345.914 179.303 345.99 178.859 346.129 178.433C346.372 177.893 346.742 177.419 347.207 177.052C348.75 175.746 350.961 175.072 353.142 174.978C355.52 174.869 357.885 175.381 360.006 176.463C360.654 176.767 361.234 177.198 361.712 177.731C362.405 178.577 362.553 179.671 363.25 180.507C363.726 181.015 364.325 181.391 364.988 181.599C365.652 181.807 366.358 181.84 367.038 181.695C367.281 180.834 366.964 179.923 367.088 179.042C367.283 178.287 367.546 177.552 367.874 176.845C368.641 174.582 367.523 171.959 365.218 170.608C364.412 170.113 363.458 169.791 362.855 169.123C362.251 168.454 362.108 167.761 361.692 167.093C360.59 165.326 357.736 164.499 355.565 165.316C354.883 165.574 354.279 165.965 353.587 166.242C352.301 166.771 350.837 166.865 349.423 167.044C348.029 167.173 346.665 167.531 345.388 168.103C344.166 168.707 343.142 169.677 342.86 170.835C342.727 171.37 342.757 171.924 342.623 172.454C341.941 175.142 337.534 176.449 337.287 179.191C337.198 180.181 337.737 181.131 338.41 181.938C338.874 182.487 339.987 183.958 340.773 184.17C341.56 184.383 342.158 183.636 342.91 183.378C344.097 183.007 344.814 182.928 345.407 181.913Z" fill="#323444"/>
<g opacity="0.2">
<path d="M215.937 92.0079H174.344C171.945 92.0079 170 93.9546 170 96.356V102.875C170 105.276 171.945 107.223 174.344 107.223H215.937C218.336 107.223 220.281 105.276 220.281 102.875V96.356C220.281 93.9546 218.336 92.0079 215.937 92.0079Z" fill="#F9F9F9"/>
<path d="M215.937 67.3348H174.344C171.945 67.3348 170 69.2815 170 71.6829V78.202C170 80.6034 171.945 82.55 174.344 82.55H215.937C218.336 82.55 220.281 80.6034 220.281 78.202V71.6829C220.281 69.2815 218.336 67.3348 215.937 67.3348Z" fill="#F9F9F9"/>
<path d="M215.937 25.5962H174.344C171.945 25.5962 170 27.5429 170 29.9442V36.4634C170 38.8647 171.945 40.8114 174.344 40.8114H215.937C218.336 40.8114 220.281 38.8647 220.281 36.4634V29.9442C220.281 27.5429 218.336 25.5962 215.937 25.5962Z" fill="#F9F9F9"/>
<path d="M215.937 0.923035H174.344C171.945 0.923035 170 2.86971 170 5.27107V11.7902C170 14.1916 171.945 16.1383 174.344 16.1383H215.937C218.336 16.1383 220.281 14.1916 220.281 11.7902V5.27107C220.281 2.86971 218.336 0.923035 215.937 0.923035Z" fill="#F9F9F9"/>
</g>
<g opacity="0.2">
<path d="M294.591 107.223H252.998C250.599 107.223 248.654 109.17 248.654 111.571V118.09C248.654 120.492 250.599 122.438 252.998 122.438H294.591C296.99 122.438 298.935 120.492 298.935 118.09V111.571C298.935 109.17 296.99 107.223 294.591 107.223Z" fill="#F9F9F9"/>
<path d="M294.591 82.55H252.998C250.599 82.55 248.654 84.4967 248.654 86.8981V93.4172C248.654 95.8186 250.599 97.7652 252.998 97.7652H294.591C296.99 97.7652 298.935 95.8186 298.935 93.4172V86.8981C298.935 84.4967 296.99 82.55 294.591 82.55Z" fill="#F9F9F9"/>
<path d="M294.591 40.8114H252.998C250.599 40.8114 248.654 42.7581 248.654 45.1594V51.6786C248.654 54.0799 250.599 56.0266 252.998 56.0266H294.591C296.99 56.0266 298.935 54.0799 298.935 51.6786V45.1594C298.935 42.7581 296.99 40.8114 294.591 40.8114Z" fill="#F9F9F9"/>
<path d="M294.591 16.1382H252.998C250.599 16.1382 248.654 18.0849 248.654 20.4863V27.0054C248.654 29.4068 250.599 31.3534 252.998 31.3534H294.591C296.99 31.3534 298.935 29.4068 298.935 27.0054V20.4863C298.935 18.0849 296.99 16.1382 294.591 16.1382Z" fill="#F9F9F9"/>
</g>
<g opacity="0.2">
<path d="M373.247 122.438H331.654C329.254 122.438 327.31 124.385 327.31 126.787V133.306C327.31 135.707 329.254 137.654 331.654 137.654H373.247C375.646 137.654 377.591 135.707 377.591 133.306V126.787C377.591 124.385 375.646 122.438 373.247 122.438Z" fill="#F9F9F9"/>
<path d="M373.247 97.7653H331.654C329.254 97.7653 327.31 99.712 327.31 102.113V108.632C327.31 111.034 329.254 112.981 331.654 112.981H373.247C375.646 112.981 377.591 111.034 377.591 108.632V102.113C377.591 99.712 375.646 97.7653 373.247 97.7653Z" fill="#F9F9F9"/>
<path d="M373.247 56.0265H331.654C329.254 56.0265 327.31 57.9732 327.31 60.3745V66.8937C327.31 69.295 329.254 71.2417 331.654 71.2417H373.247C375.646 71.2417 377.591 69.295 377.591 66.8937V60.3745C377.591 57.9732 375.646 56.0265 373.247 56.0265Z" fill="#F9F9F9"/>
<path d="M373.247 31.3534H331.654C329.254 31.3534 327.31 33.3001 327.31 35.7014V42.2206C327.31 44.6219 329.254 46.5686 331.654 46.5686H373.247C375.646 46.5686 377.591 44.6219 377.591 42.2206V35.7014C377.591 33.3001 375.646 31.3534 373.247 31.3534Z" fill="#F9F9F9"/>
</g>
<g opacity="0.2">
<path d="M126.937 299.085H85.344C82.9449 299.085 81 301.032 81 303.433V309.952C81 312.354 82.9449 314.3 85.344 314.3H126.937C129.336 314.3 131.281 312.354 131.281 309.952V303.433C131.281 301.032 129.336 299.085 126.937 299.085Z" fill="#F9F9F9"/>
<path d="M126.937 274.412H85.344C82.9449 274.412 81 276.359 81 278.76V285.279C81 287.68 82.9449 289.627 85.344 289.627H126.937C129.336 289.627 131.281 287.68 131.281 285.279V278.76C131.281 276.359 129.336 274.412 126.937 274.412Z" fill="#F9F9F9"/>
<path d="M126.937 232.673H85.344C82.9449 232.673 81 234.62 81 237.021V243.54C81 245.942 82.9449 247.888 85.344 247.888H126.937C129.336 247.888 131.281 245.942 131.281 243.54V237.021C131.281 234.62 129.336 232.673 126.937 232.673Z" fill="#F9F9F9"/>
<path d="M126.937 208H85.344C82.9449 208 81 209.947 81 212.348V218.867C81 221.269 82.9449 223.215 85.344 223.215H126.937C129.336 223.215 131.281 221.269 131.281 218.867V212.348C131.281 209.947 129.336 208 126.937 208Z" fill="#F9F9F9"/>
</g>
</svg>
