<svg width="1440" height="149" viewBox="0 0 1440 149" fill="none" xmlns="http://www.w3.org/2000/svg">
<path d="M189 73.3097C112.38 61.2856 0 12.3097 0 12.3097V148.81H1444.5C1444.5 148.81 1485.61 49.402 1444.5 21.3097C1412.94 -0.254047 1384.72 35.9523 1347 29.8097C1326.03 26.3951 1315.96 17.2919 1295 13.8097C1229.3 2.89444 1195.51 44.3226 1130.5 58.8097C1073.19 71.5817 1041.13 82.1765 982.5 85.3097C921.096 88.591 886.989 73.8584 825.5 73.3097C717.063 72.3421 657.637 111.926 549.5 103.81C484.921 98.9626 450.933 79.8119 386.5 73.3097C309.761 65.5657 265.196 85.2672 189 73.3097Z" fill="#D1D3D4"/>
<path d="M1270 0.216827C1270 8.71298 1275.88 15.5872 1283.14 15.5872L1270 0.216827Z" fill="#57547D"/>
<path d="M1294 -3.05176e-05C1294 8.49613 1288.12 15.3703 1280.86 15.3703L1294 -3.05176e-05Z" fill="#57547D"/>
<path opacity="0.2" d="M1277.34 23.7348C1282.13 23.7348 1286.01 23.0788 1286.01 22.2696C1286.01 21.4604 1282.13 20.8044 1277.34 20.8044C1272.56 20.8044 1268.68 21.4604 1268.68 22.2696C1268.68 23.0788 1272.56 23.7348 1277.34 23.7348Z" fill="#57547D"/>
<path d="M1271.52 15.4583C1271.52 15.4583 1276.47 15.3049 1277.95 14.2456C1279.43 13.1863 1285.55 11.9142 1285.92 13.617C1286.29 15.3198 1293.34 22.0863 1287.77 22.1308C1282.19 22.1754 1274.8 21.2596 1273.32 20.3538C1271.83 19.448 1271.52 15.4583 1271.52 15.4583Z" fill="#A8A8A8"/>
<path opacity="0.2" d="M1287.87 21.537C1282.29 21.5815 1274.91 20.6658 1273.42 19.76C1272.29 19.0719 1271.84 16.592 1271.68 15.4536H1271.52C1271.52 15.4536 1271.83 19.4432 1273.32 20.349C1274.81 21.2548 1282.19 22.1706 1287.77 22.126C1289.38 22.126 1289.94 21.537 1289.91 20.6905C1289.68 21.2053 1289.1 21.5271 1287.87 21.537Z" fill="black"/>
<path d="M867.302 62.7717C867.302 70.8276 870.691 77.3358 874.874 77.3358L867.302 62.7717Z" fill="#57547D"/>
<path d="M880.422 63.4317C880.422 71.4875 877.034 77.9958 872.85 77.9958L880.422 63.4317Z" fill="#57547D"/>
<path opacity="0.2" d="M871.522 85.0978C875.329 85.0978 878.416 84.5748 878.416 83.9297C878.416 83.2845 875.329 82.7615 871.522 82.7615C867.714 82.7615 864.628 83.2845 864.628 83.9297C864.628 84.5748 867.714 85.0978 871.522 85.0978Z" fill="#57547D"/>
<path d="M866.893 78.5094C866.893 78.5094 870.825 78.3856 872.007 77.5194C873.189 76.6532 878.06 75.6632 878.352 77.0244C878.643 78.3856 884.261 83.7613 879.835 83.7959C875.409 83.8306 869.519 83.1029 868.337 82.3852C867.155 81.6675 866.893 78.5094 866.893 78.5094Z" fill="#A8A8A8"/>
</svg>
